<?xml version="1.0" encoding="utf-8" ?>
<svg xmlns="http://www.w3.org/2000/svg" xmlns:xlink="http://www.w3.org/1999/xlink" width="1536" height="1097">
	<path d="M0 0L282.999 0L288.529 0L1534.69 0C1535.36 1.07098 1535.76 2.0712 1535.86 3.34997C1536.93 17.2183 1536 31.9098 1536 45.8475L1536.01 130.549L1536.02 469.915L1536.02 557.991C1536.02 567.015 1537.23 585.76 1535.78 593.677C1535.63 594.511 1535.31 595.32 1535 596.108C1536.95 600.598 1536.96 620.467 1535.13 625.291C1535.77 627.023 1535.93 628.461 1535.96 630.288C1536.7 668.16 1536.02 706.184 1536.02 744.069L1536.02 966.099C1536.02 978.961 1537.15 1090.91 1535.44 1095.51C1535.2 1096.15 1535.01 1096.44 1534.69 1097L0 1097L0 0ZM0 0L0 1097L1534.69 1097C1535.01 1096.44 1535.2 1096.15 1535.44 1095.51C1537.15 1090.91 1536.02 978.961 1536.02 966.099L1536.02 744.069C1536.02 706.184 1536.7 668.16 1535.96 630.288C1535.93 628.461 1535.77 627.023 1535.13 625.291C1535.03 625.573 1534.97 625.874 1534.83 626.139C1533.83 628.032 1531.41 630.135 1529.26 630.528C1517.71 632.64 1503.83 605.153 1497.5 597.266Q1495.76 595.117 1493.87 593.104Q1491.98 591.09 1489.95 589.223Q1487.91 587.356 1485.74 585.646Q1483.57 583.936 1481.28 582.392C1468.44 573.648 1453.2 569.611 1437.75 569.581C1376.23 569.461 1336.51 625.668 1290.44 657.761C1271.19 671.166 1249.73 681.414 1226.55 685.659C1164.3 697.059 1114.23 663.367 1065.54 629.646C1070.67 658.195 1078.06 684.696 1093.55 709.5C1097.28 705.556 1101.38 701.289 1106.81 699.863C1109.54 699.148 1112.41 699.462 1114.79 701.01C1119.49 704.059 1121.61 710.369 1122.6 715.618C1124.68 726.669 1125.32 762.29 1118.93 771.802C1124.93 775.355 1137.47 785.161 1139.55 791.611C1152.53 781.468 1155.73 760.206 1171.64 753.179C1173.41 752.397 1175.22 752.214 1177.03 752.994C1180.23 754.372 1182.45 758.715 1183.75 761.755C1189.16 774.355 1192.43 809.864 1187.32 822.668C1192.13 825.282 1200 828.756 1201.7 834.444C1215.86 825.1 1215.76 802.652 1229.61 793.083C1231.73 791.616 1233.97 790.932 1236.53 791.546C1240.79 792.57 1243.92 795.618 1245.97 799.369C1255.24 816.272 1255.26 859.824 1249.73 878.229C1249.85 878.329 1249.96 878.427 1250.08 878.529C1255.76 883.502 1259.55 890.085 1259.91 897.73Q1259.94 898.402 1259.94 899.074Q1259.93 899.746 1259.89 900.418Q1259.85 901.089 1259.78 901.757Q1259.71 902.426 1259.6 903.09Q1259.49 903.753 1259.35 904.411Q1259.21 905.069 1259.04 905.718Q1258.87 906.368 1258.66 907.008Q1258.46 907.648 1258.22 908.277Q1257.98 908.905 1257.71 909.521Q1257.44 910.137 1257.14 910.738Q1256.84 911.339 1256.5 911.924Q1256.17 912.51 1255.81 913.077Q1255.45 913.645 1255.06 914.193Q1254.68 914.742 1254.26 915.27Q1253.84 915.798 1253.4 916.304Q1252.96 916.811 1252.49 917.294C1243.84 926.339 1231.37 927.239 1219.57 927.452C1216.9 936.976 1210.15 944.304 1203.24 951.101C1183.7 970.315 1158.53 981.873 1130.75 981.479C1098.7 981.024 1065.8 965.518 1043.61 942.659C1059.77 942.558 1082.02 941.567 1094.63 930.354C1096.8 928.415 1098.99 926.025 1099.16 923.004Q1096.9 923.263 1094.62 923.342C1065.28 924.267 1035.28 911.374 1014.04 891.442C1026.37 891.904 1038.24 891.407 1050.53 890.295C1019.21 878.472 984.914 866.919 967.265 836.21C980.108 842.409 992.911 844.051 1006.9 845.207C988.478 833.459 972.991 815.265 952.307 807.461C914.589 793.229 872.873 849.83 839.833 862.951Q836.866 864.101 833.828 865.045Q830.789 865.988 827.693 866.722Q824.597 867.456 821.457 867.975Q818.318 868.495 815.151 868.799C804.275 869.837 791.862 868.888 781.767 873.584C770.473 878.837 766.639 895.945 762.779 906.72C756.894 923.145 743.271 947.26 726.672 954.521C723.925 955.723 721.694 956.13 718.874 954.999C716.541 951.402 720.368 941.708 720.926 937.351C722.371 926.082 720.359 916.688 716.213 906.249C695.734 920.53 691.167 944.959 682.748 966.79Q680.176 973.418 676.982 979.769Q673.787 986.12 669.999 992.136C655.116 1015.49 632.964 1028.31 606.502 1034.18C615.687 1014.96 619.826 996.445 619.423 975.171C610.72 989.162 602.231 1003.2 592.005 1016.16C570.728 1043.12 544.7 1062.16 509.809 1066.23C523.087 1043.73 530.808 1023.19 534.402 997.355C527.761 1005.6 521.825 1014.43 515.239 1022.73C491.878 1052.18 462.634 1078.14 425.516 1087.9C415.558 1090.52 405.474 1091.67 395.27 1092.86C414.062 1074.3 430.967 1055.77 431.421 1027.63C418.309 1042.86 403.81 1056.96 387.106 1068.22C350.816 1092.69 313.585 1099.51 270.922 1091.17C286.131 1081.62 300.921 1071.77 313.714 1059.07C346.066 1026.93 361.483 971.606 361.642 927.103C354.398 931.488 347.862 937.571 341.219 942.804Q336.779 946.33 332.098 949.527Q327.416 952.724 322.516 955.575Q317.616 958.427 312.524 960.919Q307.432 963.411 302.173 965.53C268.116 979.168 231.903 980.128 198.08 965.618C218.017 961.891 237.977 951.47 253.01 937.957C279.363 914.268 292.893 881.523 294.684 846.511C277.343 856.221 265.791 865.741 246.469 873.612C209.639 888.616 172.67 888 136.144 872.577C154.8 867.069 173.153 859.359 188.984 847.911C214.575 829.403 231.856 800.048 236.899 768.923C223.496 773.828 210.105 778.591 196.092 781.451C150.171 790.826 114.802 784.191 75.8749 758.412C85.7906 757.058 95.7323 755.764 105.498 753.537C145.371 744.442 180.191 721.009 202.022 686.242C181.765 690.136 161.731 693.733 141.026 693.609C94.2552 693.328 62.425 678.957 29.811 645.914C46.7816 648.696 64.6341 648.089 81.5817 645.415C118.997 639.512 162.696 617.431 185.394 586.361C173.834 588.355 161.43 588.984 149.705 589.113C90.192 589.768 42.0821 568.121 0.0243103 526.833C6.40589 528.276 12.7552 529.535 19.2579 530.3C78.0353 537.217 128.732 517.954 174.309 481.847C159.104 480.429 143.304 477.965 128.549 474.067C87.8841 463.324 51.151 439.701 29.7155 402.959C89.7546 420.078 158.107 405.329 212.967 378.594C197.373 370.682 186.774 361.021 176.608 346.981C213.903 352.721 247.267 340.161 278.56 320.852C266.756 318.742 254.786 316.844 243.79 311.82C222.694 302.183 213.503 284.353 205.825 263.641C244.763 279.163 287.822 270.206 324.69 253.272C340.279 246.112 355.095 237.315 370.609 229.968C386.795 222.303 403.334 216.218 420.417 210.883C408.615 204.373 395.004 200.416 382.611 195.067C325.948 170.61 282.382 131.104 259.31 72.9337C253.055 57.1625 247.351 37.9973 254.609 21.6542C260.444 8.51477 270.375 4.81076 282.999 0L0 0ZM288.529 0C319.371 11.4606 324.077 31.1747 344.692 53.2732C362.009 71.8379 382.478 85.3294 405.805 95.1432C389.817 78.8459 371.898 59.9957 371.973 35.5734C372.001 26.3983 374.835 16.2998 381.48 9.68688C386.515 4.67586 392.519 1.92594 399.652 1.94771C409.947 1.97913 418.3 7.49652 425.281 14.6361C431.892 21.3981 438.076 28.7696 445.185 35.0115C477.78 63.6326 522.111 84.1461 565.943 84.8298C578.342 85.0231 593.425 84.4759 604.916 79.6063C612.012 76.599 613.995 68.6618 623.077 68.6437C631.908 68.6261 641.305 76.7173 649.571 79.8328C655.396 82.0283 661.066 82.7749 667.262 83.0827C653.452 61.8583 639.126 38.3301 644.62 11.8119Q645.724 6.73679 647.843 1.99478C666.66 32.8763 688.006 53.0988 724.04 61.8713C741.419 66.102 758.904 67.0967 776.736 66.4293C774.519 52.4396 767.755 17.9262 776.293 6.205C777.147 5.03339 778.032 4.38059 779.268 3.65864C782.401 4.27107 803.942 31.2364 810.634 36.3864C817.948 42.0145 827.778 46.3217 836.509 48.9741C865.54 57.7927 895.169 49.866 924.59 48.5375C975.444 46.2411 1038.34 62.1534 1068.54 106.576C1072.71 112.698 1075.95 119.231 1078.96 125.977C1117.19 136.077 1156.63 132.058 1191.04 111.96C1233.48 87.1657 1252.08 45.6123 1309.43 60.4603C1322.34 63.8033 1335.75 69.571 1349.31 68.2556C1371.95 66.0605 1390.43 42.7829 1414.15 55.2793C1421.35 59.0739 1427.29 65.3764 1431.38 72.3553C1436.96 81.9055 1440.15 94.2908 1437.27 105.206C1436.52 108.021 1435.42 110.428 1433.96 112.93C1445.85 115.771 1456.78 128.085 1462.9 138.055C1467.49 145.535 1472.76 156.867 1470.45 165.952C1470.25 166.746 1470.13 166.88 1469.78 167.504C1477.9 172.667 1484.1 183.002 1486.18 192.277C1487.75 199.292 1487.11 207.437 1483.09 213.587C1479.7 218.779 1473.69 221.376 1471.31 227.289C1470.89 228.326 1471.16 227.898 1470.25 228.696C1488.27 258.457 1484.17 314.868 1476.25 347.24C1474.16 355.804 1470.07 372.818 1462.19 377.449C1460.88 378.221 1460.29 378.054 1458.84 377.916C1455.14 375.009 1454.45 369.45 1453.94 365.027C1452.88 355.984 1453.63 346.724 1453.22 337.624C1452.57 323.263 1449.24 288.477 1438.47 278.535C1436.01 283.956 1425.65 287.906 1420.44 289.877C1413.92 292.348 1406.59 294.767 1399.69 295.815C1405.8 304.667 1399.45 338.444 1397.53 349.014C1394.82 363.907 1388.33 400.074 1375.85 409.451C1374.56 410.421 1373.26 410.996 1371.63 410.698C1370.4 410.474 1369.59 409.756 1368.88 408.75C1362 399.011 1364.19 353.684 1362.68 338.721Q1361.85 329.96 1360.03 321.352Q1358.21 312.743 1355.41 304.4C1353.2 297.889 1350.29 289.919 1344.19 286.104C1331.79 293.093 1312.62 296.24 1298.51 299.617C1300.62 308.722 1288.24 336.959 1283.26 345.082C1281.07 348.653 1277.92 352.488 1273.64 353.446C1271.16 354.001 1268.96 353.375 1266.9 351.934C1256.52 344.651 1251.66 317.404 1243.96 315.973C1241.11 317.101 1239.77 319.532 1238.57 322.229C1232.28 336.404 1227.12 383.494 1211.38 389.71C1208.54 390.831 1205.27 390.106 1202.59 388.884C1192.75 384.413 1188.43 371.272 1185.25 361.831C1182.17 352.637 1179.75 341.274 1172.93 334.078C1169.86 335.426 1167.1 336.103 1163.79 336.623C1161.24 352.253 1147.11 391.991 1134.57 401.044C1131.85 403.007 1128.57 404.199 1125.2 403.53C1120.72 402.641 1117.54 398.734 1115.27 395.033C1110.46 387.157 1104.59 367.109 1096.93 363.058C1095.37 363.162 1095.07 363.075 1093.99 364.323C1090.14 368.761 1088.91 377.021 1087.49 382.626C1081.54 406.167 1075.4 434.087 1056.57 450.958C1058.38 454.972 1060.3 458.97 1061.87 463.085C1074.79 467.489 1086.42 472.538 1097.56 480.505C1132.39 505.398 1156.32 548.956 1202.1 555.443C1254.31 562.84 1298.64 526.996 1345.29 510.34C1420.86 483.358 1490.34 499.743 1527.4 574.99C1530.4 581.082 1534.35 589.278 1535 596.108C1535.31 595.32 1535.63 594.511 1535.78 593.677C1537.23 585.76 1536.02 567.015 1536.02 557.991L1536.02 469.915L1536.01 130.549L1536 45.8475C1536 31.9098 1536.93 17.2183 1535.86 3.34997C1535.76 2.0712 1535.36 1.07098 1534.69 0L288.529 0ZM444.708 211.272C452.399 236.689 466.687 254.888 487.107 271.518C446.941 271.7 420.511 267.865 385.655 247.106C387.378 271.306 391.152 295.663 408.191 314.491C376.444 312.49 354.829 305.204 327.513 289.071C330.413 316.658 338.255 344.106 360.965 362.299Q362.032 363.149 363.177 363.89C335.229 362.067 311.966 353.02 287.502 339.954C294.813 371.457 303.675 397.7 332.814 415.846Q335.904 417.792 339.105 419.548C300.748 418.073 273.033 409.781 238.689 393.184C247.534 431.978 274.069 464.284 307.455 485.215C320.18 493.193 333.427 499.113 347.896 503.103C317.688 509.537 292.581 505.536 263.995 494.404C275.301 524.287 295.016 547.507 324.413 560.764C338.996 567.34 354.479 570.506 370.309 572.261C338.806 583.93 306.624 580.129 274.831 572.161C293.722 599.846 320.54 621.422 354.124 627.717C359.135 628.657 364.3 629.124 369.39 629.369C344.346 641.318 320.624 643.39 293.205 644.851C331.76 672.335 374.095 689.614 422.092 681.465Q427.503 680.499 432.84 679.181Q438.177 677.864 443.417 676.201Q448.656 674.539 453.776 672.539Q458.896 670.538 463.875 668.208C431.773 701.531 391.795 718.309 345.865 720.897C386.005 744.36 429.048 757.974 475.239 745.775C508.875 736.892 537.736 716.961 567.781 700.283C533.479 740.308 504.137 773.3 451.041 786.822C488.257 804.497 527.942 804.865 566.561 791.133C593.54 781.54 619.777 767.31 642.972 750.561C621.457 787.464 595.559 826.481 552.147 839.24Q553.483 839.741 554.831 840.21Q556.179 840.678 557.538 841.113Q558.897 841.548 560.266 841.949Q561.636 842.35 563.015 842.717Q564.394 843.084 565.781 843.417Q567.169 843.75 568.565 844.049Q569.96 844.347 571.362 844.611Q572.765 844.875 574.173 845.105Q575.582 845.334 576.995 845.528Q578.409 845.722 579.827 845.882Q581.245 846.041 582.667 846.165Q584.089 846.289 585.513 846.379Q586.937 846.468 588.363 846.521Q589.789 846.575 591.216 846.594Q592.643 846.612 594.07 846.596Q595.497 846.579 596.923 846.527Q598.349 846.475 599.773 846.388Q601.198 846.3 602.619 846.178Q604.041 846.056 605.459 845.898Q606.878 845.741 608.292 845.548Q609.706 845.356 611.114 845.128Q612.523 844.901 613.926 844.639Q615.329 844.376 616.724 844.08Q618.12 843.783 619.508 843.452Q620.896 843.121 622.276 842.755Q623.655 842.39 625.025 841.99Q626.395 841.591 627.755 841.158Q629.115 840.725 630.463 840.258Q631.812 839.792 633.148 839.292Q634.485 838.792 635.809 838.26Q637.133 837.727 638.443 837.162Q639.753 836.596 641.049 835.999C660.547 827.076 676.298 813.38 693.279 800.662C679.575 821.343 666.6 833.616 644.422 845.034C675.048 850.708 705.69 845.292 731.557 827.513C742.662 819.88 752.676 810.867 764.305 803.963C753.575 833.75 734.924 848.805 707.604 862.771C742.099 869.957 774.603 857.889 803.188 839.122C813.179 832.562 822.621 825.131 832.082 817.837C821.652 843.891 811.704 847.426 792.183 863.454C821.588 867.386 845.97 855.127 868.585 837.852C881.388 828.072 893.907 817.66 907.573 809.098C913.579 805.334 928.664 800.017 932.468 796.543L932.482 795.029C929.756 792.958 925.294 793.535 922.048 794.001C896.673 797.638 874.923 821.677 854.424 835.321C845.534 841.238 836.422 845.563 826.436 849.297C844.518 837.18 854.956 820.38 869.459 804.699C878.494 794.93 889.121 786.718 899.655 778.651C870.309 789.559 863.684 808.379 845.056 830.002C839.263 836.726 832.716 842.341 825.57 847.59C831.653 840.572 837.446 833.496 842.328 825.571C848.691 815.241 853.793 804.294 861.359 794.723Q865.246 789.78 869.771 785.414C873.92 781.485 881.683 776.879 884.243 772.026C882.438 770.76 881.338 770.351 879.117 770.779C861.066 774.26 835.733 803.389 821.254 815.374C803.723 829.887 780.439 845.169 758.151 850.634C766.564 842.259 774.797 833.88 782.143 824.529C791.682 812.385 800.17 799.28 810.865 788.088C820.378 778.132 836.618 770.181 843.615 762.323C794.741 773.817 787.315 827.814 748.6 849.019C756.697 841.188 764.021 833.079 770.243 823.66C778.91 810.54 785.789 796.234 795.404 783.744C804.044 772.519 815.707 764.982 825.738 755.221C798.039 764.338 774.155 783.019 751.481 800.801C736.762 812.346 722.948 823.913 705.128 830.417C728.417 813.897 743.808 791.385 763.891 771.708C773.647 762.148 786.024 754.538 795.121 744.591L795.254 743.416C792.626 742.57 790.672 743.452 788.29 744.676C745.687 766.555 731.33 821.374 683.074 835.503C712.513 817.695 726.029 791.153 747.768 766.151C757.171 755.337 768.403 746.367 777.962 735.703C732.597 757.433 722.83 803.749 686.479 831.038C715.011 795.096 725.83 758.016 764.129 729.446C715.143 752.988 674.692 814.619 622.096 831.086C612.513 834.087 602.537 834.939 592.586 835.778C631.359 819.968 642.177 798.02 667.933 767.731C690.953 740.658 717.481 721.331 751.253 710.031L744.468 706.112C685.744 722.001 670.601 756.652 633.577 798.921C622.805 811.219 610.317 822.796 595.54 830.057C604.283 822.482 613.086 814.701 620.505 805.792C645.238 776.092 661.982 741.358 694.435 718.622C707.417 709.527 721.835 704.354 735.726 697.052C732.089 693.469 728.993 691.813 723.736 691.829C694.601 691.912 635.39 745.25 607.619 761.6C600.848 765.587 593.315 768.566 586.101 771.643C568.939 778.962 553.399 785.354 534.753 787.891C547.012 783.116 560.202 779.231 571.648 772.687C583.491 765.916 593.713 756.955 604.026 748.136C620.824 733.772 637.313 718.783 656.089 706.99Q664.144 701.991 672.643 697.79Q681.142 693.59 690.007 690.228C696.497 687.813 703.311 685.956 709.707 683.358C641.652 687.541 605.359 749.749 548.789 778.46C536.371 784.763 522.938 789.397 508.905 789.761C503.777 789.894 495.376 790.891 490.802 788.416C494.958 787.649 499.626 788.091 503.857 788.053C515.339 787.95 526.066 785.158 536.319 779.938C577.427 759.011 605.657 720.713 644.192 696.31C650.839 692.102 657.925 687.756 665.136 684.609C674.055 680.716 696.258 676.341 701.574 671.1L701.839 669.719C699.826 667.997 696.79 668.109 694.263 668.259C686.686 668.706 677.591 672.691 670.596 675.678C652.454 683.426 636.039 694.05 620.719 706.416C588.488 732.433 556.945 770.164 516.557 782.63C512.204 783.973 506.767 786.211 502.208 785.875L501.916 785.356C560.745 761.378 582.465 720.972 630.263 686.842C641.414 678.879 653.172 672.476 665.637 666.825C671.978 663.951 680.403 661.618 685.997 657.583C683.51 655.679 678.813 656.076 675.773 656.48C667.437 657.589 659.286 661.884 651.905 665.752C620.665 682.127 594.939 706.258 569.138 729.886C548.91 748.409 527.604 768.464 502.425 780.062C515.129 768.707 529.329 759.417 541.59 747.427C571.174 718.498 590.969 690.692 626.12 666.331C607.781 669.812 590.835 673.928 573.88 681.985C530.599 702.552 490.035 742.767 439.005 740.734C481.424 732.469 502.789 719.223 538.755 696.279C550.623 688.708 562.421 680.655 575.264 674.801C589.091 668.498 603.396 664.377 618.317 661.646C628 659.874 637.88 658.697 647.319 655.851C601.464 654.385 564.64 673.507 526.896 697.454C514.228 705.491 501.753 714.14 488.161 720.568C476.426 726.117 464.013 729.7 451.444 732.824C437.54 736.28 424.161 738.5 409.772 737.263C416.474 735.215 424.543 734.997 431.528 733.639C447.778 730.478 462.826 724.482 477.689 717.28C513.29 700.028 542.905 671.878 579.683 657.1Q585.387 654.822 591.252 652.997Q597.116 651.171 603.106 649.809Q609.095 648.448 615.172 647.558Q621.25 646.668 627.378 646.255C634.144 645.791 644.157 647.184 650.275 645.037C649.953 643.536 649.937 643.243 648.534 642.381C639.185 636.634 603.313 643.05 592.535 646.166C539.183 661.591 502.053 709.953 451.598 724.918C463.655 717.515 475.376 709.831 486.666 701.281C513.556 680.917 538.953 658.05 570.135 644.306Q574.947 642.199 579.884 640.404Q584.822 638.61 589.864 637.136Q594.906 635.662 600.033 634.515Q605.159 633.368 610.349 632.552C619.673 631.07 630.995 633.026 639.469 628.814L639.567 627.76C629.882 621.284 611.171 625.725 600.525 627.842C566.047 634.699 535.235 653.831 508.164 675.564C468.068 707.756 444.378 736.01 387.481 728.081C387.679 728.044 387.876 728.004 388.075 727.97C402.789 725.418 414.36 727.84 430.269 722.936C460.756 713.54 482.271 687.354 505.879 667.487C523.975 652.259 543.656 638.966 565.311 629.338C587.252 620.084 596.011 620.268 619.144 617.176C621.416 616.873 625.611 616.199 626.92 614.18C625.475 612.115 623.956 611.683 621.52 611.26C587.338 605.332 546.27 628.205 519.721 647.365C479.352 676.499 446.814 715.425 395.774 725.479C412.93 717.872 430.75 711.006 446.163 700.104C459.896 690.391 472.024 678.562 484.236 667.062C532.374 621.732 554.735 603.505 622.18 599.66L619.9 590.802C567.775 586.145 524.266 600.903 478.711 625.409C442.857 644.697 409.839 666.554 367.523 665.812C395.369 659.538 420.165 651.31 444.671 636.383C479.778 614.998 504.82 589.276 545.917 576.991C559.089 573.053 572.449 570.607 586.217 570.499C592.759 570.448 599.749 571.373 606.217 570.615C608.85 570.306 611.958 569.754 613.729 567.645C613.607 566.92 613.738 566.382 613.112 565.935C603.914 559.368 577.387 563.574 566.311 565.672C543.401 570.012 522.302 578.562 502.091 590.073C457.445 615.501 418.532 656.59 364.849 661.909C358.435 662.544 348.093 662.909 342.171 660.292C347.722 658.653 354.413 660.548 360.188 659.997C366.663 659.38 374.269 656.511 380.37 654.204C435.346 633.419 475.832 587.925 529.944 566.295Q535.012 564.27 540.196 562.565Q545.38 560.859 550.661 559.479Q555.941 558.098 561.297 557.049Q566.652 556 572.063 555.285C577.044 554.621 582.141 553.948 587.169 553.853C594.216 553.721 605.233 556.106 611.671 553.019L612.185 551.841C611.051 549.66 609.621 548.778 607.255 548.106C600.319 546.137 591.767 547.362 584.644 548.03C548.673 551.408 518.172 563.523 487.338 582.057C434.568 613.776 394.979 657.605 328.778 655.436L329.291 655.298C334.465 653.954 339.945 653.464 345.206 652.442C356.092 650.328 366.228 647.314 376.486 643.076C429.914 621.003 467.522 575.8 523.027 554.03C540.772 547.071 559.558 541.749 578.568 539.817C584.587 539.205 608.112 540.589 611.066 538.14C610.703 536.358 610.203 535.307 608.645 534.262C599.39 528.05 560.928 535.622 549.955 538.34C499.123 550.933 463.612 579.725 421.867 608.768C412.951 614.971 396.727 627.161 386.988 630.197C396.798 620.082 411.43 612.772 422.651 604.004C460.208 574.655 492.018 546.315 538.611 531.828C552.162 527.614 566.315 524.515 580.55 524.226C588.058 524.073 600.484 527.419 607.247 524.574L608.339 523.38C608.178 521.179 607.629 519.891 605.887 518.393C597.283 510.993 553.105 506.918 540.488 506.491Q526.312 505.929 512.221 507.58C455.607 514.478 411.183 563.128 352.002 554.859Q349.013 554.45 346.058 553.842Q343.103 553.234 340.196 552.431Q337.288 551.627 334.441 550.63Q331.593 549.634 328.819 548.45Q326.044 547.265 323.355 545.898Q320.666 544.531 318.074 542.987Q315.483 541.443 313 539.73Q310.518 538.016 308.155 536.141C306.654 534.963 305.189 533.762 303.807 532.446C312.171 536.363 320.079 541.314 328.615 544.817C354.882 555.596 381.681 552.403 407.634 542.971C423.097 537.35 437.929 530.016 452.835 523.083C506.228 498.252 530.109 496.216 587.818 507.737C583.205 504.638 576.85 502.908 571.526 501.371C549.404 494.987 527.099 492.94 504.423 497.432C430.521 512.071 378.677 576.88 300.884 524.993Q298.243 523.248 295.689 521.379C335.746 538.327 362.156 545.441 404.625 528.313C420.375 521.961 435.226 513.805 450.459 506.36C489.409 487.322 520.061 482.229 563.332 486.397C528.592 472.65 493.804 480.327 460.667 494.646C411.065 516.079 378.36 542.348 321.466 527.688C331.059 528.35 340.546 528.898 350.141 527.98C397.961 523.402 437.128 490.545 482.468 477.267C503.725 471.042 524.904 470.186 546.893 470.046C535.993 461.659 524.689 461.543 511.44 463.245C431.458 473.522 381.997 543.605 294.95 516.915C296.62 516.116 315.469 519.71 319.437 519.759C335.933 519.962 351.584 517.931 367.415 513.22C390.231 506.431 410.261 493.96 430.965 482.589C464.787 464.012 498.78 456.735 536.927 452.996C493.358 443.355 454.757 464.158 417.923 484.768C407.819 490.422 397.178 497.597 386.267 501.476C397.071 493.015 409.514 486.025 421.084 478.646C456.994 455.743 482.856 440.158 526.499 440.972C525.242 436.833 523.795 432.671 522.809 428.462C485.992 421.031 456.272 425.983 421.272 438.731C403.936 445.045 388.123 450.977 369.567 452.544C415.457 439.948 451.333 414.965 500.971 416.573C504.777 416.697 515.374 417.918 517.533 414.215C516.347 412.016 515.042 411.281 512.607 410.587C505.336 408.515 496.952 409.155 489.475 409.517C467.148 410.599 445.267 416.727 424.806 425.523C398.597 436.79 378.262 449.061 349.025 451.647L349.709 451.405C356.856 448.919 364.663 447.946 371.588 444.929C398.431 433.238 423.388 416.344 451.446 407.79Q458.009 405.767 464.721 404.314Q471.433 402.861 478.245 401.989C486.921 400.881 506.163 401.644 513.138 398.263C513.81 397.938 513.504 398.099 514.03 397.162C512.911 395.421 512.413 395.173 510.368 394.648C503.468 392.878 494.038 393.855 486.929 394.528C459.34 397.141 434.983 406.925 410.747 419.943C398.698 426.416 386.748 433.415 373.842 438.081C355.66 444.655 336.538 445.469 317.771 449.238C347.25 464.053 379.186 467.427 410.698 456.968C429.838 450.616 447.936 443.018 467.714 438.495C455.064 445.826 441.926 451.83 429.424 459.622C409.44 472.077 389.806 487.721 368.264 497.17C367.646 496.084 367.153 495.022 366.67 493.873C359.485 492.833 352.215 491.928 345.211 489.964C324.709 484.214 300.681 470.928 287.848 453.549Q287.147 452.6 286.482 451.624C307.222 469.718 337.931 490.155 366.622 488.232C374.237 487.722 381.878 485.562 388.928 482.673C379.996 482.333 370.825 483.762 361.992 482.77C327.064 478.846 293.406 457.987 269.846 432.535Q266.923 429.345 264.212 425.972C296.506 450.406 336.237 482.608 379.732 476.59C388.742 475.343 397.018 472.627 405.534 469.591C358.044 475.695 320.815 464.689 282.9 435.45Q276.503 430.611 270.439 425.36L270.498 424.484L270.837 425.649L269.976 424.435C274.318 426.206 278.278 428.977 282.315 431.347C295.026 438.81 306.911 444.416 321.952 443.987C313.627 439.922 304.778 437.176 296.193 433.736C285.177 429.322 274.196 423.475 264.49 416.642C272.977 419.775 281.461 422.828 290.252 425.005C300.881 427.636 312.181 429.339 322.374 433.398C325.508 437.644 328.493 441.926 332.459 445.453C337.3 444.852 342.491 444.502 347.215 443.303C385.451 433.599 416.44 405.156 453.848 392.659C460.62 390.397 467.79 388.345 474.881 387.427C484.328 386.203 507.979 386.557 514.561 383.189L515.619 381.631C514.847 379.91 514.263 379.491 512.498 378.784C492.149 370.628 439.759 388.664 420.745 398.19C394.231 411.473 371.672 431.085 341.407 435.372C341.572 435.29 341.735 435.205 341.9 435.124C350.112 431.138 359.837 430.137 367.877 425.798C379.32 419.622 389.777 411.705 400.672 404.639C419.384 392.505 440.351 381.717 461.584 374.777C473.179 370.987 484.568 368.965 496.788 368.958C501.864 368.956 507.878 369.994 512.786 368.93C514.856 368.481 516.387 367.364 517.017 365.279C517.444 363.867 517.199 362.216 517.086 360.763C512.868 356.396 488.702 352.194 481.091 349.411C464.076 343.187 449.526 334.576 435.506 323.157C442.974 326.806 450.004 331.239 457.519 334.806C473.813 342.543 499.575 351.627 517.57 347.7L518.343 346.768C512.595 340.198 495.964 340.422 487.586 338.876C454.329 332.739 422.585 318.322 406.006 287.351C411.409 294.099 416.726 300.998 423.516 306.432C444.077 322.887 477.396 331.037 503.031 333.987C507.336 334.483 513.86 335.19 517.427 332.098C517.666 331.891 517.888 331.664 518.118 331.447C518.036 330.764 518.193 330.292 517.611 329.863C511.134 325.095 499.025 326.221 491.24 325.199C461.611 321.312 431.124 310.631 410.234 288.421C437.634 305.326 465.134 314.79 497.246 317.921C503.128 318.495 511.165 319.776 516.878 318.399C518.183 318.085 518.14 317.889 518.864 316.769C518.411 315.441 518.257 315.177 516.93 314.487C510.116 310.943 497.21 311.585 489.59 311.001C482.654 310.47 475.916 309.038 469.099 307.704C443.726 302.734 422.658 294.481 403.254 276.918C431.229 292.715 459.75 298.514 491.524 301.387C500.493 302.198 511.177 303.598 520.065 301.677L521.086 300.877C519.677 298.699 516.826 298.143 514.434 297.612C505.478 295.623 496.018 295.175 486.899 294.284C457.95 291.456 427.469 288.518 402.549 272.093C419.062 277.428 435.638 281.624 452.934 283.405C476.731 285.855 500.74 285.022 524.501 288.147L528.714 274.458C520.549 272.278 512.553 270.069 504.648 267.055C533.566 271.922 561.14 274.495 589.088 263.687C577.678 263.348 566.38 264.817 555.003 265.401Q545.124 265.892 535.238 265.593Q525.351 265.294 515.52 264.207C508.195 263.452 500.871 262.783 494.1 259.661C489.672 257.62 486.283 254.48 482.714 251.222C516.796 265.006 553.387 264.986 587.952 252.785C575.286 252.452 563.087 254.407 550.532 255.685C530.358 257.737 508.959 255.576 489.804 248.746C485.548 247.229 477.882 244.748 474.625 241.672C474.483 241.538 474.368 241.378 474.24 241.231C482.295 242.973 489.793 246.641 497.881 248.267C513.787 251.463 561.637 253.346 574.88 244.859C575.222 244.64 575.551 244.4 575.879 244.16L575.564 243.166C567.783 240.703 556.56 242.807 548.513 243.579C520.043 246.309 492.639 244.633 467.021 230.808L467.249 231.12L467.834 230.412C497.639 240.855 531.406 243.29 561.428 231.908C549.817 230.134 537.989 229.757 526.302 228.601C499.069 225.909 470.31 221.312 444.708 211.272ZM283.326 21.3636C280.84 24.2377 279.628 26.1785 279.984 30.1303C280.679 37.843 286.439 45.2236 290.437 51.5928C286.41 61.9653 285.216 71.1637 284.824 82.223C287.627 73.8852 290.351 65.9939 294.881 58.39C302.761 69.3337 310.576 80.5718 319.559 90.6455C317.603 105.162 318.297 118.455 324.308 132.042C323.979 120.317 324.235 109.851 328.714 98.7666C337.937 106.936 347.096 115.011 357.308 121.952C360.045 137.723 362.856 152.622 372.99 165.59C371.645 153.597 370.063 141.77 370.935 129.677C382.288 134.525 393.639 139.352 405.448 143.008C408.535 161.787 412.241 176.433 427.785 188.8C422.643 175.212 421.185 162.797 421.37 148.358C432.225 150.698 443.339 152.663 454.038 155.614C459.003 173.714 466.018 186.139 479.49 199.258C475.471 185.871 472.348 171.753 472.263 157.722Q489.082 160.311 505.927 162.729C514.963 182.443 525.136 198.613 542.309 212.403C535.004 196.959 528.392 182.103 524.769 165.306Q541.51 164.375 558.272 163.985C567.144 185.377 575.737 203.884 595.172 217.906C587.798 199.475 581.293 181.823 580.193 161.783C596.942 189.686 616.548 213.707 649.858 221.986C680.847 229.689 712.834 222.909 744.119 221.437Q756.668 220.931 769.205 221.694Q781.741 222.458 794.136 224.483C754.533 227.119 723.879 230.32 687.175 247.051C663.961 257.632 641.482 271.279 616.132 276.181C589.209 281.387 561.967 276.121 534.86 276.619C565.023 292.35 596.838 295.307 629.453 285.032C672.572 271.448 708.218 242.066 755.76 238.645C784.892 236.548 811.87 243.951 839.101 253.496C909.983 278.343 949.643 287.65 1012.79 239.094C994.091 262.244 966.825 281.046 936.689 284.374C874.678 291.22 820.898 245.47 758.986 250.817C707.325 255.279 665.84 292.968 615.527 303.055C594.337 307.304 574.298 306.273 553.585 300.253C552.417 299.913 552.459 299.581 551.478 300.34C582.918 315.136 618.392 312.09 650.319 300.588C687.5 287.193 721.435 263.076 761.734 259.452C784.742 257.383 807.866 262.519 829.699 269.36C847.817 275.038 865.352 282.298 883.77 287.059C946.324 303.23 984.129 277.085 1029.65 237.138C1040.25 227.914 1051.3 218.891 1060.96 208.666C1084.91 183.296 1092.82 163.772 1132.72 166.538C1135.19 166.71 1137.63 166.991 1140.07 167.463C1140 167.775 1139.93 168.09 1139.85 168.399C1137.88 175.655 1122.28 184.808 1120.48 202.587C1120.17 205.561 1120.17 208.939 1121.47 211.677C1122.06 212.919 1122.49 213.067 1123.65 213.802C1126.06 213.007 1126.96 212.012 1128.18 209.722C1130.3 205.719 1131.4 201.21 1133.36 197.113C1142.51 178.035 1155.16 162.491 1175.83 155.473C1182.14 153.331 1188.41 152.2 1194.94 151.071C1194.97 151.243 1195 151.415 1195.02 151.588C1196.28 163.714 1156.96 194.954 1175.01 210.532C1178.38 208.372 1180.86 198.022 1182.64 194.203C1186.29 186.332 1190.66 177.653 1196 170.85C1200.96 164.535 1208.74 160.225 1211.9 152.615C1211.98 152.756 1212.06 152.895 1212.13 153.039C1215.79 160.24 1208.86 189.919 1220.17 199.789C1221.86 200.291 1222.17 200.53 1223.89 199.957C1226.45 189.724 1223.69 178.537 1223.63 168.097C1223.51 144.151 1237.61 116.982 1258.36 104.719C1281.71 90.9137 1311.29 92.8699 1336.64 99.5773C1347.19 102.368 1361.23 106.577 1366.93 116.709Q1367.38 117.52 1367.75 118.371Q1368.12 119.222 1368.4 120.106Q1368.68 120.99 1368.87 121.897Q1369.06 122.804 1369.16 123.726Q1369.26 124.648 1369.27 125.576Q1369.28 126.503 1369.19 127.426Q1369.11 128.35 1368.93 129.26Q1368.76 130.171 1368.49 131.059Q1368.27 131.772 1367.98 132.459Q1367.69 133.147 1367.34 133.801Q1366.98 134.455 1366.55 135.069Q1366.13 135.684 1365.65 136.252Q1365.17 136.82 1364.63 137.336Q1364.09 137.852 1363.5 138.311Q1362.91 138.769 1362.28 139.165Q1361.65 139.561 1360.98 139.891C1341.17 149.835 1317.66 117.473 1290.75 139.495C1285.22 144.022 1280.45 150.414 1277.93 157.121Q1277.65 157.871 1277.42 158.633Q1277.18 159.395 1276.97 160.168Q1276.77 160.941 1276.61 161.722Q1276.44 162.504 1276.31 163.292Q1276.19 164.081 1276.1 164.875Q1276.01 165.669 1275.96 166.466Q1275.91 167.263 1275.9 168.062Q1275.89 168.861 1275.91 169.659Q1275.94 170.457 1276.01 171.254Q1276.07 172.05 1276.18 172.842Q1276.28 173.634 1276.42 174.42Q1276.56 175.206 1276.74 175.984Q1276.92 176.763 1277.14 177.531Q1277.36 178.3 1277.61 179.058Q1277.86 179.815 1278.15 180.559Q1278.44 181.304 1278.77 182.033C1283.42 192.271 1297.07 198.394 1299.85 205.751C1299.87 205.602 1299.91 205.454 1299.93 205.304C1301.31 195.11 1279.11 184.208 1285.96 159.655C1287.25 155.017 1289.27 150.525 1292.99 147.332C1299.42 141.822 1309.37 141.554 1317.35 142.387C1333.45 144.067 1355.95 155.235 1370.35 143.723C1374.41 140.48 1376.89 136.2 1377.41 130.996C1378.16 123.393 1375.08 111.539 1370.22 105.645C1367.8 102.711 1365.15 100.26 1361.51 98.9362C1366.53 99.5847 1372.2 99.8681 1376.89 101.855C1376.73 101.55 1376.59 101.24 1376.42 100.939C1375.19 98.6795 1372.46 97.7607 1371.76 95.3608C1374.19 94.9144 1376.46 95.5492 1378.47 97.0069C1381.66 99.3263 1384.89 103.969 1385.48 107.918C1385.6 108.709 1385.5 109.408 1385.33 110.179C1390.08 104.928 1388.02 98.4848 1390.86 92.6616C1392.49 89.3104 1396.77 86.3624 1397.25 82.7578C1397.3 82.9833 1397.36 83.2077 1397.4 83.4344C1398.21 87.3717 1397.37 91.0108 1396.93 94.9397C1395.49 108.135 1400.34 116.017 1411.26 123.414C1429.86 136.005 1447.07 136.692 1452.1 162.465C1452.3 163.494 1452.21 164.128 1451.96 165.126C1454.99 160.859 1456.27 156.252 1455.45 151.006C1454.17 142.892 1446.62 135.823 1440.14 131.477C1429.15 124.105 1405.7 119.232 1402.4 104.657C1401.47 100.554 1402.96 96.5919 1405.25 93.2244C1407.18 90.3907 1409.99 87.3199 1413.54 86.7705C1415.26 86.5045 1416.93 86.875 1418.34 87.9022C1421 89.8411 1422.21 93.4881 1422.51 96.6337C1422.75 99.0923 1422.14 102.852 1423.3 104.898C1426.02 102.37 1427.3 97.9973 1427.46 94.3993C1427.77 87.7019 1424.01 80.8815 1419.43 76.2383C1414.63 71.3884 1408.46 68.4243 1401.58 68.4861C1385.42 68.631 1372.49 85.4531 1354.27 87.1233C1325.23 89.7852 1299.21 68.0519 1269.88 78.8843C1253.42 84.9637 1241.04 98.5896 1227.52 109.177C1184.51 142.838 1134.68 157.151 1081 145.029C1076.87 170.18 1069.62 191.469 1047.96 206.927C1044.89 209.123 1041.63 210.982 1038.32 212.79C1029.58 210.408 1021.82 207.718 1014.24 202.566C999.545 192.588 988.92 177.6 976.671 164.992C949.587 137.113 918.496 139.461 886.605 157.685C866.032 169.442 848.367 185.903 826.43 195.362C803.114 205.416 776.672 205.398 751.832 208.283C730.524 210.757 709.098 214.233 687.589 214.11C675.388 214.04 662.828 212.78 651.029 209.58C629.207 203.662 611.038 191.084 599.731 171.234C587.701 150.114 585.735 133.097 590.807 109.584C575.043 113.388 559.911 118.904 543.923 122.001C486.951 133.036 420.73 129.136 370.197 98.2194Q366.585 95.9758 363.071 93.5809Q359.557 91.186 356.147 88.6442Q352.738 86.1025 349.44 83.4184Q346.142 80.7343 342.96 77.9127Q339.779 75.0911 336.72 72.1371Q333.661 69.183 330.731 66.1019Q327.8 63.0208 325.003 59.8182Q322.206 56.6155 319.547 53.2971C311.889 43.5842 304.976 31.9622 295.085 24.3828C291.683 21.7765 287.428 21.6053 283.326 21.3636ZM1033.94 474.171C1024.99 475.079 1016.64 477.372 1008.23 480.496C1027.59 488.626 1047.09 496.325 1064.25 508.656C1083.87 522.751 1100.28 540.623 1118.56 556.286C1165 596.064 1214.62 612.087 1273.06 588.135C1293.48 579.766 1311.72 567.391 1331.15 557.115C1368.31 537.469 1415.82 522.797 1456.83 539.981C1458.63 540.734 1461 541.601 1461.88 543.364C1428.25 531.099 1391.92 536.679 1360.08 551.488C1337.93 561.791 1318.46 576.527 1297.47 588.818C1258.15 611.835 1212.05 620.25 1168.47 604.438C1088.57 575.443 1066.69 493.843 967.47 490.399C948.368 489.735 927.734 491.834 910.22 499.964Q908.839 500.6 907.475 501.271C909.052 509.671 910.011 518.177 911.557 526.589C915.727 549.273 921.202 572.426 929.037 594.152C937.707 590.335 946.078 587.235 955.33 585.136C995.086 580.458 1031.14 589.384 1064.55 611.235C1078.38 620.285 1091.31 630.652 1105.03 639.867C1139.43 662.973 1180.88 678.806 1222.74 671.11C1307.73 655.481 1353.9 545.71 1445.77 556.532C1463.21 558.587 1479.93 564.592 1493.8 575.576C1502.96 582.831 1510.84 592.212 1517.56 601.738C1519.77 604.877 1522.47 613.286 1525.28 615.089C1527.35 612.042 1527.23 608.961 1526.56 605.459C1521.43 578.663 1499.33 543.173 1476.37 528.042C1446.49 508.354 1410.36 506.362 1376.21 513.736C1341.87 521.151 1314.01 539.696 1282.49 553.83C1243.3 571.403 1199.16 579.483 1160.81 554.771C1121.22 529.265 1087.52 467.823 1033.94 474.171ZM786.391 33.3319C788.425 48.7918 790.852 64.5785 791.373 80.1616C743.858 80.4603 696.473 77.4154 660.837 42.1766Q660.001 41.3502 659.192 40.4973C667.647 59.2567 679.273 74.0168 693.137 89.0923C679.109 96.3272 664.677 98.5676 649.425 93.7666C640.186 90.8587 631.751 85.7841 623.57 80.6981C610.021 91.8644 601.371 103.622 599.747 121.615Q599.599 123.304 599.533 124.998Q599.468 126.691 599.485 128.386Q599.502 130.082 599.602 131.774Q599.702 133.466 599.884 135.151Q600.067 136.837 600.331 138.511Q600.595 140.185 600.941 141.845Q601.287 143.504 601.714 145.145Q602.14 146.786 602.646 148.404Q603.152 150.022 603.737 151.613Q604.321 153.204 604.983 154.765Q605.644 156.326 606.381 157.853Q607.118 159.379 607.928 160.868Q608.739 162.357 609.621 163.805Q610.503 165.252 611.455 166.655Q612.406 168.058 613.426 169.413Q614.445 170.768 615.529 172.071C629.583 188.753 652.524 198.253 673.954 199.982Q679.152 200.401 684.367 200.339C654.916 185.204 627.217 181.985 615.672 145.878L615.156 144.256C628.022 159.312 642.317 168.507 662.477 170.176C696.875 173.023 737.249 162.894 769.836 152.166C838.71 130.216 922.248 71.5551 995.322 109.342C1021.84 123.056 1038.77 145.003 1048.49 172.838C1053.26 165.084 1056.54 157.962 1054.38 148.724C1052.89 142.345 1049.54 137.016 1047 131.092C1055.8 142.743 1061.49 153.987 1066.95 167.508C1070.47 148.829 1067.63 129.779 1056.86 113.871C1037.73 85.6008 1000.95 70.4157 968.541 64.4453C952.636 61.5149 936.757 61.0889 920.666 62.2786C887.745 64.7125 853.211 73.9511 821.916 58.6566C807.84 51.7774 799.023 41.0721 786.391 33.3319ZM747.214 506.796L736.159 511.604C745.972 516.833 756.323 521.771 765.306 528.358C803.678 556.497 820.932 603.537 854.457 636.337C891.151 672.238 941.091 690.034 980.621 722.278C999.716 737.855 1015.76 756.409 1031.71 775.077C1075.02 825.765 1115.09 874.38 1182.04 893.572C1196.12 897.606 1212.66 902.107 1227.08 897.684C1231.33 896.38 1236.53 892.836 1240.87 892.941C1241.82 893.675 1242.16 893.586 1242.34 894.864C1242.72 897.501 1240.57 901.206 1238.88 903.113C1233.36 909.364 1220.88 909.754 1213.21 909.891C1163.54 910.774 1116.63 883.62 1081.92 850.019C1042.53 811.892 1012.47 764.848 969.707 730.044C932.088 699.426 884.831 682.659 849.187 649.325C803.743 606.824 791.639 546.824 729.398 520.442L728.602 520.813C732.374 525.866 739.712 529.921 744.525 534.2Q756.128 544.702 766.158 556.714C797.684 594.319 816.023 641.636 857.387 670.551C896.89 698.165 943.258 715.59 979.871 747.321C997.685 762.76 1013.27 780.754 1028.7 798.517C1075.46 852.356 1120.72 905.733 1195.55 916.593C1209.7 918.647 1229.01 920.102 1241.02 911.171C1244.63 908.479 1247.88 904.592 1248.55 900.011C1249.02 896.775 1248.06 893.999 1246.03 891.48C1244.28 889.309 1242.93 888.496 1240.19 888.289C1229.97 887.515 1221.85 889.434 1210.34 887.907C1156.52 880.764 1112.64 847.99 1077.37 808.527C1046.06 773.499 1019.27 734.376 980.924 706.281C942.564 678.175 896.725 660.766 862.055 627.572C826.183 593.228 812.826 544.675 768.966 515.235C763.545 511.596 755.733 506.998 749.018 506.684C748.348 506.653 747.905 506.728 747.214 506.796ZM1431.93 179.584C1367.95 192.461 1349.59 236.746 1296.74 255.816C1277.35 262.811 1256.76 265.329 1236.72 269.806C1214.47 274.778 1192.37 281.955 1171.1 290.151C1140.6 301.903 1111.51 316.811 1082.22 331.225C1058.41 342.942 1034.26 354.902 1008.74 362.433Q995.009 366.343 980.997 369.087Q966.986 371.83 952.794 373.389C924.411 376.523 895.074 376.952 868.247 387.856C840.653 399.072 820.679 420.711 802.264 443.368C794.4 453.044 786.834 463.03 777.379 471.243C725.192 516.578 638.151 512.341 582.7 475.607C558.089 459.303 544.378 438.036 532.122 411.796Q532.338 413.465 532.62 415.123Q532.902 416.782 533.249 418.428Q533.596 420.075 534.007 421.706Q534.419 423.338 534.894 424.952Q535.369 426.566 535.907 428.16Q536.446 429.754 537.046 431.326Q537.647 432.898 538.309 434.445Q538.97 435.992 539.693 437.512Q540.415 439.031 541.196 440.522Q541.977 442.012 542.817 443.47Q543.656 444.928 544.552 446.353Q545.448 447.777 546.399 449.165Q547.351 450.553 548.356 451.902Q549.361 453.252 550.418 454.561Q551.476 455.869 552.584 457.136Q553.692 458.402 554.849 459.624C589.945 494.557 632.757 515.646 682.847 515.503C721.468 515.393 766.998 501.555 794.824 473.713C802.638 465.895 808.913 456.702 815.364 447.771C829.175 428.651 844.651 410.784 866.434 400.588C893.196 388.06 924.098 388.572 952.914 385.451Q965.084 384.167 977.096 381.828Q989.108 379.488 1000.87 376.111C1064.34 357.551 1120.03 320.896 1181.71 297.967Q1194.5 293.228 1207.6 289.421Q1220.7 285.613 1234.04 282.757C1257.76 277.737 1282.19 274.405 1304.93 265.76C1352.48 247.691 1384.41 192.735 1438.77 192.286C1448.09 192.209 1460.31 193.223 1467.32 200.192C1469.78 202.631 1471 205.312 1472.14 208.487C1474.11 206.435 1476.47 202.288 1476.56 199.375C1476.66 196.114 1474.74 193.546 1472.47 191.434C1463.11 182.746 1447.47 178.799 1434.98 179.38Q1433.45 179.454 1431.93 179.584ZM891.266 413.734C880.163 477.912 893.616 548.286 912.896 609.749C917.88 625.64 923.28 644.123 932.954 657.873C944.396 674.136 963.381 683.023 979.272 694.157Q994.559 704.936 1008.26 717.668C1022.11 730.42 1034.39 744.977 1046.4 759.454C1083.85 804.595 1112.06 841.777 1167.41 865.955C1181.99 872.321 1197.77 878.522 1213.55 881.042C1220.58 882.164 1228.61 882.581 1234.56 877.945C1240.16 873.582 1241.3 865.973 1241.9 859.351C1242.83 849.107 1243.38 811.512 1236.65 804.352C1235.76 803.399 1235.31 803.479 1234.09 803.171C1231.94 803.898 1230.74 805.143 1229.41 806.958C1221.52 817.782 1215.7 831.725 1209.19 843.528C1205.98 849.35 1201.78 854.704 1198.86 860.652C1197.99 862.42 1197.43 864.398 1198.11 866.339C1198.68 867.98 1198.93 868.024 1200.42 868.752C1206.19 867.415 1210.72 858.786 1213.7 854.03C1216.72 849.192 1231.11 827.342 1230.37 822.392C1234.46 826.75 1234.75 835.947 1234.61 841.597C1234.54 844.099 1234.66 847.146 1232.97 849.132C1234.04 852.598 1233.35 860.306 1231.77 863.574C1230.01 867.231 1226.55 869.614 1222.77 870.818C1205.45 876.325 1172.02 861.474 1156.55 852.872C1117.6 831.22 1088.64 797.562 1060.89 763.49C1055.47 756.833 1047.38 749.652 1044.34 741.643Q1046.08 742.701 1047.78 743.818C1047.46 740.086 1044.29 734.9 1043.05 731.027Q1041.05 724.835 1039.75 718.458Q1038.45 712.081 1037.88 705.599C1037.02 696.624 1043.15 663.096 1037.37 658.251C1036.25 657.314 1034.93 657.086 1033.49 657.263C1023.73 658.47 1006.33 682.86 1000.22 690.702C1002.92 692.62 1005.59 694.652 1008.45 696.314C1015.41 686.011 1022.87 676.435 1031.9 667.843C1027.05 689.955 1022.62 710.381 1035.73 730.788Q1037.08 732.92 1038.49 735.017C1026.15 723.797 1015.07 711.233 1001.91 700.917C985.651 688.169 966.404 678.521 952.029 663.52C915.566 625.471 895.406 516.671 892.804 462.706C892.494 456.279 893.471 416.352 891.266 413.734ZM1423.16 165.337C1388.42 169.186 1364.49 186.114 1337.75 207.222C1325.8 216.656 1313.78 225.767 1299.74 231.932C1276.95 241.944 1251.43 244.154 1227.26 248.999Q1214.48 251.639 1201.97 255.349Q1189.45 259.059 1177.3 263.811C1144.86 276.241 1114.12 292.938 1083.51 309.211C1061.2 321.064 1038.93 333.062 1015.18 341.813C962.584 361.188 904.165 354.307 852.02 374.927Q847.982 376.529 844.042 378.361Q840.102 380.192 836.274 382.246Q832.445 384.3 828.741 386.57Q825.037 388.841 821.469 391.319Q817.901 393.798 814.481 396.478Q811.061 399.157 807.8 402.028Q804.54 404.899 801.449 407.952Q798.358 411.005 795.448 414.23C787.452 422.915 779.951 432.198 771.519 440.461Q770.175 441.787 768.796 443.075Q767.416 444.364 766.002 445.614Q764.587 446.865 763.139 448.076Q761.691 449.287 760.211 450.458Q758.73 451.63 757.218 452.76Q755.706 453.89 754.164 454.979Q752.621 456.067 751.05 457.113Q749.478 458.159 747.878 459.162Q746.279 460.164 744.652 461.123Q743.026 462.081 741.374 462.995Q739.722 463.909 738.045 464.777Q736.369 465.645 734.669 466.467Q732.969 467.289 731.248 468.064Q729.527 468.839 727.785 469.567Q726.043 470.295 724.281 470.975Q722.52 471.655 720.741 472.286Q718.962 472.918 717.166 473.5Q715.37 474.083 713.559 474.616Q711.748 475.15 709.923 475.633Q708.098 476.117 706.261 476.55Q704.423 476.984 702.574 477.367Q700.726 477.75 698.867 478.083Q697.009 478.415 695.142 478.696Q693.275 478.978 691.401 479.208Q689.527 479.439 687.648 479.618Q685.768 479.797 683.885 479.924Q682.001 480.052 680.115 480.128Q678.228 480.204 676.34 480.228Q674.452 480.253 672.565 480.225Q670.677 480.198 668.791 480.119Q666.904 480.041 665.021 479.91Q663.137 479.78 661.258 479.598Q658.674 479.379 656.1 479.065Q653.526 478.752 650.965 478.345Q648.405 477.938 645.86 477.439Q643.316 476.939 640.791 476.347Q638.267 475.755 635.766 475.072Q633.264 474.388 630.789 473.614Q628.315 472.841 625.87 471.977Q623.425 471.114 621.013 470.162Q618.601 469.21 616.225 468.171Q613.849 467.132 611.513 466.008Q609.177 464.883 606.883 463.674Q604.589 462.465 602.341 461.173Q600.093 459.882 597.893 458.509Q595.693 457.137 593.545 455.685Q591.396 454.234 589.302 452.705Q587.208 451.176 585.171 449.572C563.157 431.988 547.449 406.087 544.34 377.884C543.277 368.238 543.204 358.381 542.744 348.681C540.082 361.048 539.341 375.085 541.699 387.598C548.512 420.035 564.373 446.427 592.455 464.788C626.316 486.928 670.288 493.654 709.639 485.317C783.22 469.728 794.599 408.892 853.664 381.514C887.906 365.642 926.811 364.127 963.544 358.257Q978.285 355.873 992.759 352.204Q1007.23 348.536 1021.33 343.612C1041.33 336.496 1060.32 326.723 1079.25 317.19C1111.54 300.927 1143.62 283.807 1177.52 271.045Q1189.43 266.573 1201.63 262.978Q1213.84 259.382 1226.27 256.682C1251.16 251.375 1276.68 248.07 1300.25 237.972C1314.9 231.693 1327.49 222.32 1339.78 212.309C1372.36 185.765 1394.3 168.235 1438.69 168.487C1442.43 168.509 1446.34 168.599 1449.99 169.511C1443.85 164.32 1430.83 164.809 1423.16 165.337ZM398.573 19.2539C394.389 24.5513 392.305 29.2259 393.083 36.0869C393.854 42.88 397.047 49.2449 400.052 55.286C398.781 49.1422 397.759 43.0842 397.039 36.8505Q404.903 47.1839 413.011 57.328C414.781 68.792 417.855 77.4881 423.472 87.6103C421.735 79.696 419.728 71.7315 418.812 63.6758Q432.488 76.8816 447.298 88.8018C450.107 97.4544 453.743 104.953 459.765 111.884C459.17 106.277 458.308 100.566 458.252 94.9261C466.929 99.3624 475.558 104.048 484.446 108.042C486.808 111.663 489.118 115.328 491.778 118.742L495.835 111.58C498.478 112.005 501.154 112.546 503.823 112.748C528.512 116.859 551.337 107.903 574.577 100.866C530.727 97.8887 495.817 90.1537 458.18 66.6073C447.999 60.2372 437.902 53.3982 428.768 45.576C418.256 36.5737 411.95 24.5409 398.573 19.2539ZM936.894 108.302C891.093 110.929 852.458 130.713 810.721 147.263C764.882 165.44 690.658 188.345 641.958 177.519C669.246 190.114 687.374 181.485 713.071 189.592L706.865 182.804C726.343 179.838 741.667 182.485 759.708 189.999C752.151 182.125 746.681 179.257 736.311 175.928C755.579 169.056 774.457 163.794 793.999 173.157Q797.815 175.012 801.498 177.116C796.823 170.346 791.501 165.034 784.652 160.464C793.823 158.092 807.38 154.536 816.164 159.696C820.639 162.325 824.89 165.377 829.323 168.093L830.33 167.836C831.111 166.395 831.602 165.976 831.121 164.299C829.162 157.468 817.796 155.16 815.5 149.636L816.255 148.929C828.265 144.536 839.168 141.952 851.398 147.497C854.39 148.853 857.186 150.713 859.951 152.476C856.139 144.28 852.503 140.797 844.248 137.085C853.481 132.516 863.097 127.978 873.531 131.534C881.146 134.129 887.134 140.582 892.746 146.064C888.743 136.099 886.125 130.384 875.741 125.943L874.717 125.51C884.858 122.487 896.085 118.643 906.152 123.998C911.033 126.594 914.251 130.572 917.695 134.779C916.879 129.46 916.585 123.506 911.889 119.991C910.173 118.707 908.263 117.618 906.404 116.558C916.676 114.434 926.629 112.823 935.936 118.905C940.037 121.586 943.509 125.474 946.611 129.236C944.912 123.682 943.201 118.345 940.427 113.206C950.196 113.324 960.609 113.739 967.842 121.242C972.631 126.211 974.743 132.594 977.08 138.924C977.694 130.951 977.437 125.202 974.204 117.849C983.919 121.666 993.84 125.654 998.322 135.876C1001.03 142.051 1001.47 148.769 1002.09 155.394C1005.33 148.64 1007.17 142.472 1008.39 135.087C1020.49 149.554 1025.52 163.03 1029.41 181.208C1031.45 177.597 1033.52 174.031 1035.17 170.218C1026.08 145.578 1011.02 128.954 987.01 117.953Q984.092 116.583 981.094 115.397Q978.096 114.211 975.03 113.214Q971.965 112.216 968.843 111.411Q965.721 110.606 962.555 109.997Q959.389 109.387 956.192 108.975Q952.994 108.563 949.777 108.351Q946.56 108.138 943.336 108.126Q940.112 108.114 936.894 108.302ZM1431.89 202.828C1419.52 205.508 1406.65 208.727 1395.68 215.298C1390.94 218.142 1386.52 222.879 1381.23 224.57C1387.74 228.569 1393.61 242.485 1395.27 249.667C1396.12 253.363 1396.35 259.07 1398.36 262.185C1401.68 258.878 1400.22 252.324 1402.87 248.67C1403.21 257.687 1401.84 266.484 1395.57 273.332L1396.22 272.925C1399.39 270.918 1401.59 268.336 1403.99 265.496C1409.28 259.24 1415.4 245.39 1415.31 237.262L1415.72 237.039C1418.74 244.505 1414.47 255.779 1411.39 262.898C1409.74 266.729 1406.74 269.441 1403.4 271.767C1416.31 266.224 1424.6 250.054 1429.68 237.514C1430.7 234.997 1431.66 232.77 1431.26 229.991C1433.15 237.016 1429.56 249.925 1425.81 256.218C1425.37 256.949 1425.21 257.05 1424.67 257.566C1424.21 260.712 1422.06 262.226 1419.64 264.146C1433.45 256.791 1446.84 236.696 1451.19 221.658C1451.67 219.994 1451.75 218.665 1451.31 217.001C1454.27 224.863 1452.47 233.215 1449.11 240.679C1442.42 255.554 1429.86 266.643 1415.84 274.466C1413.13 275.979 1408.39 277.621 1406.52 279.953C1423.55 277.617 1439.48 263.296 1449.49 250.15C1456.03 241.554 1464.81 228.292 1462.95 216.861Q1462.83 216.116 1462.65 215.386Q1462.46 214.656 1462.19 213.949Q1461.93 213.242 1461.6 212.566Q1461.26 211.889 1460.87 211.249Q1460.47 210.609 1460 210.013Q1459.54 209.417 1459.02 208.87Q1458.5 208.324 1457.93 207.832Q1457.36 207.341 1456.74 206.91C1449.78 201.996 1439.99 202.095 1431.89 202.828ZM1222.85 292.806C1215.37 295.98 1207.14 297.702 1199.43 300.323C1191.48 303.025 1182.99 307.576 1174.73 308.824C1179.69 313.372 1196.23 359.784 1196.5 367.379C1196.51 367.603 1196.48 367.828 1196.48 368.052C1196.61 368.138 1196.74 368.219 1196.87 368.309C1200.83 371.095 1203.29 379.564 1208.08 380.097C1218.56 372.325 1230.24 320.241 1232.14 307.098C1232.75 302.885 1233.33 298.432 1232.38 294.233C1231.37 293.022 1231.15 292.605 1229.48 292.37C1227.39 292.075 1224.95 292.558 1222.85 292.806ZM1084.42 353.999C1068.82 358.86 1042.34 368.479 1028.26 375.982Q1028.31 379.472 1028.55 382.953Q1028.8 386.434 1029.24 389.895Q1029.69 393.357 1030.33 396.787Q1030.98 400.217 1031.82 403.604Q1032.66 406.991 1033.69 410.325Q1034.72 413.658 1035.95 416.927Q1037.17 420.196 1038.58 423.388Q1039.99 426.581 1041.58 429.688C1043.7 433.316 1046.39 439.026 1050.79 440.254C1051.96 440.579 1053.76 440.595 1054.78 439.872C1063 434.034 1084.62 369.356 1085.35 357.771C1085.43 356.457 1085.35 354.994 1084.42 353.999ZM464.817 817.279C439.489 833.711 428.053 857.52 421.963 886.124C417.405 907.534 416.322 929.428 412.839 950.996C406.372 991.038 389.29 1033.66 353.961 1056.61C346.217 1061.65 306.67 1077.78 304.774 1083.63L305.435 1084.5C341.665 1078.55 368.948 1063.09 390.551 1033C408.422 1008.12 418.195 979.726 423.054 949.661C430.549 903.292 424.192 850.527 465.356 817.867L464.817 817.279ZM1103.7 711.143C1102.26 717.018 1072.38 752.896 1066.51 760.384C1074.83 769.254 1083.07 778.208 1091.75 786.734C1095.74 790.626 1104.83 797.888 1105.27 803.65C1113.2 794.369 1115.38 734.605 1114.24 721.281C1113.95 717.985 1113.53 714.601 1111.51 711.887C1108.83 710.224 1106.68 710.547 1103.7 711.143ZM1007.49 383.36C989.946 387.116 972.678 390.169 954.79 391.792C954.508 411.302 957.701 427.301 965.793 445.17C967.826 448.088 970.154 452.234 974.014 452.771C975.703 453.007 977.114 452.47 978.405 451.389C984.112 446.607 1009.01 393.472 1009.27 385.742C1009.28 385.311 1009.19 384.798 1009.13 384.386C1008.78 384.16 1007.87 383.47 1007.49 383.36ZM1154.04 319.043C1148.54 322.556 1141.44 324.56 1135.43 327.274C1124.7 332.118 1113.46 339.91 1101.92 342.175C1108.7 348.514 1115.4 373.868 1117.56 383.465C1117.84 383.695 1118.12 383.921 1118.4 384.157C1122.25 387.464 1123.06 393.032 1128.59 394.235C1135.67 391.233 1140.7 376.512 1143.49 369.632C1146.9 361.233 1160.27 328.298 1158.46 320.134L1157.26 318.803C1156.19 318.87 1155.1 318.902 1154.04 319.043ZM1368.54 232.07C1367.46 237.164 1355.58 244.509 1350.96 247.516C1349.26 248.626 1347.54 249.541 1345.64 250.285C1359.18 256.276 1367.3 270.736 1372.46 283.99C1379.42 301.867 1386.51 345.518 1379.13 363.232C1378.76 364.127 1378.19 364.821 1377.57 365.549C1378.37 369.294 1379.52 372.843 1379.28 376.709L1379.88 376.646C1395.84 349.004 1392.67 282.28 1384.48 251.896C1382.76 245.487 1380.21 236.052 1374.12 232.329C1372.17 231.14 1370.64 231.52 1368.54 232.07ZM980.522 599.643C966.823 610.375 955.314 623.876 943.902 636.934C951.109 648.401 959.903 658.563 971.001 666.456C978.011 671.591 984.942 676.939 992.126 681.824C989.652 671.157 987.437 660.545 986.556 649.612C985.75 639.608 989.513 606.79 984.942 601.159C983.421 600.401 982.207 599.903 980.522 599.643ZM263.606 585.52C255.697 594.338 248.232 603.573 240.035 612.128C211.471 641.935 177.496 664.609 135.25 666.938C110.206 668.318 85.042 661.62 60.2962 658.601L67.9498 663.602C99.3085 679.342 133.523 682.04 166.915 670.967C200.391 659.866 227.661 637.889 248.986 610.161C253.698 604.034 258.813 597.776 262.284 590.833C263.146 589.109 263.835 587.498 263.606 585.52ZM354.846 757.953C354.845 758.182 354.84 758.412 354.842 758.641C354.926 771.401 358.433 784.235 359.065 797.059C361.219 840.747 349.495 888.003 318.441 920.145Q316.213 922.425 313.875 924.592Q311.537 926.76 309.095 928.808Q306.652 930.857 304.111 932.782Q301.569 934.707 298.936 936.503Q296.302 938.3 293.583 939.964Q290.864 941.628 288.065 943.155Q285.267 944.682 282.396 946.069Q279.525 947.455 276.589 948.698C269.289 951.822 236.167 959.986 234.016 964.006C234.951 964.862 235.578 964.925 236.813 965.092C271.496 964.125 299.253 952.333 323.183 927.011C353.578 894.848 365.118 853.082 363.823 809.635C363.452 797.181 362.199 767.209 354.846 757.953ZM249.313 497.011C245.016 502.727 239.261 507.69 233.949 512.455C208.351 535.418 177.523 551.164 143.327 556.056C98.7259 562.437 78.4274 548.012 37.6657 541.179L45.9306 547.464C78.5746 567.771 112.228 572.589 149.618 563.866C184.044 555.835 227.823 534.506 247.019 503.343C248.187 501.446 249.671 499.311 249.313 497.011ZM1287.44 279.31C1273.91 281.782 1260.28 284.197 1246.92 287.511C1248.5 288.989 1249.57 290.572 1250.46 292.525C1252.33 296.639 1264.81 332.547 1264.87 334.177C1264.89 334.87 1264.87 334.837 1264.78 335.413C1267.17 337.281 1270.97 341.177 1271.19 344.428C1271.21 344.711 1271.15 344.993 1271.13 345.275C1279.21 337.885 1296.12 293.367 1296.77 282.209C1296.83 281.285 1296.76 280.527 1296.64 279.611C1294.74 278.355 1289.86 279.195 1287.44 279.31ZM284.685 650.625C269.718 692.559 242.736 731.114 201.461 750.593C169.662 765.599 136.676 761.041 102.785 762.966L110.826 766.525C145.928 776.303 178.613 773.945 210.677 755.894C243.975 737.149 273.026 701.544 283.227 664.526C284.344 660.474 285.732 654.775 284.685 650.625ZM1167.96 765.943C1168.81 773.925 1136.73 820.924 1130.02 829.178C1129.3 830.057 1128.45 830.802 1127.57 831.5C1130.44 832.423 1134.11 833.681 1135.76 836.368C1142.68 832.128 1167.24 794.887 1168.94 786.985C1169.05 786.486 1169.04 785.744 1169.05 785.271C1170.76 789.524 1171.25 795.124 1170.46 799.672C1174.02 805.766 1172.27 817.441 1170.55 824.046C1169.19 829.268 1166.55 833.589 1161.76 836.35C1156.07 839.622 1148.84 839.671 1142.47 839.926C1142.68 839.989 1142.9 840.045 1143.11 840.114C1150.9 842.627 1162.14 855.453 1170.61 851.328C1174.58 849.396 1176.8 843.574 1177.92 839.552C1181.31 827.411 1181.91 776.656 1175.56 766.956C1175.12 766.29 1174.5 765.69 1173.69 765.599C1171.69 765.374 1169.94 765.613 1167.96 765.943ZM878.546 415.914C872.809 428.083 872.254 442.733 871.503 455.987C868.388 510.936 875.825 568.515 894.456 620.453C899.334 634.05 904.563 645.881 915.262 655.981L917.294 656.713L918.061 655.843C917.318 649.272 911.643 642.095 908.885 635.905Q905.296 627.739 902.358 619.316Q895.645 599.819 890.618 579.821Q885.592 559.823 882.288 539.469Q879.458 520.918 878.011 502.209Q876.563 483.499 876.506 464.734C876.519 451.171 881.602 427.876 878.546 415.914ZM58.7642 419.192C70.2448 437.58 97.5744 448.448 118.049 453.137C155.046 461.609 199.325 453.683 232.472 435.732C235.177 433.787 237.936 431.889 240.588 429.874C192.728 444.195 148.513 454.672 99.7538 437.007C85.727 431.925 72.9294 423.734 58.7642 419.192ZM305.986 712.036C304.858 757.386 294.551 800.046 260.528 832.3Q258.318 834.424 256.002 836.43Q253.685 838.437 251.267 840.32Q248.849 842.204 246.337 843.96Q243.825 845.716 241.225 847.339Q238.625 848.962 235.944 850.448Q233.263 851.934 230.509 853.279Q227.755 854.624 224.935 855.825Q222.115 857.025 219.236 858.078C208.557 861.864 175.735 865.789 169.518 871.644L169.868 872.81L171.129 873.436C208.063 873.961 237.658 864.813 264.493 838.673C294.996 808.958 308.139 770.615 308.528 728.576C308.569 724.103 309.162 715.554 305.986 712.036ZM1293.27 110.599C1277.08 116.102 1263.5 122.642 1255.58 138.796Q1255.04 139.874 1254.56 140.977Q1254.08 142.08 1253.65 143.205Q1253.23 144.331 1252.86 145.476Q1252.49 146.622 1252.18 147.785Q1251.86 148.947 1251.61 150.124Q1251.36 151.3 1251.16 152.488Q1250.97 153.676 1250.83 154.872Q1250.7 156.068 1250.63 157.27Q1250.55 158.471 1250.54 159.674Q1250.52 160.878 1250.57 162.081Q1250.61 163.284 1250.72 164.483Q1250.82 165.682 1250.99 166.874Q1251.15 168.066 1251.38 169.249Q1251.6 170.431 1251.89 171.601Q1252.17 172.771 1252.51 173.925Q1252.85 175.079 1253.25 176.215C1257.13 187.189 1265.8 198.954 1276.53 204.062C1282.99 207.137 1290.6 206.862 1297.06 209.533C1295.08 203.588 1283.48 200.43 1278.93 196.141C1275.24 192.663 1273.1 187.633 1268.58 185.079C1268.41 184.986 1268.24 184.914 1268.07 184.831C1268.06 184.501 1268.07 184.172 1268.06 183.842C1267.97 180.69 1266.2 176.901 1265.23 173.828C1260.49 158.868 1259.56 145.38 1270.68 132.655C1279.49 122.584 1292.92 118.344 1305.94 117.667C1320.82 116.893 1335.78 120.943 1348.95 127.693C1345.67 120.959 1337.43 117.534 1330.68 115.241Q1328.43 114.491 1326.14 113.854Q1323.86 113.216 1321.55 112.693Q1319.23 112.169 1316.9 111.761Q1314.56 111.352 1312.21 111.06Q1309.85 110.768 1307.49 110.593Q1305.12 110.418 1302.75 110.36Q1300.38 110.302 1298.01 110.362Q1295.64 110.422 1293.27 110.599ZM526.33 869.026C519.084 875.188 512.713 881.34 507.603 889.484C484.53 926.254 494.286 983.111 473.689 1025.11C469.588 1033.47 464.011 1042.23 457.419 1048.84C450.36 1055.93 426.86 1069.19 424.621 1077.14L425.169 1077.98C452.243 1068.26 469.849 1049.84 481.865 1024.26C493.447 999.593 495.687 973.856 497.642 947.052C498.629 933.514 499.482 920.039 503.326 906.943C506.754 895.265 511.502 885.311 520.093 876.624C521.613 875.087 526.438 871.098 526.643 869.311L526.33 869.026ZM1039.35 611.935Q1041.19 627.691 1044.57 643.189C1048.03 658.488 1064.75 718.635 1075.1 726.534C1076.61 727.69 1077.46 727.695 1079.27 727.409C1080.04 726.586 1080.91 725.776 1081.61 724.896L1085.16 719.493C1069.62 687.458 1057.54 654.916 1051.86 619.675C1049.89 616.63 1042.79 613.196 1039.35 611.935ZM596.044 866.058C561.516 901.503 579.582 949.824 570.233 992.991C567.888 1003.82 562.798 1014.41 556.045 1023.17Q551.949 1028.44 547.129 1033.06C542.757 1037.22 526.169 1048.93 526.222 1055.18C526.224 1055.35 526.246 1055.51 526.257 1055.68C548.031 1045.72 566.842 1027.83 575.241 1005.17C587.337 972.54 577.813 936.812 581.537 902.984Q581.902 899.946 582.55 896.956Q583.198 893.966 584.123 891.05Q585.049 888.133 586.243 885.316Q587.438 882.5 588.891 879.807C591.112 875.679 595.339 870.498 596.044 866.058ZM832.417 473.925C819.459 486.553 808.595 501.631 808.394 520.468C808.316 527.751 809.956 533.937 813.043 540.516C821.604 558.763 858.231 604.953 872.951 619.782C879.956 626.839 887.377 633.209 895.097 639.458L901.789 644.563C873.051 610.373 815.961 557.448 820.101 508.393C820.891 499.039 824.795 490.585 829.005 482.339C829.464 481.438 832.949 475.46 832.858 474.892C832.802 474.542 832.564 474.247 832.417 473.925ZM672.517 865.32C659.332 876.988 652.925 890.062 651.822 907.663C650.246 932.81 657.079 959.584 647.19 983.679C645.531 987.721 643.409 991.398 640.828 994.92C638.05 998.71 621.831 1015.79 623.792 1019.33L623.884 1019.38C638.942 1011.82 649.555 999.352 654.931 983.395C661.835 962.9 660.166 941.625 658.875 920.453C658.377 912.293 657.627 903.341 658.905 895.255C660.463 885.395 672.252 869.604 672.517 865.32ZM1140.92 927.899C1128.48 942.291 1098.1 947.472 1080.58 951.956C1101.79 965.316 1123.44 972.067 1148.62 966.266C1152.68 965.332 1164.63 962.627 1166.95 958.716C1167.12 958.445 1167.21 958.137 1167.33 957.848C1171.34 955.632 1178.44 952.551 1179.83 947.908C1180.02 947.283 1180.06 946.96 1180.19 946.27C1174.72 953.923 1158.58 957.724 1149.72 959.182C1131.45 962.189 1113.93 959.444 1096.16 955.138C1112.04 951.727 1133.19 945.019 1142.7 930.813C1143.07 930.25 1143 930.196 1143.16 929.431C1142.73 928.593 1142.45 928.332 1141.53 928.008C1141.34 927.939 1141.12 927.936 1140.92 927.899ZM1465 246.318C1464.93 246.492 1464.86 246.668 1464.79 246.842C1462.29 252.829 1456.56 258.331 1455.01 264.363C1456.45 267.359 1458.15 270.529 1459.13 273.704C1462.66 285.149 1469.59 327.57 1465.91 338.008C1465.64 338.773 1465.23 339.411 1464.75 340.055L1466.21 342.472C1467.67 341.975 1467.82 341.744 1468.51 340.324C1475.82 325.337 1476.17 268.576 1470.08 252.335C1469.34 250.365 1468.4 248.727 1467.04 247.116L1465 246.318ZM1337.87 256.064C1337.9 257.766 1338.03 258.002 1336.78 259.291C1335.73 260.374 1334.31 261.13 1333.02 261.904C1357.64 277.037 1367.23 299.904 1373.68 326.847C1375.82 335.809 1377.94 345.237 1375.39 354.292L1378.78 356.426C1383.83 328.83 1376.01 293.688 1360.13 270.551C1356.19 264.806 1349.91 256.72 1342.48 255.517C1340.93 255.266 1339.36 255.671 1337.87 256.064ZM596.886 577.689C549.778 581.147 502.823 597.4 465.636 627.211C472.369 624.439 479.051 621.459 485.367 617.819C513.053 602.072 546.849 587.123 579.065 584.969C587.924 584.377 609.428 587.465 616.466 584.395C617.119 584.11 617.157 584.03 617.624 583.63C617.167 581.937 616.659 581.173 615.1 580.216C610.55 577.423 602.17 577.88 596.886 577.689ZM786.985 657.61C781.462 661.298 776.709 665.891 775.243 672.652C774.057 678.125 775.949 683.365 778.99 687.858C784.789 696.427 794.566 702.32 804.672 704.187C810.734 705.307 819.438 705.304 824.632 701.523C827.011 699.79 828.453 697.288 828.886 694.39C829.258 691.897 828.542 689.333 827.685 687.001C824.754 682.537 820.528 678.761 816.562 675.216C819.055 680.002 822.122 685.515 820.39 691.092C819.652 693.466 818.027 695.111 815.764 696.092C810.806 698.239 804.576 696.543 799.885 694.42C792.621 691.132 784.797 685.008 782.121 677.21C780.765 673.259 781.518 668.919 783.403 665.265C784.478 663.181 787.332 659.834 786.985 657.61ZM754.118 378.65C738.712 383.144 723.439 390.433 715.284 405.04C711.822 411.242 709.966 418.612 712.066 425.584C714.474 433.583 721.153 438.887 728.283 442.6Q729.795 443.385 731.32 444.144C734.075 445.101 736.823 446.143 739.644 446.886C731.241 438.406 722.544 430.059 722.73 417.199C722.867 407.758 727.354 400.009 734.141 393.692C738.173 389.939 753.559 382.27 755.217 378.772L754.118 378.65ZM750.118 719.957C715.869 733.425 692.855 752.177 669.338 780.094C660.81 790.217 652.701 801.089 642.971 810.089C637.847 814.83 631.848 819.862 625.852 823.438C621.645 825.948 616.898 827.828 612.923 830.669L613.336 831.289C621.977 829.349 629.397 826.891 636.754 821.724C650.783 811.871 661.18 796.321 672.054 783.221C682.231 770.963 692.994 759.271 705.179 748.975C713.455 741.983 722.111 736.097 731.699 731.048C737.858 727.806 744.73 724.979 750.398 720.945C750.329 720.61 750.368 720.19 750.118 719.957ZM676.988 570.417C681.213 574.976 684.535 578.951 684.065 585.608C683.897 587.991 682.886 590.372 681.007 591.899C677.761 594.535 672.853 594.552 668.895 593.954C655.799 591.977 645.668 579.026 636.873 570.12C638.366 575.289 639.944 580.162 642.628 584.849C650.025 593.9 659.789 601.317 671.8 602.532C677.461 603.105 684.957 602.331 689.511 598.603C692.003 596.563 693.335 593.663 693.506 590.468C693.801 584.988 691.741 580.722 689.142 576.066C685.44 573.869 681.303 571.177 676.988 570.417ZM991.199 593.486C991.896 607.18 991.374 663.925 1000.58 671.446C1001.17 671.93 1001.24 671.916 1001.85 672.162C1003.59 671.474 1004.82 670.67 1006.3 669.52C1008.47 666.132 1008.44 664.192 1007.57 660.338C1004.4 646.264 1000.67 637.502 998.75 622.147C997.754 614.178 999.171 605.86 997.768 598.053C997.526 596.71 997.276 595.091 996.02 594.371C994.632 593.575 992.759 593.609 991.199 593.486ZM1041.82 673.819C1041.39 693.3 1046 711.687 1051.99 730.095C1053.61 735.079 1055.26 741.888 1058.98 745.731C1059.77 746.548 1060.58 746.883 1061.63 747.271C1063.55 746.897 1064.43 746.336 1065.92 745.076C1067.19 742.809 1068.28 741.56 1067.53 738.865C1064.99 729.667 1058.49 722.268 1054.97 713.533C1050.73 703.007 1048.47 681.451 1041.82 673.819ZM862.912 767.79C840.046 775.124 821.625 787.815 805.717 805.759C798.086 814.367 790.934 823.498 782.745 831.589C776.855 837.408 770.405 841.678 763.983 846.777L764.507 847.348L765.972 846.934C791.541 835.126 803.185 811.94 823.876 794.74C832.217 787.806 841.701 782.539 851.057 777.134C855.563 774.53 861.036 772.036 864.85 768.516L864.491 767.835L862.912 767.79ZM1048.75 849.083C1032.35 853.402 1018.12 854.946 1001.19 854.638C1019.06 866.608 1035.83 875.769 1057.18 879.83C1063.39 879.073 1068.77 877.881 1072.84 872.702L1073.08 871.417C1068.26 871.297 1063.54 873.446 1058.74 873.78C1046.99 874.597 1031.36 865.794 1021.21 860.073C1028.99 859.182 1043.02 856.897 1048.23 850.584C1048.46 850.31 1048.67 850.019 1048.88 849.737L1048.75 849.083ZM707.379 610.122C709.291 621.665 713.63 631.359 723.446 638.291C730.569 643.322 739.505 646.05 748.2 644.453C753.129 643.548 758.16 641.372 761.116 637.14C763.074 634.336 763.635 630.866 762.973 627.534C762.376 624.527 760.63 621.423 758.81 618.984Q753.794 614.566 748.608 610.349C752.197 616.111 755.881 622.306 754.263 629.421C753.643 632.15 751.592 634.484 749.201 635.849C745.023 638.233 739.123 638.347 734.605 636.945C717.94 631.773 713.571 613.998 707.379 610.122ZM224.734 280.948C232.735 293.148 243.395 300.492 257.74 303.45C271.66 306.32 287.058 304.471 300.515 300.139L301.697 299.088C298.335 296.372 278.668 298.785 272.846 298.35C255.455 297.052 240.727 286.782 224.734 280.948ZM683.87 703.333C650.546 715.56 638.37 730.422 611.069 751.179C604.573 756.118 594.489 760.974 589.828 767.504L590.66 767.715C616.613 757.049 634.919 736.318 657.839 720.791C661.733 718.153 683.789 705.31 684.852 703.55L683.87 703.333ZM675.749 415.522C664.371 420.371 654.192 426.415 649.409 438.463C648.476 440.814 647.883 443.327 647.279 445.779C651.365 455.363 655.028 461.006 664.935 464.985C666.629 465.665 668.317 466.271 670.092 466.704C673.783 467.227 677.406 467.739 681.01 468.708C672.124 463.923 662.524 458.786 659.475 448.363C657.861 442.845 658.826 437.221 661.665 432.28C665.465 425.665 672.429 422.111 676.171 416.026L675.749 415.522ZM1014.97 391.07C1005.97 409.079 994.09 432.288 1000.83 452.769C1001.46 454.689 1002.33 456.517 1003.21 458.33C1007 453.889 1005.09 445.401 1006.31 439.835C1008.85 428.268 1018.23 405.997 1017.43 395.523C1017.26 393.354 1016.35 392.564 1014.97 391.07ZM623.81 359.2C613.821 364.946 603.057 372.607 599.772 384.319C598.409 389.179 598.627 394.743 601.092 399.227C604.512 405.446 611.457 408.443 618.017 410.148C620.321 410.747 622.925 411.372 625.312 411.427C628.912 411.386 632.533 411.271 636.132 411.377C626.383 408.211 615.134 405.039 610.067 395.195C607.659 390.516 607.755 385.147 609.483 380.275C611.824 373.67 624.022 360.77 624.224 359.526L623.81 359.2ZM702.547 316.439C692.923 322.555 681.478 330.219 678.959 342.191C678.031 346.603 678.649 351.19 681.078 355.039C685.049 361.33 692.791 364.032 699.727 365.424Q702.355 365.924 705.01 366.252C707.887 365.845 710.822 365.528 713.679 365.008C704.99 362.324 694.411 360.068 689.681 351.389C688.522 349.262 688.023 346.887 687.498 344.543C688.155 341.436 688.84 338.423 690.323 335.592C691.928 332.53 703.095 318.271 702.757 316.609L702.547 316.439ZM932.28 400.817C926.946 422.733 931.824 448.979 943.542 468.301C946.433 473.068 949.702 476.82 953.737 480.654C954.398 479.538 954.364 480.08 954.079 478.986C951.074 467.441 943.991 457.233 940.794 445.748C939.248 440.196 937.927 434.488 937.019 428.795C935.697 420.505 936.723 407.861 932.28 400.817ZM769.73 292.253C761.631 296.175 754.182 301.165 751.144 310.111C749.647 314.517 749.665 319.378 751.847 323.569C754.374 328.425 759.396 331.266 764.495 332.697Q766.869 333.354 769.291 333.797C772.745 333.574 776.239 333.443 779.677 333.046C772.37 329.395 764.638 325.3 761.95 316.925C760.541 312.534 761.319 307.929 763.536 303.952C765.501 300.428 770.14 296.779 770.879 292.894L769.73 292.253ZM195.394 357.549C213.428 370.068 229.112 374.833 251.077 370.872C256.361 369.919 261.635 368.587 266.832 367.24L268.804 366.142L268.459 365.358C259.375 362.726 247.248 366.442 237.515 365.476C223.498 364.084 209.432 357.239 195.394 357.549ZM876.746 287.916C870.054 291.144 863.193 294.547 860.406 301.976Q860.135 302.68 859.938 303.408Q859.741 304.135 859.62 304.88Q859.5 305.624 859.458 306.377Q859.415 307.13 859.451 307.883Q859.487 308.637 859.601 309.382Q859.715 310.128 859.906 310.857Q860.097 311.587 860.362 312.293Q860.628 312.998 860.965 313.673C863.479 318.691 868.438 321.628 873.636 323.192C877.254 324.281 881.118 324.719 884.888 324.643L895.324 323.739C887.44 321.772 876.069 319.657 871.453 312.144C869.845 309.526 869.605 306.633 870.407 303.704C871.847 298.442 876.581 294.011 877.453 288.773L876.746 287.916ZM728.755 743.972C707.994 756.633 691.576 772.595 674.434 789.584C668.028 795.934 661.192 802.135 655.2 808.869L655.364 810.095C680.745 789.819 706.68 769.06 728.656 745.027L728.755 743.972ZM828.336 333.502C819.81 336.871 810.059 340.636 806.221 349.784C804.875 352.992 804.593 356.652 805.976 359.897C807.572 363.641 811.096 366.062 814.819 367.409C819.652 369.158 824.788 369.605 829.886 369.618L839.302 367.324C832.331 366.573 821.692 366.134 817.076 360.023C815.565 358.022 815.128 355.51 815.64 353.076C816.946 346.872 830.127 335.969 829.808 333.716L828.336 333.502ZM1104.14 178.777C1104.01 178.884 1103.89 178.994 1103.76 179.099C1094.55 186.552 1077.39 191.405 1075.8 205.219C1075.18 210.602 1077.22 215.802 1079.75 220.431C1084.2 211.339 1088.41 201.794 1094.89 193.922C1097.71 190.493 1107.18 183.019 1108.54 179.59C1106.94 178.525 1106.03 178.78 1104.14 178.777ZM854.08 706.399C848.902 709.597 844.017 713.66 842.68 719.931C841.727 724.4 842.985 728.942 845.548 732.653C849.619 738.551 856.604 742.229 863.579 743.334C868.373 744.093 872.669 743.362 877.247 741.896L883.359 737.568C873.503 737.462 861.065 737.905 853.436 730.446C850.945 728.01 849.608 724.943 849.641 721.452C849.68 717.531 854.944 708.42 854.08 706.399ZM1029.59 255.639C1023.34 261.604 1015.54 268.602 1015.54 278.002C1015.55 280.48 1016.26 283.015 1018.09 284.766C1020.92 287.471 1025.1 287.681 1028.79 287.438C1031.58 287.255 1034.46 286.986 1037.18 286.306C1040.5 285.148 1043.88 284.056 1047.13 282.689C1041.09 281.634 1029.78 280.213 1025.75 275.225C1025.13 274.453 1024.96 273.829 1024.77 272.882C1025.89 267.087 1033.32 262.214 1029.59 255.639ZM734.49 877.053C736.143 892.583 737.756 907.157 733.552 922.56C732.645 925.884 727.781 936.208 729.046 938.939L729.356 939.608C730.794 939.007 731.369 938.425 732.381 937.298C741.508 923.17 745.638 908.28 741.971 891.531C740.9 886.637 738.47 880.319 734.49 877.053ZM1096.05 229.956C1091.11 235.213 1083.99 241.981 1084.41 249.832Q1084.43 250.306 1084.5 250.775Q1084.57 251.245 1084.69 251.705Q1084.81 252.165 1084.97 252.61Q1085.13 253.056 1085.34 253.482Q1085.55 253.909 1085.8 254.312Q1086.05 254.716 1086.34 255.092Q1086.63 255.467 1086.95 255.812Q1087.28 256.156 1087.64 256.466C1091.03 259.435 1095.26 259.592 1099.51 259.155C1101.71 258.928 1104.52 258.56 1106.41 257.398C1110.67 256.777 1114.44 256.263 1118.25 254.127C1118.07 254.102 1117.88 254.075 1117.7 254.052C1111.6 253.306 1100.51 255.518 1096.36 250.067C1094.87 248.1 1094.97 245.583 1095.45 243.278C1096.11 240.09 1098.61 233.781 1096.85 230.961C1096.33 230.135 1096.59 230.411 1096.05 229.956ZM1320.7 268.812C1317.32 271.151 1311.98 273.421 1308.02 274.604C1308.1 274.918 1308.2 275.229 1308.27 275.547C1309.06 279.113 1305.64 284.003 1303.95 286.973C1306.88 288.326 1314.39 285.735 1317.29 284.661C1318.75 284.12 1320.61 283.34 1321.74 282.29C1325.24 281.509 1334.8 280.188 1336.63 277.028C1336.77 276.777 1336.87 276.501 1336.99 276.237C1331.68 275.665 1326.41 275.828 1321.08 275.945C1324.2 275.292 1328.84 274.914 1330.6 271.89C1330.77 271.606 1330.91 271.31 1331.06 271.02C1330.59 269.771 1330.7 269.575 1329.48 269.029C1326.74 267.806 1323.55 268.274 1320.7 268.812ZM956.646 305.833C950.187 309.859 943.745 314.578 941.783 322.392C941.098 325.117 940.998 328.181 942.678 330.581C944.316 332.921 947.243 333.874 949.962 334.191C952.784 334.52 955.49 334.315 958.298 333.988C962.445 332.662 966.616 331.386 970.723 329.943C966.181 329.788 955.961 330.039 952.849 326.518C952.127 325.701 951.918 324.77 952.022 323.689C952.514 318.578 958.504 311.119 957.539 306.454L956.646 305.833ZM955.973 766.093C952.373 769.877 949.315 774.048 949.464 779.57C949.572 783.577 951.585 787.154 954.549 789.78C959.106 793.816 965.506 795.58 971.513 795.055C975.47 794.709 979.22 793.287 982.632 791.299C985.087 788.828 987.296 786.361 989.393 783.578C980.95 786.736 970.234 791.114 961.389 786.761C958.636 785.405 956.857 783.142 956.026 780.2C954.688 775.463 957.559 770.213 955.973 766.093ZM805.841 752.68C783.789 764.118 765.54 779.575 747.425 796.353C744.301 799.247 737.709 804.198 736.318 808.217C736.249 808.415 736.228 808.626 736.184 808.83L737.11 808.429C747.61 798.999 758.278 789.418 769.716 781.132C781.14 772.855 797.706 764.348 807.012 754.068L807.015 752.965L805.841 752.68ZM1116.68 788.418C1116.74 788.625 1116.81 788.83 1116.87 789.038C1118.66 795.024 1118.28 815.097 1123.24 818.216C1124.98 817.261 1125.77 815.654 1126.51 813.802C1126.71 813.286 1126.73 813.043 1126.8 812.546C1129.61 810.696 1132.32 808.768 1133.1 805.32C1133.12 805.238 1133.13 805.155 1133.14 805.072C1132.68 800.047 1128.92 795.385 1125.15 792.216C1122.5 789.984 1120.29 788.276 1116.68 788.418ZM1065.03 896.89C1060.09 898.657 1055.08 900.755 1050.02 902.107C1060.99 907.534 1072.68 913.362 1085.19 909.342C1085.33 909.296 1085.47 909.246 1085.61 909.198C1090.09 906.334 1093.32 903.967 1096.08 899.313C1088.22 902.275 1077.64 907.058 1069.41 903.104C1068.05 902.45 1067.23 901.78 1066.27 900.636C1066 899.537 1065.84 897.648 1065.03 896.89ZM1449.47 270.311C1450.67 283.85 1454.93 297.398 1458.04 310.605C1459.66 317.517 1460.59 324.577 1462.27 331.47L1462.91 331.329C1466.88 324.476 1460.92 299.149 1458.76 291.042C1457.45 286.134 1454.62 273.034 1450.21 270.655C1449.97 270.525 1449.72 270.426 1449.47 270.311ZM909.476 738.484C907.133 742.912 905.227 746.839 906.669 751.995C907.607 755.345 910.084 757.935 913.132 759.507C919.525 762.803 926.597 761.71 933.075 759.346C933.243 759.284 933.409 759.214 933.576 759.149L935.995 756.689L935.75 755.659C928.088 754.623 920.076 759.907 914.223 752.284C911.269 748.437 912.174 741.61 909.476 738.484ZM1184.45 836.424C1187.73 840.388 1187.02 849.168 1186.59 854.018Q1186.23 858.411 1185.35 862.73L1186.06 863.215C1187.61 861.901 1188.51 860.86 1189.37 859.013L1189.19 857.336C1192.34 853.233 1197.5 848.436 1197.14 842.835C1197.02 840.98 1195.97 839.31 1194.39 838.347C1191.88 836.818 1187.33 836.11 1184.45 836.424ZM995.324 804.479C994.472 807.651 993.807 810.8 995.622 813.791C997.064 816.166 999.558 817.363 1002.2 817.906C1007.33 818.963 1011.86 818.042 1016.85 816.73L1018.38 814.991C1013.69 812.531 1005.54 814.511 1001.6 811.332C999.129 809.335 997.6 806.551 995.324 804.479Z"/>
	<path d="M1275.92 290.557C1278.06 290.352 1280.4 289.901 1282.29 290.923C1281.33 296.518 1274.61 318.8 1270.43 321.886Q1268.18 319.702 1265.89 317.554C1266.2 316.698 1266.39 315.915 1266.46 314.999C1266.97 308.566 1261.15 298.889 1256.9 294.505C1263 293.719 1270.32 293.114 1275.92 290.557Z"/>
	<path d="M977.909 614.055L978.322 614.51C979.765 620.23 978.559 646.317 976.144 651.457C975.229 653.405 974.528 653.741 972.599 654.555C967.395 654.421 963.68 650.824 959.716 647.843L950.356 640.337Q963.684 626.727 977.909 614.055Z"/>
	<path d="M1138.95 336.286C1140.16 336.294 1140.73 336.379 1141.77 337.013C1142.04 338.096 1142.21 339.013 1142.11 340.137C1141.33 348.985 1133.15 372.85 1126.54 378.484C1125.69 375.525 1124.52 373.465 1122.25 371.382C1122.69 369.853 1122.84 368.678 1122.63 367.085C1121.71 359.935 1117.46 349.874 1111.6 345.434C1121.05 344.397 1130.44 340.317 1138.95 336.286Z"/>
	<path d="M961.391 399.167C971.882 399.739 981.947 399.559 992.399 398.431C989.317 408.808 985.322 418.568 980.779 428.387C978.601 433.18 976.264 437.649 973.591 442.184C965.612 428.471 963.421 414.613 961.391 399.167Z"/>
	<path d="M1102.24 727.668C1103.17 728.069 1103.81 728.49 1104.14 729.507C1106.93 738.12 1105.79 756.531 1102.4 764.822C1101.01 768.223 1098.66 771.37 1095.08 772.634C1090.81 774.142 1087.09 772.079 1083.35 770.215L1075.8 765.392C1082.63 755.961 1098.54 737.543 1102.24 727.668Z"/>
	<path d="M1065.32 374.956C1066.28 374.857 1066.48 375.12 1067.32 375.547C1067.43 380.129 1052.39 419.928 1049.73 427.032L1047.67 422.602C1041.97 409.581 1040.02 395.928 1037.79 382.024C1047.05 379.956 1056.17 377.465 1065.32 374.956Z"/>
	<path d="M1214.74 307.8C1216.49 307.483 1217.6 307.26 1219.32 307.911C1219.54 308.602 1219.64 308.836 1219.74 309.509C1221.04 318.746 1210.95 353.351 1205.34 361.186C1205.35 360.973 1205.38 360.76 1205.37 360.548C1205.18 356.689 1203.33 353.749 1200.49 351.3C1200.74 350.451 1200.98 349.65 1200.96 348.754C1200.81 341.653 1192.8 320.526 1187.29 315.689C1194.85 314.931 1209.38 313.356 1214.74 307.8Z"/>
	<path d="M692.769 76.1458L693.176 76.248C701.71 78.3036 709.194 82.7855 717.544 85.274C740.141 92.0086 764.471 91.983 787.789 90.6211Q786.488 93.4234 784.884 96.0636C771.893 117.85 753.098 130.816 728.656 136.918C717.133 138.776 706.058 139.167 694.478 137.223C671.386 133.347 655.823 122.268 642.434 103.539C645.422 104.318 648.43 105.105 651.481 105.602C664.802 107.769 682.193 106.874 693.49 98.5836C696.292 96.5275 698.589 93.8246 698.998 90.262C699.652 84.5656 696.197 80.2035 692.769 76.1458Z"/>
	<path d="M802.537 59.1629C819.519 68.3031 836.642 75.5161 855.96 77.7533C872.59 79.6792 888.544 77.3091 905.017 75.278C937.672 71.2517 967.435 75.7904 996.914 90.4661C941.809 77.0447 899.302 87.7057 848.049 109.883C832.198 116.742 816.597 124.384 800.493 130.622C786.133 136.185 771.475 140.227 756.591 144.08C721.529 152.193 680.13 167.415 644.65 152.777C634.068 148.411 623.636 140.201 619.314 129.301C614.874 118.101 618.252 107.785 622.818 97.3567C624.792 98.5708 626.872 99.6572 628.891 100.798C633.393 108.745 638.423 116.117 644.873 122.645C662.553 140.539 687.26 148.768 712.071 148.946C736.618 149.121 759.582 140.933 777.165 123.493C795.635 105.173 802.388 84.6631 802.537 59.1629Z"/>
	<path d="M823.981 225.147Q824.744 225.05 825.51 224.982C840.682 223.692 855.778 236.887 866.707 246.077L858.371 242.982C843.84 236.16 829.35 230.326 813.586 227.06C816.97 226.211 820.541 225.755 823.981 225.147Z"/>
	<path d="M926.624 152.501C940.382 151.951 954.233 154.034 966.082 161.442C978.031 168.911 987.221 181.126 990.369 194.925C993.513 208.706 990.557 223.801 982.886 235.616C974.329 248.793 959.98 256.911 944.847 260.155C918.563 265.788 893.383 258.74 871.305 244.296C858.851 234.779 847.974 223.376 837.208 212.044C820.253 215.222 803.792 214.768 786.621 214.217C803.007 211.606 819.053 208.829 834.128 201.575C866.413 186.039 888.967 156.59 926.624 152.501ZM915.851 165.773C889.801 173.398 871.054 191.786 849.082 206.654C860.2 218.691 871.57 231.242 886.134 239.203C900.198 245.981 912.731 249.45 928.36 250.332C915.367 234.903 904.824 220.48 906.774 199.212C907.2 194.56 907.749 188.932 909.547 184.607C911.957 178.807 918.03 172.254 918.708 166.182C917.545 165.611 917.165 165.696 915.851 165.773ZM958.405 169.14C950.311 184.546 943.482 199.808 949.047 217.392C951.764 225.978 957.074 233.722 963.221 240.225L967.948 236.461C976.915 225.718 984.773 212.295 983.392 197.762C982.578 189.199 978.127 182.146 971.539 176.777C967.558 173.534 963.007 171.349 958.405 169.14ZM936.065 164.748C925.244 180.457 919.895 196.305 923.565 215.507C925.718 226.77 931.449 238.365 941.365 244.741C943.103 245.858 945.012 246.784 946.89 247.638C935.809 228.151 926.951 210.853 933.148 187.865C934.17 184.072 935.503 180.172 937.471 176.756C939.341 173.509 943.26 169.358 944.103 165.843C941.693 164.551 938.746 164.818 936.065 164.748Z"/>
	<path d="M346.861 312.481C353.142 313.402 358.851 317.815 364.684 320.224C381.066 326.989 400.607 327.555 418.07 325.534Q422.811 329.559 427.668 333.442C427.52 333.474 427.373 333.514 427.224 333.539C423.917 334.094 420.004 333.828 416.636 333.845C392.333 333.964 366.658 326.718 346.861 312.481Z"/>
	<path d="M519.7 617.134L520.317 617.903C520.144 618.248 519.855 618.867 519.612 619.213C517.196 622.652 512.259 626.028 509.092 628.929C502.64 634.837 496.072 640.634 488.487 645.07C467.469 657.363 437.33 662.682 413.47 667.885L413.065 667.71C414.249 665.983 438.518 657.759 442.848 655.788C468.953 643.905 493.594 629.055 519.7 617.134Z"/>
	<path d="M521.491 521.433C524.348 521.092 527.431 521.182 530.317 521.078C518.716 525.775 507.533 531.499 495.881 536.067C473.875 544.696 450.745 549.209 427.357 552.055C423.982 552.633 420.551 552.65 417.137 552.768C428.401 550.051 438.788 544.727 449.528 540.488C473.116 531.179 496.213 524.061 521.491 521.433Z"/>
	<path d="M312.662 364.52C322.607 366.688 331.549 371.892 341.604 373.845C353.236 376.104 365.315 374.455 376.873 377.611C386.532 380.247 395.312 385.576 404.98 388.247L405.928 388.502C390.213 397.041 376.618 408.554 360.285 416.166C339.58 406.705 321.71 394.537 310.244 374.221C323.222 386.609 335.318 395.496 351.562 403.158C358.478 406.691 365.46 406.523 372.985 406.206C365.039 401.73 356.215 399.062 347.936 395.287C331.976 388.009 318.016 376.663 305.103 364.983C311.468 368.25 317.471 372.394 323.716 375.906C344.944 387.842 365.178 394.634 389.752 394.522C364.2 385.345 334.563 381.727 312.662 364.52Z"/>
	<path d="M455.327 561.169C455.276 561.362 455.267 561.571 455.174 561.749C452.103 567.647 440.257 572.609 434.916 576.722C418.664 589.239 401.056 609.833 383.471 619.23C381.667 620.194 380.062 621.234 378.042 620.655C377.761 620.028 377.479 619.403 377.165 618.792C375.455 615.466 352.948 614.443 348.209 613.707C344.764 613.172 341.432 612.193 338.112 611.149Q346.095 611.545 354.087 611.498C384.353 611.022 400.511 600.861 420.999 579.795C404.855 587.821 389.167 597.778 371.821 603.015C356.305 607.7 334.779 609.022 319.971 601.058L320.15 600.232C358.959 606.688 388.217 594.959 419.173 572.919C408.579 575.888 398.68 580.971 388.575 585.243C362.443 596.289 337.421 598.829 309.718 592.277C335.5 592.953 359.06 591.05 382.835 580.094C389.348 577.093 394.647 571.45 401.633 569.431C410.589 566.843 420.175 566.608 429.386 565.478C438.092 564.409 446.707 562.772 455.327 561.169Z"/>
	<path d="M344.372 319.135C350.989 322.335 358.619 331.085 365.466 335.582C392.761 353.51 417.896 355.946 449.3 349.428C411.795 345.028 388.917 349.111 357.309 322.885C364.681 326.527 372.05 330.111 379.75 333.02C396.484 339.343 413.607 343.389 430.6 335.698C436.825 339.249 442.665 343.875 448.655 347.85C455.498 352.391 462.666 356.327 469.874 360.252C464.36 361.689 458.944 363.424 453.511 365.134C442.233 368.63 430.765 377.488 418.975 378.295L418.533 377.509C419.29 376.658 419.72 376.04 420.121 374.971C414.85 374.294 409.689 373.427 404.529 372.148C382.036 366.572 363.41 354.36 351.382 334.378C360.514 343.056 369.548 351.862 380.729 357.902C401.713 369.237 422.833 368.425 445.106 361.755C432.397 361.377 419.834 362.186 407.219 360.005C380.673 355.413 359.712 340.809 344.372 319.135Z"/>
</svg>
