<?xml version="1.0" encoding="utf-8" ?>
<svg xmlns="http://www.w3.org/2000/svg" xmlns:xlink="http://www.w3.org/1999/xlink" width="1024" height="1024">
	<path fill="#010102" d="M574.127 264.761L574.579 264.032C575.12 263.147 575.52 262.239 575.939 261.294C576.173 260.765 576.046 260.966 576.357 260.587L577.945 261.089C577.771 263.936 576.908 265.985 575.766 268.554C574.726 267.343 574.49 266.263 574.127 264.761Z"/>
	<path fill="#010102" d="M753.619 475.529C753.722 475.759 753.828 475.989 753.926 476.221C754.373 477.281 754.381 478.285 754.438 479.42C755.421 480.371 755.769 480.117 756.794 480.707C755.042 482.702 752.998 484.07 750.828 485.556C751.876 482.26 752.707 478.867 753.619 475.529Z"/>
	<path fill="#010102" d="M479.882 346.959C480.401 348.719 481.265 349.772 482.423 351.174L476.969 359.503C477.789 355.276 478.541 351.059 479.882 346.959Z"/>
	<path fill="#010102" d="M230.706 504.218Q236.386 506.994 242.136 509.625C241.641 511.027 241.208 512.357 240.932 513.819C236.916 510.949 233.849 508.04 230.706 504.218Z"/>
	<path fill="#D9D5DA" d="M619.627 563.398C619.601 562.983 619.573 562.569 619.564 562.153C619.481 558.384 619.534 551.85 622.56 549.152C623.756 548.086 625.622 548.389 627.123 548.43C623.354 552.878 621.939 558.179 619.627 563.398Z"/>
	<path fill="#010102" d="M677.083 433.255Q686.795 434.981 696.454 436.978L696.672 437.694L697.134 437.139L698.515 437.614L697.769 437.084L696.824 437.682L697.414 437.193L696.814 437.671C693.097 437.213 689.517 436.982 685.769 437.082C683.797 437.134 681.332 437.601 679.412 437.329C679.246 437.098 679.108 436.845 678.915 436.637C677.741 435.378 674.05 435.774 672.356 435.703C674.457 434.71 675.687 435.326 677.083 433.255Z"/>
	<path fill="#141D1E" d="M627.578 185.771L633.776 185.793C632.114 190.003 630.618 194.439 628.374 198.376L627.798 197.597C626.072 197.505 625.69 197.582 624.458 196.315C624.362 194.969 624.294 193.796 623.598 192.603C623.44 192.331 623.27 192.066 623.105 191.798C624.439 189.518 625.815 187.724 627.578 185.771Z"/>
	<path fill="#010102" d="M292.232 482.842Q289.919 482.223 287.679 481.377Q285.438 480.531 283.293 479.466Q281.148 478.402 279.12 477.129Q277.092 475.856 275.2 474.388C268.036 468.767 258.39 454.969 257.269 446.093C259.314 448.373 260.43 452.47 262.165 455.194C271.05 469.151 281.447 475.751 297.43 479.251C296.083 480.62 294.665 481.18 292.913 481.919L292.232 482.842Z"/>
	<path fill="#141D1E" d="M651.277 196.967C654.581 197.941 656.729 199.766 659.338 201.916C652.657 209.096 644.285 214.842 636.303 220.48C635.18 221.049 634.943 221.265 633.711 221.144C631.785 219.638 630.869 217.29 629.772 215.154C634.805 208.975 644.395 201.023 651.277 196.967Z"/>
	<defs>
		<linearGradient id="gradient_0" gradientUnits="userSpaceOnUse" x1="642.14587" y1="214.25745" x2="658.8866" y2="227.20055">
			<stop offset="0" stop-color="#0A1114"/>
			<stop offset="1" stop-color="#18292E"/>
		</linearGradient>
	</defs>
	<path fill="url(#gradient_0)" d="M661.267 208.967L662.461 209.01C665.209 210.929 666.45 216.057 667.564 219.067C658.726 224.547 650.354 227.058 640.308 229.194L635.259 230.837L634.104 223.203C639.933 219.051 654.442 211.693 661.267 208.967Z"/>
	<path fill="#141D1E" d="M631.767 245.233C645.358 253.03 653.869 258.56 669.24 263.44C667.915 267.033 666.526 270.555 664.961 274.051C664.593 274.746 664.157 275.32 663.688 275.949C661.393 276.208 657.939 274.344 655.847 273.293C647.74 269.216 633.293 260.091 630.616 250.901C629.961 248.654 630.744 247.174 631.767 245.233Z"/>
	<defs>
		<linearGradient id="gradient_1" gradientUnits="userSpaceOnUse" x1="658.6582" y1="279.29184" x2="620.20209" y2="264.13821">
			<stop offset="0" stop-color="#010605"/>
			<stop offset="1" stop-color="#1D232A"/>
		</linearGradient>
	</defs>
	<path fill="url(#gradient_1)" d="M625.222 251.711C626.33 252.011 627.139 252.358 628.038 253.085C634.466 258.287 640.163 265.001 646.077 270.825C650.282 274.966 654.949 278.671 658.962 282.99Q657.008 285.922 654.973 288.799C654.08 289.724 653.352 290.354 652.231 291.02C650.008 290.948 647.982 289.355 646.293 288.024C638.941 282.228 624.049 266.106 623.242 256.345C623.067 254.226 623.933 253.21 625.222 251.711Z"/>
	<path fill="#141D1E" d="M613.517 259.65C614.503 259.577 615.501 259.505 616.49 259.5C617.904 259.493 618.794 259.698 619.861 260.708C622.178 262.901 623.984 266.016 625.842 268.611C632.326 277.664 638.252 287.992 645.999 295.974C643.901 297.363 641.947 299.042 639.968 300.596C637.811 302.287 635.573 303.793 633.288 305.302C626.414 296.813 614.321 270.379 613.517 259.65Z"/>
	<path fill="#141D1E" d="M607.519 262.641L608.981 262.694C614.685 267.629 623.375 299.878 625.833 308.917L619.227 311.996C616.369 313.077 613.557 314.337 610.736 315.515C610.415 308.825 608.788 302.289 607.577 295.721C606.396 289.318 605.477 282.862 604.371 276.444C603.679 272.431 602.768 268.362 602.583 264.287C603.963 262.904 605.631 262.975 607.519 262.641Z"/>
	<path fill="#141D1E" d="M590.371 264.216C592.971 264.516 595.674 264.447 598.292 264.515C602.807 273.412 605.409 301.797 604.001 311.297C603.564 314.248 602.915 315.908 600.476 317.662C596.009 318.884 591.43 319.107 586.825 319.202Q588.761 305.543 589.649 291.777Q590.536 278.01 590.371 264.216Z"/>
	<path fill="#141D1E" d="M667.596 224.915C668.186 224.993 668.67 224.899 669.091 225.378C671.204 227.786 670.981 234.048 671.113 237.202C665.721 238.764 659.765 239.149 654.177 239.336C651.584 239.423 637.363 238.304 636.178 239.27C648.231 241.028 659.547 244.215 671.853 244.001C671.629 247.161 671.316 250.257 670.84 253.389C670.773 253.749 670.664 254.439 670.519 254.76C670.082 255.731 669.331 255.869 668.369 256.056C659.73 257.727 639.689 249.33 632.527 244.234C634.102 239.911 634.944 236.084 635.358 231.505C646.723 230.168 656.884 229.451 667.596 224.915Z"/>
	<path fill="#141D1E" d="M581.433 262C583.222 262.391 585.183 262.602 586.594 263.844C587.364 265.491 587.533 267.201 587.581 269.006C587.845 278.821 586.622 312.12 579.155 318.66C576.918 320.619 573.015 319.577 570.367 319.182L561.93 316.794C567.549 305.304 571.171 293.311 574.904 281.126C576.839 274.808 578.48 267.915 581.433 262Z"/>
	<path fill="#141D1E" d="M561.542 249.286C563.817 250.702 565.767 252.683 567.756 254.47C554.329 270.634 550.668 290.1 534.231 304.336C529.83 302.38 526.226 299.779 522.573 296.67C525.426 292.493 527.792 287.997 530.517 283.734Q532.802 280.112 535.306 276.638Q537.81 273.164 540.525 269.852Q543.239 266.54 546.153 263.401Q549.067 260.263 552.169 257.311C554.798 254.788 557.474 251.891 560.429 249.774L561.542 249.286Z"/>
	<path fill="#141D1E" d="M569.23 255.472Q572.266 257.543 575.246 259.693C574.771 261.389 574.385 263.018 574.127 264.761C574.49 266.263 574.726 267.343 575.766 268.554C569.335 284.05 566.999 301.859 554.584 314.208C549.854 312.802 545.513 310.465 541.104 308.283C544.709 301.154 549.036 294.409 552.532 287.203C559.093 273.681 557.649 267.919 569.23 255.472Z"/>
	<path fill="#010102" d="M612.519 203.502C612.522 199.367 612.011 193.177 613.102 189.295C613.527 187.779 614.434 186.791 615.804 186.058C617.215 185.304 621.258 184.833 622.649 185.362L622.675 186.19C622.09 186.69 621.402 187.229 620.956 187.862C618.418 191.455 618.175 199.183 618.937 203.351L619.348 203.194C620.656 199.629 621.361 195.955 622.83 192.444L623.105 191.798C623.27 192.066 623.44 192.331 623.598 192.603C624.294 193.796 624.362 194.969 624.458 196.315C625.69 197.582 626.072 197.505 627.798 197.597L628.374 198.376L625.264 205.376C630.278 199.844 634.583 193.483 639.334 187.689C642.349 188.413 644.88 189.36 647.595 190.823C641.705 198.413 636.315 207.459 628.732 213.472C626.224 211.844 623.773 210.228 620.945 209.197C614.198 206.738 608.44 207.685 602.125 210.624C599.088 214.734 598.442 219.613 595.668 223.803L598.764 230.136C595.958 229.215 593.79 228.275 591.563 226.279C588.622 223.641 588.991 222.279 588.298 218.798C587.931 216.958 587.045 215.63 587.045 213.594C587.044 212.241 587.249 211.647 588.175 210.696C590.857 210.834 595.481 214.14 598.118 215.381C595.234 212.751 589.448 209.972 588.973 205.743C588.791 204.116 589.411 202.772 590.473 201.582C593.221 201.307 598.797 207.142 601.186 208.957C599.593 206.878 597.104 204.313 596.09 201.938C595.087 199.592 594.584 196.588 595.485 194.159L596.496 193.706C600.144 194.6 603.747 201.919 606.368 204.833L606.84 205.353C605.231 201.923 603.544 198.026 603.101 194.239C602.86 192.183 603.068 190.82 604.34 189.149C605.57 188.406 606.032 188.121 607.529 188.246C609.772 192.509 610.257 198.527 612.519 203.502Z"/>
	<path fill="#141D1E" d="M617.216 221.211C619.209 220.802 621.319 220.805 623.072 221.93C624.835 223.061 625.853 224.947 626.288 226.953C627.414 232.145 625.953 237.402 622.969 241.701C618.345 248.362 610.668 252.451 602.77 253.712C591.189 255.561 581.363 251.955 572.087 245.267C568.915 242.445 566.155 239.604 563.687 236.147C569.317 233.532 575.169 230.761 581.082 228.872C585.578 231.331 589.858 234.969 595.039 235.848C598.094 236.366 605.603 235.522 607.833 233.288C608.813 232.307 608.748 232.051 608.68 230.766C607.729 229.253 605.781 228.682 604.193 227.989C604.817 226.725 605.454 225.485 606.361 224.394C608.989 221.232 613.48 221.469 617.216 221.211Z"/>
	<path fill="#141D1E" d="M456.337 909.21C473.976 908.394 491.856 908.863 509.515 908.832Q575.711 908.091 641.799 911.946L680.806 913.746C685.984 913.991 691.506 913.75 696.627 914.457C697.93 914.637 703.919 915.182 704.529 915.957C703.66 916.291 703.942 916.289 703.132 916.266C688.257 915.839 673.383 916.841 658.519 917.563C639.195 918.502 619.719 919.356 600.375 919.442C593.049 919.041 585.363 919.767 578.006 919.873L529.505 920.363Q464.599 920.598 399.772 917.382Q385.152 916.827 370.525 916.503C365.008 916.353 358.888 916.639 353.495 915.549L353.575 914.922C352.735 915.106 353.037 914.897 352.585 915.409C355.63 914.38 360.613 915.17 363.933 914.9Q410.107 911.594 456.337 909.21Z"/>
	<path fill="#141D1E" d="M666.52 85.1987C672.731 84.6379 694.616 85.3022 699.39 88.5215C699.147 88.8728 698.917 89.2338 698.659 89.5746C697.182 91.5286 696.571 94.0108 695.776 96.3145C697.347 94.4682 698.976 92.3724 701.147 91.2141C705.536 88.8727 710.946 91.1053 715.378 92.3132C712.378 97.002 709.006 101.448 705.716 105.936C711.075 102.661 715.718 97.6924 721.286 94.9586C724.983 96.2231 728.589 97.8121 732.276 99.1332C728.55 104.918 722.699 109.805 717.48 114.232C724.337 110.709 730.287 106.475 737.579 103.749C740.513 105.081 743.079 106.572 745.723 108.41C741.13 114.157 735.694 118.474 730.008 123.074C735.76 120.417 743.154 115.223 749.551 115.06C754.166 114.943 756.429 117.265 759.52 120.263C752.295 124.366 746.094 129.462 739.678 134.691C747.404 131.058 754.83 128.131 763.23 126.45C766.048 129.094 768.749 131.759 770.853 135.02C762.219 136.752 755.184 141.791 748.182 146.83C757.047 143.313 764.589 141.492 774.089 140.76C776.795 143.549 778.328 146.743 779.853 150.249C770.925 152.472 763.266 155.125 755.095 159.318C764.18 157.121 772.785 155.789 782.135 156.521C783.404 158.05 784.39 159.817 785.431 161.506L788.138 166.672C778.969 168.696 770.176 170.84 761.308 173.943C763.966 173.564 766.607 173.267 769.289 173.132C772.626 172.964 785.527 172.129 787.618 174.576C789.755 177.076 789.42 184.064 789.411 187.289C781.383 187.229 773.7 187.534 765.729 188.482C773.864 189.535 783.088 190.418 790.551 193.969C789.751 199.054 788.876 204.061 787.711 209.079C782.21 208.427 776.604 208.895 771.065 208.405L787.279 215.744C785.613 224.515 782.865 230.396 777.766 237.743C768.854 225.682 757.68 215.235 747.182 204.577C747.415 189.546 744.706 175.185 738.687 161.379C723.716 127.04 692.967 99.9286 658.424 86.2891C661.112 85.8683 663.822 85.5521 666.52 85.1987Z"/>
	<path fill="#141D1E" d="M267.871 512.168C263.339 511.268 258.507 510.837 254.098 509.517C240.46 505.435 225.276 490.652 218.663 478.348C209.302 460.932 212.604 431.408 218.113 413.194L218.333 413.23C217.589 419.734 216.79 426.219 216.834 432.778C216.961 451.795 221.86 467.88 235.463 481.38L235.592 480.61L235.652 481.635L236.147 481.416C224.969 467.645 224.346 455.784 225.085 438.48C225.929 418.715 235.358 400.946 249.849 387.668C268.23 370.826 293.747 364.59 318.091 365.583C323.835 365.587 337.478 367.407 342.138 370.097C333.246 369.231 324.93 367.302 315.894 368.233C310.768 369.297 305.336 370.422 300.422 372.242C286.011 377.581 265.38 390.317 256.76 403.335C247.519 417.291 242.006 435.551 245.527 452.285C249.089 469.218 255.348 478.457 270.238 487.385C270.971 487.824 271.68 488.144 272.462 488.484L272.912 487.72L273.693 487.271L273.687 487.539L269.518 485.595C260.978 481.663 253.761 472.213 250.612 463.53C245.326 448.95 245.232 433.141 251.997 419.043C254.897 413 258.833 407.638 262.984 402.407C256.91 421.804 248.207 443.041 258.567 462.584C263.822 472.496 272.956 478.983 283.588 482.16C286.305 482.972 290.18 483.981 292.986 483.425L292.232 482.842L292.913 481.919C294.665 481.18 296.083 480.62 297.43 479.251C313.948 480.61 327.488 478.95 342.164 470.762C322.033 488.536 308.288 498.568 301.384 526.181C279.626 528.751 259.835 528.768 241.874 514.568L240.932 513.819C241.208 512.357 241.641 511.027 242.136 509.625C250.77 512.782 258.845 514.073 267.871 512.168Z"/>
	<path fill="#141D1E" d="M495.003 570.032C495.628 570.04 495.301 569.95 495.914 570.48C492.197 588.072 488.209 601.404 479.15 617.105C465.185 641.308 439.506 664.897 411.738 671.229C401.192 673.634 389.871 673.336 379.575 676.213C373.018 678.045 364.857 681.623 359.961 686.437C347.204 698.977 337.671 736.139 332.777 754.084C330.826 761.236 329.52 769.676 325.758 776.14C321.737 783.05 313.052 784.442 305.949 786.383C303.133 789.828 300.163 794.197 296.506 796.728C294.535 798.092 293.417 798.06 291.143 797.578C290.325 797.405 290.216 797.567 289.457 797.855C289.836 798.897 289.942 798.829 289.683 799.995C281.224 805.931 269.622 812.034 259.755 815.061C258.755 812.695 258.149 810.345 257.552 807.86Q256.165 799.297 256.358 790.624C256.557 782.657 256.819 770.182 263.255 764.449C268.647 759.646 277.134 760.141 283.86 760.58C284.56 761.949 285.22 763.611 286.284 764.719L286.986 764.306L286.215 764.182C285.112 757.88 285.313 751.209 284.389 744.81C290.474 742.441 295.212 739.258 299.677 734.489C311.363 722.007 318.264 693.615 317.669 676.615C343.396 679.06 372.853 667.553 392.909 651.82Q396.135 649.256 399.18 646.48Q402.226 643.705 405.078 640.73Q407.929 637.756 410.574 634.596Q413.219 631.436 415.645 628.105Q419.489 622.88 422.672 617.227C425.354 612.438 427.414 606.464 431.443 602.666C434.422 599.858 438.564 597.718 442.005 595.475C458.835 584.504 475.88 576.269 495.003 570.032Z"/>
	<path fill="#141D1E" d="M607.249 88.4129C612.048 88.4157 616.265 88.5486 620.915 89.869C621.238 102.302 620.367 115.04 619.161 127.41C618.874 130.348 616.5 143.288 617.273 144.614L616.985 143.591L617.522 143.491C617.553 143.268 617.582 143.043 617.616 142.82C618.191 139.064 619.636 135.7 620.591 132.049C624.063 118.77 626.481 104.172 633.036 91.9874C637.271 92.7706 641.007 93.8887 645.018 95.4602C642.094 110.359 638.612 130.406 633.104 144.256L633.275 145.011C639.49 132.577 647.781 108.314 656.366 98.5794C660.262 99.8993 663.973 101.211 667.637 103.091C663.757 113.819 660 124.575 655.393 135.025C654.482 137.091 649.309 146.455 649.747 148.062C655.361 139.201 671.656 115.016 678.961 109.329C683.025 111.398 686.299 114.264 689.617 117.348C683.929 125.699 678.674 134.435 673.236 142.96C672.302 144.425 665.937 153.104 666.033 153.993C666.202 153.796 666.342 153.569 666.54 153.401C666.658 153.3 666.832 153.29 666.961 153.203C670.261 150.984 673.482 146.76 676.46 143.914C683.418 137.264 690.594 130.689 698.009 124.554L707.47 134.115C697.753 146.397 687.216 158.414 675.17 168.514L675.238 168.94C680.454 165.946 685.421 162.322 690.439 158.996C698.569 153.607 706.589 148.414 714.37 142.516C716.559 145.957 719.27 148.912 721.654 152.198C712.107 166.109 696.585 174.656 682.584 183.374C693.978 178.827 717.61 169.971 726.375 162.903C728.287 166.928 730.833 170.714 732.477 174.833Q730.457 176.599 728.358 178.271Q726.259 179.943 724.086 181.517Q721.912 183.091 719.669 184.564Q717.426 186.037 715.118 187.405Q712.809 188.773 710.441 190.034Q708.072 191.296 705.648 192.447Q703.224 193.598 700.75 194.637Q698.276 195.676 695.757 196.601C709.392 193.908 721.158 190.986 733.601 184.559L736.531 197.828C726.051 206.428 713.821 211.973 700.882 215.797C712.456 215.15 726.931 211.724 737.354 206.839C737.673 209.547 738.03 212.257 738.299 214.97C732.104 224.481 719.994 228.61 709.646 231.831C721.964 230.748 736.092 228.044 745.066 218.791C749.312 230.526 760.985 238.572 767.301 249.371C772.236 257.81 775.221 267.507 779.035 276.498C781.776 282.96 785.643 288.911 788.247 295.45C793.035 307.474 795.612 319.583 798.765 332.048C800.498 338.901 802.661 345.612 804.263 352.507C799.386 350.362 794.891 347.538 790.332 344.799C791.39 350.267 793.598 353.873 798.343 357.034C801.004 358.807 803.911 360.204 806.858 361.433C800.646 366.581 791.827 376.463 783.114 375.524C777.23 374.89 772.324 370.497 768.86 365.969C767.214 363.818 765.836 361.415 764.438 359.096C766.925 367.129 770.856 371.532 777.141 376.806C772.587 379.617 767.439 381.007 762.112 379.699C756.188 378.245 751.525 373.555 748.572 368.396C746.728 365.173 745.3 361.688 743.336 358.543C738.687 351.096 731.152 346.59 722.809 344.377C720.878 343.864 718.887 343.58 716.935 343.143C712.89 343.033 708.908 342.968 704.868 343.242L699.368 344.336C694.454 348.795 691.936 354.379 691.548 361.016C690.906 372.012 696.79 383.309 699.089 393.918C700.53 400.567 700.902 407.606 702.888 414.104L703.454 414.638C703.613 414.469 703.756 414.282 703.933 414.132C707.411 411.183 720.892 413.018 725.333 413.727C743.916 416.693 761.536 424.451 779.521 429.807C788.083 432.356 798.375 433.291 806.197 437.564C803.271 438.672 798.459 439.74 797.051 442.797C797.182 444.02 797.294 444.737 798.339 445.527C799.679 446.54 801.426 447.225 802.883 448.084C806.619 450.285 807.936 454.856 808.878 458.904C809.266 460.573 809.713 466.646 810.67 467.495C812.103 462.011 809.861 453.243 808.363 447.83C808.52 448.001 808.68 448.169 808.836 448.341C811.37 451.137 815.391 460.575 818.301 461.34C819.47 458.338 817.743 453.046 817.077 449.967C822.115 455.27 824.316 461.206 824.183 468.537C823.887 484.819 813.057 493.459 803.729 505.271C798.846 511.454 794.581 518.023 790.447 524.719C783.883 535.347 777.46 546.006 772.635 557.548C770.097 563.617 768.66 570.37 765.708 576.189Q764.933 577.744 763.889 579.133Q762.844 580.521 761.566 581.698C756.52 586.294 750.067 587.556 743.482 587.688C741.679 587.724 739.55 587.515 737.89 588.308C734.547 589.904 731.267 596.697 727.566 599.207C719.764 604.499 711.026 609.677 702.622 613.908C696.72 616.88 690.575 619.43 684.756 622.549C679.871 609.768 678.728 590.144 684.39 577.431C686.786 572.05 690.355 567.684 695.951 565.469C703.488 562.486 712.834 563.227 720.447 565.553C719.466 558.798 719.69 551.973 719.751 545.167C731.887 544.218 739.75 541.542 747.869 532.143C752.278 527.039 756.733 520.69 758.745 514.184C759.793 510.794 760.04 507.217 760.35 503.701C761.977 485.255 760.807 477.219 779.673 468.242C770.442 470.662 763.92 474.342 756.794 480.707C755.769 480.117 755.421 480.371 754.438 479.42C754.381 478.285 754.373 477.281 753.926 476.221C753.828 475.989 753.722 475.759 753.619 475.529C754.624 466.703 753.979 458.145 749.895 450.102C744.931 440.328 734.83 432.545 724.453 429.308C715.689 426.575 706.587 426.393 697.754 424.259L645.8 411.236C634.653 408.366 624.427 404.073 612.747 403.432C602.431 402.867 592.452 404.545 583.273 409.429C571.1 415.906 564.322 426.322 560.321 439.245C562.145 437.197 563.128 434.854 564.589 432.562C567.94 427.304 573.212 423.385 578.512 420.256C590.187 413.363 605.343 408.978 618.963 410.406C625.12 411.051 631.103 412.767 637.077 414.325Q635.013 414.702 632.967 415.168C612.402 419.725 596.024 431.667 584.698 449.371C587.288 446.77 589.889 444.405 592.977 442.412C597.169 439.707 601.975 437.366 606.761 435.935C610.498 434.818 614.666 434.565 618.526 433.928C638.156 430.689 657.399 428.94 677.083 433.255C675.687 435.326 674.457 434.71 672.356 435.703C674.05 435.774 677.741 435.378 678.915 436.637C679.108 436.845 679.246 437.098 679.412 437.329C670.972 438.317 661.834 439.472 654.121 443.253C654.129 443.499 654.165 443.745 654.146 443.99C654.131 444.179 653.94 444.864 653.885 445.071L653.378 444.583C657.136 443.617 660.815 442.165 664.626 441.459C675.654 439.414 704.214 437.264 714.909 439.405C710.476 442.548 707.923 445.01 705.404 449.952C710.112 456.205 711.952 462.808 714.138 470.183C713.7 465.663 713.024 461.686 711.632 457.352C711.17 455.915 709.059 451.375 709.141 450.073C709.161 449.748 709.362 449.461 709.473 449.155C710.438 448.393 710.584 448.262 711.794 448.123C715.645 449.486 718.333 454.444 720.043 457.988C721.591 461.194 722.911 464.579 724.104 467.932C723.755 461.311 722.984 457.216 719.627 451.38C727.019 455.618 729.641 460.824 734.935 467.084C735.141 463.125 734.996 459.327 734.678 455.376L735.225 455.218C737.855 457.15 739.823 460.279 740.363 463.5C742.164 474.242 741.156 484.163 734.592 493.19C729.392 500.341 721.503 505.979 715.349 512.355C705.242 522.825 695.934 534.698 687.225 546.347C682.45 552.734 677.685 559.257 673.998 566.35C670.489 573.1 668.088 582.886 663.086 588.535C659.789 592.259 653.281 593.313 648.566 593.937C645.49 594.345 642.354 594.574 639.256 594.741C636.509 599.21 627.351 608.13 622.015 608.861C620.309 609.094 617.761 607.614 616.309 608.275C616.913 609.089 617.544 609.852 618.21 610.615C617.925 611.842 617.882 611.617 616.85 612.27C608.074 617.811 588.333 625.903 578.14 629.383C573.07 615.047 572.608 593.557 579.324 579.647C582.323 573.437 587.23 569.093 593.768 566.89C599.007 565.124 609.836 562.765 615.066 565.099C617.376 566.13 619.405 574.165 620.264 576.685C619.951 572.252 619.713 567.842 619.627 563.398C621.939 558.179 623.354 552.878 627.123 548.43C630.032 547.998 633.139 547.706 635.948 546.82C648.987 542.709 661.036 526.096 664.561 513.369C666.598 506.014 666.801 498.291 670.449 491.407C675.523 481.835 686.289 477.547 696.029 474.358C677.063 474.747 676.22 476.745 659.15 483.897C633.794 494.522 605.006 503.572 578.152 492.427C563.775 486.459 549.08 473.718 543.087 459.103Q542.618 457.957 542.206 456.79Q541.793 455.623 541.438 454.437Q541.083 453.251 540.786 452.049Q540.49 450.848 540.252 449.633Q540.014 448.418 539.836 447.193Q539.658 445.968 539.54 444.736Q539.422 443.503 539.364 442.267Q539.306 441.03 539.309 439.792Q539.311 438.554 539.375 437.318Q539.438 436.082 539.561 434.85Q539.684 433.618 539.868 432.394Q540.051 431.17 540.294 429.956Q540.537 428.742 540.839 427.542Q541.141 426.341 541.501 425.157Q541.861 423.972 542.279 422.807Q542.696 421.642 543.17 420.498C543.072 420.63 542.97 420.76 542.875 420.895C534.019 433.469 532.256 449.816 534.763 464.638C526.887 462.508 519.484 459.589 513.978 453.295C505.952 444.122 503.231 431.507 504.16 419.602C505.547 401.825 514.628 387.804 527.94 376.426C544.505 362.267 564.385 356.302 586.074 358.146C604.05 359.674 623.932 366.981 637.836 378.642C642.126 382.24 645.616 386.312 649.212 390.57L649.444 390.08C639.597 371.99 623.438 360.663 605.044 352.316C587.3 344.265 565.271 341.674 546.814 348.777C529.582 355.408 511.92 371.913 504.459 388.915C497.54 404.682 495.507 425.939 501.996 442.167C506.113 452.464 514.917 460.953 524.705 465.976C528.268 467.805 532.75 469.362 535.825 471.936C539.125 474.699 541.432 478.53 544.025 481.931C550.833 490.858 560.236 497.778 570.537 502.163C590.674 510.737 613.758 510.983 634.514 504.475C641.624 502.245 648.281 499.13 655.163 496.324C654.638 498.771 653.898 501.194 653.246 503.611C646.359 509.473 638.491 514.455 630.999 519.503C616.238 529.451 600.409 538.101 583.249 543.129C563.626 548.878 542.732 549.933 522.585 552.896C510.961 554.605 499.31 557.356 488.061 560.72C476.182 564.273 464.112 569.69 453.39 575.931C447.318 579.465 441.222 583.969 434.809 586.769C434.649 586.839 434.488 586.904 434.327 586.972Q434.533 586.365 434.717 585.75Q435.07 584.585 435.394 583.411Q435.718 582.238 436.013 581.057Q436.307 579.876 436.572 578.687Q436.837 577.499 437.072 576.305Q437.308 575.11 437.513 573.911Q437.719 572.711 437.894 571.506Q438.069 570.301 438.215 569.093Q438.36 567.884 438.475 566.672Q438.59 565.46 438.675 564.246Q438.759 563.031 438.814 561.815Q438.868 560.599 438.892 559.382Q438.916 558.165 438.91 556.947Q438.904 555.73 438.867 554.513Q438.83 553.296 438.763 552.081Q438.696 550.865 438.599 549.652Q438.501 548.438 438.374 547.228Q438.246 546.017 438.088 544.81Q437.93 543.603 437.742 542.4Q437.554 541.197 437.336 539.999Q437.119 538.802 436.871 537.61Q436.623 536.418 436.346 535.233Q436.068 534.047 435.762 532.869Q435.455 531.691 435.119 530.521Q434.782 529.351 434.417 528.19Q434.052 527.028 433.658 525.877Q433.264 524.725 432.841 523.583Q432.418 522.442 431.967 521.311Q431.516 520.18 431.037 519.061Q430.557 517.942 430.05 516.835Q429.543 515.729 429.009 514.635Q428.475 513.541 427.913 512.461Q427.351 511.381 426.763 510.315C425.43 507.845 423.307 502.61 420.453 501.761L420.47 502.43C425.023 509.151 426.683 517.376 427.591 525.344Q427.788 527.004 427.943 528.668Q428.098 530.333 428.212 532Q428.326 533.668 428.399 535.338Q428.471 537.008 428.502 538.68Q428.533 540.351 428.523 542.022Q428.513 543.694 428.461 545.365Q428.409 547.036 428.315 548.705Q428.222 550.374 428.087 552.04Q427.952 553.706 427.776 555.368Q427.6 557.031 427.383 558.688Q427.165 560.345 426.907 561.997Q426.648 563.648 426.349 565.293Q426.05 566.938 425.71 568.574Q425.37 570.211 424.989 571.839Q424.608 573.466 424.188 575.084Q423.767 576.702 423.306 578.309Q422.845 579.915 422.344 581.51Q421.843 583.105 421.303 584.687Q420.763 586.269 420.184 587.837Q419.605 589.405 418.987 590.958Q418.369 592.512 417.712 594.049Q417.056 595.586 416.362 597.107Q415.668 598.627 414.936 600.13Q414.204 601.633 413.435 603.118Q412.666 604.602 411.861 606.067Q411.055 607.531 410.213 608.976Q409.372 610.42 408.494 611.843Q407.617 613.266 406.705 614.666Q405.793 616.067 404.846 617.445Q403.899 618.822 402.918 620.176Q401.938 621.53 400.924 622.859Q399.91 624.188 398.863 625.491C381.527 646.932 358.172 660.773 330.787 664.552C322.485 665.698 314.061 665.435 305.747 666.385C278.514 669.496 269.729 698.147 261.788 720.022C257.868 730.82 253.67 741.852 250.564 752.913C249.053 758.295 248.279 768.789 244.862 772.859C240.175 778.444 229.969 778.931 223.186 779.696C221.02 784.175 218.576 788.418 214.604 791.554C212.206 793.447 209.376 794.691 206.273 794.268C196.037 792.871 194.881 783.711 190.004 777.151C190.363 779.075 190.847 780.979 191.619 782.783C194.698 789.976 199.938 794.581 207.053 797.559C201.32 801.018 196.034 805.213 190.548 809.045Q181.272 815.41 171.407 820.817C165.428 809.198 165.935 792.322 167.087 779.51C167.695 772.736 169.566 765.68 175.138 761.272C179.973 757.448 185.42 756.772 191.327 757.563C189.895 763.628 189.066 769.223 189.785 775.455C190.25 764.182 193.536 761.286 199.638 752.664C199.784 748.357 200.312 744.316 201.394 740.148C203.859 738.674 206.465 737.675 209.1 736.554C231.586 726.985 240.296 682.255 243.929 660.223C245.384 651.399 245.09 642.842 248.495 634.419C259.756 625.38 272.282 628.561 284.481 622.728C294.941 617.727 302.034 608.025 305.827 597.26C311.885 606.674 316.36 615.68 325.519 622.694C320.198 616.054 316.31 609.336 313.357 601.328C305.342 579.592 306.592 554.714 311.715 532.482C312.96 527.075 314.182 521.459 316.513 516.409C316.555 522.538 315.628 528.762 315.446 534.908C314.835 555.601 318.656 575.156 329.091 593.194C320.831 570.053 319.331 540.871 328.594 517.783Q329.017 516.699 329.468 515.627Q329.919 514.554 330.399 513.494Q330.878 512.434 331.384 511.386Q331.891 510.339 332.425 509.305Q332.959 508.271 333.519 507.252Q334.08 506.232 334.667 505.228Q335.254 504.223 335.868 503.235Q336.481 502.246 337.12 501.273Q337.758 500.301 338.422 499.346Q339.087 498.39 339.775 497.452Q340.464 496.515 341.177 495.595Q341.89 494.676 342.627 493.776Q343.364 492.875 344.124 491.994Q344.884 491.113 345.667 490.253Q346.45 489.392 347.255 488.552Q348.06 487.712 348.887 486.893Q349.714 486.075 350.562 485.278Q351.41 484.481 352.278 483.707Q353.147 482.933 354.035 482.182Q354.924 481.43 355.831 480.703Q356.739 479.975 357.666 479.271Q358.592 478.567 359.537 477.888Q360.481 477.208 361.443 476.554Q362.405 475.899 363.384 475.27Q364.363 474.641 365.358 474.038Q366.352 473.435 367.363 472.857Q368.373 472.28 369.398 471.73Q370.423 471.179 371.462 470.656Q372.501 470.132 373.554 469.636Q374.606 469.14 375.671 468.672Q376.736 468.203 377.813 467.763Q378.89 467.322 379.978 466.91C389.251 463.435 398.839 461.38 408.009 457.505L391.896 457.328C398.384 454.529 405.383 452.81 411.963 450.178C432.188 442.088 441.055 432.687 455.949 418.14C457.178 416.941 458.17 415.678 459.937 415.698C456.258 424.264 454.672 433.334 449.789 441.507C448.773 443.208 444.513 448.273 444.725 449.949C447.757 447.516 450.744 442.062 453.12 438.752C463.082 424.873 472.823 410.522 481.88 396.028C486.892 388.006 490.485 379.383 496.503 371.984C494.189 373.746 491.863 375.521 489.888 377.667C486.109 381.772 483.06 386.684 479.812 391.212C474.645 398.415 469.527 405.137 465.219 412.949L465.242 412.38C465.517 406.445 467.381 400.654 468.87 394.927C470.435 388.904 471.862 382.768 474.035 376.932C481.49 356.911 494.71 336.71 510.545 322.387C498.308 328.738 489.943 339.951 482.423 351.174C481.265 349.772 480.401 348.719 479.882 346.959C484.711 328.537 493.08 309.865 503.015 293.645C521.094 311.71 546.544 326.402 572.171 329.337C601.361 332.681 628.855 323.281 651.574 305.005C668.706 291.224 679.63 273.251 681.861 251.225C683.994 230.169 679.054 210.867 665.547 194.407C655.826 182.56 646.852 179.697 634.181 172.854C630.633 170.938 627.162 168.409 623.361 167.022C618.501 165.248 612.819 164.2 607.664 163.749C593.384 162.498 578.159 166.318 567.158 175.72C556.549 184.788 549.996 196.457 548.95 210.445C547.836 225.326 551.809 238.039 561.542 249.286L560.429 249.774C559.395 249.425 559.65 249.282 558.543 249.862C547.255 255.781 527.103 281.681 516.012 291.976C513.939 288.508 511.133 285.571 508.501 282.527C510.504 278.543 512.516 274.785 515.33 271.308C523.469 261.248 540.024 248.73 552.202 244.13C551.967 244.575 552.098 244.402 551.849 244.678L551.408 243.891C540.179 247.809 530.409 253.331 520.793 260.297C517.069 262.995 504.014 275.743 501.503 276.458C499.968 274.933 499.296 272.301 498.741 270.235C501.94 258.835 509.187 252.19 519.277 246.489C527.302 241.955 535.334 239.469 543.792 236.151L543.707 235.65C526.167 239.547 506.109 245.039 494.101 259.486L493.041 259.846C491.479 258.605 491.224 256.989 490.979 255.065C490.425 250.699 491.027 247.728 493.889 244.289C502.744 233.649 520.981 228.066 534.353 227.131C536.148 227.006 538.279 227.159 539.911 226.348L539.534 226.11L538.644 226.481L538.788 226.089C519.434 225.719 500.375 228.703 485.182 241.709C484.499 238.939 481.915 231.927 483.274 229.538C486.926 223.115 501.389 218.065 508.309 216.536C518.588 214.265 527.956 214.376 538.304 215.724C521.009 208.975 499.455 211.191 482.74 218.588Q481.625 219.076 480.532 219.612C480.462 215.482 479.46 209.301 482.582 206.194C489.098 199.709 504.2 198.389 512.885 198.658C521.193 198.915 529.3 200.872 537.104 203.629C520.991 193.335 499.617 191.994 481.313 196.047L479.807 196.385C480.22 192.511 480.619 188.505 481.84 184.783L482.458 184.442C493.458 178.502 511.588 180.617 523.131 184.076C528.888 185.802 534.289 188.032 538.91 191.961L539.244 191.71C527.678 180.779 505.293 172.857 489.514 173.213C487.465 173.259 485.412 173.429 483.37 173.598C484.727 169.074 486.077 164.561 488.573 160.511C504.509 157.418 523.407 164.192 536.61 172.97C538.862 174.468 540.958 176.231 543.041 177.954C533.578 165.112 512.424 153.346 496.696 150.94Q494.439 150.605 492.169 150.372C494.601 146.685 497.364 139.785 501.981 138.799C511.173 136.834 528.705 147.135 535.945 152.246C541.371 156.076 545.925 160.508 550.48 165.315C542.695 149.415 523.546 134.021 506.976 128.274C509.886 125.324 515.174 118.563 519.504 118.645C529.108 118.827 544.79 134.415 550.786 141.08C553.019 143.562 555.228 146.151 557.091 148.925C558.905 151.627 560.488 154.758 562.723 157.11C560.168 146.509 546.759 127.904 539.245 119.98C535.807 116.355 532.024 113.324 527.99 110.394C531.093 108.142 536.906 102.783 540.888 103.392C548.555 104.567 556.442 116.246 560.585 122.154C566.332 130.349 571.212 140.577 574.334 150.08C574.902 148.189 573.376 144.705 572.818 142.664C570.713 134.976 568.486 127.186 565.432 119.814C562.27 112.182 558.329 104.91 554.811 97.449C559.325 95.0946 563.47 93.7783 568.459 92.7723C568.588 92.9125 568.719 93.0511 568.846 93.193C577.837 103.238 584.412 127.937 587.159 141.04C587.339 141.9 588.09 146.907 588.373 146.975C589.843 137.989 583.104 101.5 581.036 90.2833C583.574 89.8722 591.477 87.9642 593.517 89.5197C598.786 93.5377 601.522 123.832 601.901 130.988C602.042 133.647 601.96 145.423 602.757 146.867C603.726 138.243 603.952 129.5 604.499 120.838Q605.618 104.604 607.249 88.4129ZM704.82 339.76C704.695 340.984 704.418 342.074 704.868 343.242C708.908 342.968 712.89 343.033 716.935 343.143L717.195 342.594C716.217 342.101 715.393 341.455 714.512 340.81L714.849 340.845L714.408 340.532L716.216 340.371L716.935 339.378C720.527 337.922 724.017 336.711 726.93 334.066C714.545 334.007 703.109 334.463 693.75 324.959C686.269 317.362 683.777 305.813 683.923 295.457C683.998 290.097 685.82 285.581 687.604 280.619C684.764 282.285 680.344 293.808 679.455 297.278C677.066 306.604 677.773 317.953 682.895 326.274C687.159 333.2 694.202 337.627 702.07 339.32C702.996 339.519 703.879 339.666 704.82 339.76ZM739.313 250.182C737.599 250.39 735.592 250.423 734.099 251.324L734.167 251.851C743.078 255.306 753.759 259.372 758.001 268.738C758.583 270.022 758.874 271.398 759.204 272.761L759.607 274.386L759.916 275.928L760.509 276.03C761.798 270.637 761.673 263.896 758.673 259.081C755.863 254.571 750.849 251.765 745.74 250.682C743.624 250.233 741.469 250.116 739.313 250.182ZM472.964 488.83C484.835 500.484 495.508 504.455 512.23 504.358C517.134 504.329 522.011 503.632 526.857 502.928L527.103 502.556C523.741 502.25 520.357 502.475 516.984 502.343C506.637 501.936 496.495 500.335 486.859 496.406C484.702 495.526 482.429 494.682 480.427 493.481C477.95 491.993 475.729 489.741 472.964 488.83ZM736.797 265.147C737.372 269.507 738.6 273.296 742.208 276.073C745.825 278.856 749.618 280.567 752.035 284.616C750.905 279.1 750.389 271.301 745.448 267.824C742.937 266.057 739.759 265.599 736.797 265.147ZM724.758 272.242C726.309 277.401 727.839 281.321 732.836 284.127C737.071 286.505 741.343 286.765 745.972 285.697C743.246 283.117 737.734 282.8 734.455 280.735C730.828 278.45 728.215 274.713 724.758 272.242Z"/>
	<path fill="#010102" d="M704.82 339.76C709.232 340.888 712.564 340.211 716.935 339.378L716.216 340.371L714.408 340.532L714.849 340.845L714.512 340.81C715.393 341.455 716.217 342.101 717.195 342.594L716.935 343.143C712.89 343.033 708.908 342.968 704.868 343.242C704.418 342.074 704.695 340.984 704.82 339.76Z"/>
</svg>
