<?xml version="1.0" encoding="utf-8" ?>
<svg xmlns="http://www.w3.org/2000/svg" xmlns:xlink="http://www.w3.org/1999/xlink" width="1024" height="1024">
	<path d="M479.571 348.442C480.552 349.593 481.19 350.592 481.874 351.942L476.922 359.563Q478.049 353.955 479.571 348.442Z"/>
	<path d="M230.583 504.089C234.083 505.923 237.691 507.571 241.257 509.274C240.96 510.649 241.015 511.963 239.911 512.88C236.352 510.422 233.487 507.262 230.583 504.089Z"/>
	<path d="M705.026 339.811C708.112 340.264 710.987 340.503 714.081 339.806C714.533 340.817 715.194 341.951 715.486 343.007C712.277 342.987 709.072 343.118 705.866 343.227C705.096 342.141 705.18 341.111 705.026 339.811Z"/>
	<defs>
		<linearGradient id="gradient_0" gradientUnits="userSpaceOnUse" x1="757.68018" y1="227.14282" x2="755.69214" y2="222.69092">
			<stop offset="0" stop-color="white" stop-opacity="0.17647059"/>
			<stop offset="1" stop-color="white" stop-opacity="0.24705882"/>
		</linearGradient>
	</defs>
	<path fill="url(#gradient_0)" d="M750.162 207.449L752.756 210.125C751.973 211.132 751.423 211.891 751.609 213.237C752.449 219.303 764.431 225.358 762.072 231.406C761.294 231.819 761.446 231.955 760.698 231.702C757.276 230.542 750.993 220.675 748.015 222.341C747.728 222.502 747.426 222.872 747.204 223.119L746.786 222.583C747.577 220.649 749.626 218.535 750 216.578C750.447 214.238 749.077 212.75 747.82 210.945C747.87 210.563 747.92 210.069 748.035 209.71C748.484 208.308 748.953 208.175 750.162 207.449Z"/>
	<path fill="#FEFEFE" fill-opacity="0.082352944" d="M522.283 309.314C521.765 304.693 515.044 302.729 514.092 297.611C514.307 296.903 514.337 296.339 514.915 295.824C516.303 294.59 520.142 292.914 522.002 292.952L522.314 293.499L521.817 294.49C521.781 296.638 522.056 297.239 523.334 298.951L523.763 299.832C523.684 301.517 523.47 302.182 524.321 303.673C526.374 304.753 529.516 303.75 531.631 303.105L533.542 304.616L532.439 306.154C530.855 308.588 527.772 309.574 525.916 311.858C524.607 311.076 523.439 310.31 522.283 309.314ZM523.334 298.951C522.056 297.239 521.781 296.638 521.817 294.49L520.973 293.868C519.787 294.541 520.533 294.018 519.73 294.783C519.057 295.425 518.443 295.593 517.582 295.884C516.821 296.966 516.495 297.512 516.71 298.875C516.907 300.129 517.713 301.778 518.705 302.554C519.751 303.373 520.329 303.313 521.542 303.199C522.776 302.042 522.95 300.529 523.334 298.951Z"/>
	<path fill="#FEFEFE" fill-opacity="0.16078432" d="M523.334 298.951C522.95 300.529 522.776 302.042 521.542 303.199C520.329 303.313 519.751 303.373 518.705 302.554C517.713 301.778 516.907 300.129 516.71 298.875C516.495 297.512 516.821 296.966 517.582 295.884C518.443 295.593 519.057 295.425 519.73 294.783C520.533 294.018 519.787 294.541 520.973 293.868L521.817 294.49C521.781 296.638 522.056 297.239 523.334 298.951Z"/>
	<path d="M291.369 482.827C287.421 481.272 283.639 479.618 280.039 477.348C268.799 470.266 259.79 458.223 256.892 445.2C258.517 448.16 260.062 451.17 261.718 454.112C270.041 468.898 281.085 474.848 296.88 479.313C295.039 480.223 293.559 481.001 291.993 482.34C291.793 482.512 291.577 482.665 291.369 482.827Z"/>
	<path fill="#161D1E" d="M658.152 86.308C670.604 84.4232 687.225 84.038 699.289 88.3021C698.209 90.5128 697.212 92.6916 696.36 95.0052C699.58 92.1225 702.235 90.0278 706.84 90.3502C709.667 90.5481 712.621 91.4727 715.301 92.3404C713.764 94.7036 710.261 99.1002 709.8 101.794C713.64 99.6713 717.302 97.1147 721.149 95.077C724.837 96.4066 728.568 97.671 732.187 99.177C730.221 101.791 727.902 104.395 726.637 107.427L727.019 107.961C730.683 107.098 733.905 105.119 737.431 103.856C740.299 105.237 742.965 106.709 745.637 108.438C743.154 111.246 740.505 114.013 738.339 117.072C743.822 116.197 750.911 113.606 755.87 117.118C757.133 118.013 758.325 119.134 759.395 120.249C757.092 121.633 753.163 123.374 752.215 126.035C751.931 126.831 752.082 126.635 752.54 127.523C756.136 128.887 759.616 127.421 763.179 126.506C765.943 129.184 768.433 131.842 770.813 134.865C767.667 135.828 764.667 136.561 762.265 138.95L762.74 140.437C766.607 141.996 770.196 141.279 774.235 140.857C776.59 143.85 778.248 146.913 779.869 150.347C777.535 151.019 775.142 151.548 773.064 152.843L772.601 154.082C773.826 155.377 775.999 155.326 777.596 156.103C779.931 156.187 781.392 156.195 783.1 157.984C785.241 160.226 786.595 163.802 787.994 166.581C785.628 167.109 780.857 167.627 779.404 169.593L779.229 170.46L780.204 172.829C782.932 173.087 785.936 173.024 787.767 175.433C790.05 178.438 789.369 183.655 789.365 187.217C786.364 187.277 781.421 186.654 779.137 188.795L779.3 189.786C782.942 191.457 786.854 192.342 790.459 194.088C789.556 199.042 788.721 204.021 787.658 208.944C783.081 208.742 778.645 208.584 774.105 209.331C778.453 211.616 782.927 213.65 787.274 215.93C785.286 223.816 782.518 230.915 777.667 237.517C770.394 227.588 761.645 218.617 752.756 210.125L750.162 207.449L749.234 206.532C748.466 205.829 747.915 205.353 747.519 204.363C746.409 201.582 746.668 193.455 746.34 190.157Q745.763 184.886 744.765 179.679C739.181 150.528 715.216 120.788 691.164 104.236C689.806 102.899 687.976 101.899 686.384 100.855C685.043 99.8221 683.523 98.9939 682.07 98.1234C681.02 97.3614 680.071 96.8833 678.893 96.3682C672.261 92.4225 665.46 88.8463 658.152 86.308Z"/>
	<path fill="#FEFEFE" d="M763.111 173.414C767.404 171.963 774.2 168.841 778.623 169.35L779.229 170.46L780.204 172.829Q771.66 173.196 763.111 173.414Z"/>
	<path fill="#FEFEFE" d="M755.655 159.137C759.645 156.952 767.648 152.677 772.12 152.835L772.601 154.082C773.826 155.377 775.999 155.326 777.596 156.103C775.501 156.607 772.884 156.472 770.699 156.713C765.61 157.275 760.662 158.054 755.655 159.137Z"/>
	<path fill="#161D1E" d="M234.665 480.352C232.321 476.202 229.973 472.097 228.286 467.623C222.173 451.413 224.315 428.579 231.391 412.982C240.148 393.679 257.035 378.963 276.819 371.737C293.64 365.594 324.744 362.121 341.345 369.867C321.904 367.807 312.608 366.33 293.96 374.831C271.955 384.863 256.422 397.911 248.012 420.849C244.932 429.248 242.293 443.919 246.212 452.393C247.028 451.723 246.996 450.812 247.041 449.794C247.183 446.538 246.726 443.267 246.916 439.995C247.794 424.84 254.073 414.125 263.044 402.283C258.834 414.876 253.993 427.988 253.863 441.409C253.754 452.713 257.068 463.294 265.13 471.442C271.48 477.86 281.826 483.375 291.019 483.385L291.369 482.827C291.577 482.665 291.793 482.512 291.993 482.34C293.559 481.001 295.039 480.223 296.88 479.313C313.241 480.734 327.361 478.618 342.031 471C321.18 487.797 308.954 499.732 301.197 526.052C278.709 528.107 258.231 528.272 240.008 512.987C239.971 512.956 239.944 512.916 239.911 512.88C241.015 511.963 240.96 510.649 241.257 509.274C245.966 510.961 251.688 513.19 256.758 512.643C258.043 512.505 257.981 512.306 258.797 511.289C257.425 509.865 254.004 509.176 252.11 508.456C238.006 503.096 223.784 489.635 217.674 475.766C210.711 459.957 211.773 430.113 218.112 414.093C218.122 414.307 218.128 414.52 218.143 414.734C218.413 418.562 216.964 427.559 216.923 432.496C216.774 450.677 221.74 467.241 234.665 480.352Z"/>
	<path fill="#161D1E" d="M495.092 570.013C495.314 570.234 495.525 570.716 495.683 570.994C493.6 585.216 487.862 600.657 481.099 613.221C466.793 639.803 440.907 664.749 410.629 671.244C399.669 673.595 388.362 673.363 377.568 676.703C370.962 678.747 364.635 681.743 359.698 686.685C345.992 700.403 337.791 734.862 332.887 753.463C331.047 760.442 329.685 768.8 326.168 775.118C321.998 782.608 313.419 784.235 305.836 786.25C304.068 788.591 302.283 790.907 300.265 793.04C297.611 795.846 296.044 797.389 292.003 797.502L291.385 797.515L291.591 797.621C283.952 805.71 270.215 811.357 259.835 814.835C259.23 813.178 258.75 811.478 258.239 809.789C255.973 799.395 255.673 787.568 257.581 777.099C258.555 771.753 260.477 766.41 265.237 763.311C269.071 760.816 277.439 759.305 281.991 760.619C284.322 761.292 284.993 762.523 286.12 764.497Q285.611 754.763 284.598 745.068C289.514 742.632 293.943 740.219 297.922 736.397C312.548 722.353 317.673 696.288 317.95 676.871C356.349 678.708 393.012 658.776 415.648 628.311C420.981 621.134 425.909 608.368 431.698 602.856C435.33 599.4 439.966 596.767 444.209 594.142C460.555 584.027 477.027 576.528 495.092 570.013Z"/>
	<path fill="#161D1E" d="M607.524 88.5265C612.042 88.6143 616.455 88.8966 620.884 89.8457C620.774 95.9226 619.155 122.032 620.821 125.502L621.51 125.9C624.761 114.455 627.932 102.942 633.087 92.1932C637.155 92.963 640.977 94.14 644.905 95.4405C643.481 102.647 639.506 115.832 640.878 122.743L641.88 123.786C646.279 115.324 650.463 106.198 656.341 98.6689L665.802 101.989C671.77 93.2955 671.244 98.7939 678.192 96.6073C678.427 96.5332 678.659 96.4479 678.893 96.3682C680.071 96.8833 681.02 97.3614 682.07 98.1234C683.523 98.9939 685.043 99.8221 686.384 100.855C687.976 101.899 689.806 102.899 691.164 104.236C715.216 120.788 739.181 150.528 744.765 179.679Q745.763 184.886 746.34 190.157C746.668 193.455 746.409 201.582 747.519 204.363C747.915 205.353 748.466 205.829 749.234 206.532L750.162 207.449C748.953 208.175 748.484 208.308 748.035 209.71C747.92 210.069 747.87 210.563 747.82 210.945C749.077 212.75 750.447 214.238 750 216.578C749.626 218.535 747.577 220.649 746.786 222.583L747.204 223.119C752.349 232.249 760.797 238.64 766.051 247.479C771.374 256.433 774.737 266.377 778.74 275.947C781.75 283.142 785.808 289.871 788.644 297.14C793.1 308.561 795.75 320.643 798.801 332.491C800.484 339.03 802.612 345.539 804.005 352.135C799.213 349.973 794.672 347.319 790.094 344.744C792.501 352.035 795.543 355.992 802.475 359.51Q804.564 360.553 806.691 361.517C800.34 367.052 791.954 375.932 782.802 375.267C777.359 374.871 773.371 371.501 770.077 367.435C768.827 365.893 767.529 363.728 765.857 362.656C767.554 366.371 769.791 369.451 772.646 372.351Q774.786 374.531 776.869 376.765C772.181 379.518 766.807 380.884 761.43 379.375C743.276 374.282 749.674 346.613 715.486 343.007C715.194 341.951 714.533 340.817 714.081 339.806C710.987 340.503 708.112 340.264 705.026 339.811C705.18 341.111 705.096 342.141 705.866 343.227C703.771 343.499 701.665 343.737 699.577 344.061C694.779 348.625 691.735 354.022 691.425 360.791C690.924 371.737 696.155 382.35 698.61 392.787C700.282 399.89 700.983 407.163 702.938 414.213C703.89 414.305 704.344 414.041 705.25 413.735C722.601 407.875 760.246 424.307 778.516 429.64C787.605 432.293 797.409 433.248 805.939 437.52C803.03 438.54 798.602 439.416 797.16 442.409C797.485 444.515 798.928 445.622 800.59 446.852C802.553 448.306 804.524 449.219 806.222 451.035C806.939 449.944 807.851 449.331 808.889 448.581C812.597 452.619 814.636 458.015 818.468 462.167C818.684 457.676 818.181 454.002 816.962 449.68C818.493 451.579 820.036 453.579 821.147 455.756C824.958 463.226 824.72 471.546 822.023 479.305C817.928 491.089 807.019 500.218 799.855 510.238C792.284 520.827 785.264 532.234 779.113 543.699Q775.544 550.353 772.693 557.345C769.589 565.1 767.503 576.207 761.126 581.93C752.928 589.288 744.953 584.759 737.568 588.7C733.051 591.11 730.714 596.831 726.39 599.858C713.511 608.872 698.861 615.491 684.767 622.318C681.029 610.148 679.406 597.425 682.165 584.852C683.704 577.84 686.892 570.952 693.219 567.057C701.197 562.146 711.779 563.42 720.428 565.531C720.046 558.852 719.979 552.208 719.985 545.519C725.271 544.672 730.524 543.923 735.454 541.734C747.37 536.442 758.109 522.191 759.934 509.277C761.219 500.188 760.374 489.866 764.208 481.373C766.17 477.028 770.08 473.892 773.542 470.772C764.299 473.459 758.911 479.359 751.337 484.855C754.452 473.716 755.742 462.547 750.84 451.644C746.461 441.902 736.874 433.663 726.915 430.018C717.055 426.408 706.38 426.126 696.219 423.701C679.734 419.766 663.226 415.616 646.846 411.268C635.979 408.384 624.934 404.248 613.671 403.348C604.139 402.587 594.128 404.12 585.445 408.195C572.074 414.472 565.544 425.047 560.65 438.47C562.361 436.452 563.621 434.011 565.156 431.85C569.258 426.079 575.145 422.019 581.341 418.743C599.424 409.18 617.026 408.448 636.341 414.34C613.05 419.476 598.994 429.133 585.294 448.536C588.116 446.018 591.072 443.65 594.289 441.652C611.773 430.794 656.373 428.591 676.017 433.248C682.192 434.154 689.662 435.157 695.505 437.285L695.782 437.959C699.05 439.361 709.778 438.736 714.444 439.502C710.449 442.637 707.876 445.59 705.167 449.888C709.198 455.154 711.37 460.814 713.836 466.908C713 462.508 711.478 458.528 710.271 454.247C709.685 452.17 708.993 450.11 710.108 448.142L711.26 448.069C718.714 451.548 721.134 460.699 724.264 467.703C723.609 461.632 722.406 457.085 719.884 451.524C726.006 456.052 730.445 461.308 734.924 467.444C735.197 463.345 735.129 459.372 734.915 455.27C738.617 458.395 740.089 461.944 740.68 466.726C741.645 474.539 740.43 483.193 736.431 490.046C730.929 499.476 721.226 506.016 713.771 513.819C706.124 521.823 699.167 530.595 692.387 539.335C686.026 547.535 679.501 555.797 674.686 565.028C670.936 572.216 668.728 581.085 663.616 587.426C658.214 594.128 647.134 593.907 639.242 594.608Q636.24 598.871 632.407 602.404C627.921 606.497 623.649 608.603 617.491 608.323L616.794 608.285L616.54 608.649C617.132 609.449 617.479 610.04 617.762 610.995C612.578 616.782 586.593 626.101 578.231 629.182C573.569 615.669 572.929 598.592 577.372 584.948C579.78 577.553 584.122 571.623 591.263 568.128C596.725 565.456 608.312 562.566 614.042 564.975C617.181 566.294 618.494 570.757 619.785 573.653C620.157 562.446 620.617 558.242 626.911 548.746Q629.803 548.268 632.68 547.704C648.425 544.527 660.301 528.199 664.553 513.57C666.855 505.65 667.221 497.119 671.554 489.887C675.97 482.515 683.872 481.447 687.487 476.063L687.336 475.344C678.107 474.18 668.568 479.722 660.348 483.23C636.329 493.481 608.639 502.46 582.758 493.945C567.23 488.836 552.016 476.846 544.696 462.068C537.993 448.537 538.494 433.946 543.3 419.95C534.09 434.663 532.794 447.329 534.55 464.302C530.415 463.3 526.287 461.145 521.956 461.293C520.744 461.334 521.182 461.131 520.446 461.943C523.363 466.625 531.526 468.881 535.954 472.563C540.063 475.979 542.506 480.14 545.766 484.247C552.765 493.068 563.324 499.657 573.789 503.532C602.234 514.068 628.514 508.361 655.168 496.224C654.594 498.657 653.867 501.058 653.186 503.463C646.751 508.772 639.844 513.438 632.913 518.068C609.007 534.036 587.809 543.667 558.969 548.005C533.387 551.852 511.854 553.277 486.698 561.014Q478.585 563.566 470.785 566.958Q462.985 570.35 455.586 574.544C448.497 578.62 441.72 583.191 434.422 586.902Q435.151 584.621 435.767 582.307Q436.382 579.993 436.882 577.652Q437.382 575.31 437.765 572.946Q438.149 570.583 438.414 568.203Q438.68 565.823 438.827 563.433Q438.974 561.043 439.003 558.649Q439.032 556.255 438.942 553.862Q438.852 551.469 438.643 549.084C437.396 534.455 431.284 510.344 419.642 500.606C422.638 506.445 425.012 511.989 426.312 518.456C432.949 551.455 424.314 588.123 405.732 615.883C388.948 640.956 363.159 659.758 332.848 664.038C322.838 665.451 312.407 664.728 302.541 666.74C277.711 671.802 269.269 698.971 261.707 719.817C258.054 729.887 254.132 740.005 251.269 750.33C249.332 757.317 248.676 767.213 244.384 773.132C240.638 778.299 228.963 778.865 223.02 779.647C220.705 784.614 217.039 791.348 211.461 792.982C209.547 793.543 207.303 793.616 205.616 794.727C204.649 795.363 204.942 794.994 204.707 796.144C205.305 796.711 205.695 797.125 206.156 797.822C195.459 806.053 183.385 814.374 171.329 820.506C170.263 817.996 169.369 815.508 168.703 812.86C165.668 800.79 164.468 777.044 171.275 766.167C173.608 762.439 177.118 759.138 181.51 758.229C184.043 757.704 188.529 756.723 190.728 758.161C191.042 763.108 189.612 768.781 189.334 773.813C191.377 764.56 194.462 760.007 199.895 752.562C200.079 748.514 200.658 744.637 201.384 740.654C206.033 737.519 211.671 736.184 216.016 732.5C233.424 717.737 240.491 683.16 243.934 661.2C245.337 652.251 245.516 643.187 248.673 634.615C259.137 626.294 272.192 628.22 283.836 623.149C294.928 618.319 301.566 608.411 305.839 597.496C311.583 606.483 316.604 615.213 324.838 622.207C321.566 616.43 317.569 611.171 314.976 604.998C304.613 580.322 306.06 543.086 316.105 518.309C315.761 544.082 313.55 567.461 328.001 590.732C322.055 567.283 319.589 542.685 328.122 519.479Q328.528 518.379 328.963 517.29Q329.398 516.201 329.861 515.123Q330.324 514.046 330.816 512.982Q331.307 511.917 331.827 510.866Q332.346 509.814 332.893 508.777Q333.44 507.74 334.014 506.717Q334.588 505.695 335.189 504.688Q335.79 503.681 336.417 502.69Q337.044 501.699 337.697 500.725Q338.35 499.751 339.029 498.794Q339.707 497.838 340.411 496.9Q341.114 495.961 341.842 495.042Q342.57 494.123 343.322 493.223Q344.074 492.323 344.849 491.443Q345.624 490.563 346.423 489.704Q347.221 488.845 348.042 488.008Q348.862 487.17 349.704 486.354Q350.547 485.538 351.41 484.745Q352.274 483.952 353.158 483.181Q354.042 482.411 354.946 481.664Q355.851 480.918 356.774 480.195Q357.698 479.472 358.64 478.774Q359.582 478.076 360.543 477.403Q361.503 476.73 362.48 476.083Q363.458 475.435 364.453 474.814Q365.447 474.192 366.457 473.597Q367.468 473.002 368.494 472.434Q369.52 471.866 370.56 471.325Q371.6 470.784 372.655 470.27Q373.709 469.757 374.776 469.271Q375.844 468.786 376.924 468.329Q378.003 467.872 379.095 467.443C388.339 463.809 398.105 461.701 407.163 457.555Q400.11 457.527 393.066 457.184C397.749 454.932 402.904 453.482 407.802 451.746C417.205 448.412 426.106 444.155 434.138 438.181C443.439 431.264 450.624 421.82 459.856 414.984C460.035 414.851 460.218 414.723 460.399 414.593C457.125 422.03 455.12 430.037 451.918 437.507C450.2 441.516 447.139 444.79 445.625 448.893C456.034 436.225 465.127 421.931 474.108 408.23C478.668 401.275 484.493 393.46 487.687 385.773C488.163 384.627 488.517 383.818 488.064 382.624C487.904 382.634 487.741 382.623 487.584 382.655C483.259 383.557 468.009 408.159 464.977 413.383C465.686 407.138 467.305 401.135 468.904 395.072C473.588 377.308 479.822 361.112 490.276 345.812C493.02 341.795 501.99 331.888 503.202 328.419L502.69 328.15C494.782 332.536 487.066 344.463 481.874 351.942C481.19 350.592 480.552 349.593 479.571 348.442C484.549 329.01 493.033 311.067 503.029 293.766C508.874 299.518 515.2 305.128 522.283 309.314C523.439 310.31 524.607 311.076 525.916 311.858C527.772 309.574 530.855 308.588 532.439 306.154L533.542 304.616L531.631 303.105C528.495 301.052 525.419 299.055 522.597 296.577L536.666 274.4L533.917 273.233C527.862 279.298 522.012 285.642 516.173 291.916C513.953 288.578 511.294 285.551 508.722 282.482C513.379 273.193 518.263 268.432 525.332 261.13C526.319 260.11 527.165 259.148 527.143 257.696C526.997 257.659 526.855 257.6 526.705 257.585C522.377 257.155 506.416 272.949 501.913 276.116L501.261 276.57C500.297 274.586 499.613 272.47 498.866 270.397C501.879 260.632 507.503 253.824 516.136 248.396C519.213 246.461 522.618 244.72 525.353 242.323L524.976 241.847C518.92 242.161 509.616 245.966 504.756 249.552C501.391 252.034 497.136 257.999 493.053 258.654C492.393 258.318 492.033 258.294 491.681 257.586C490.537 255.29 490.743 251.748 491.436 249.339C493.522 242.085 501.341 237.54 507.534 234.102L506.806 233.242L504.984 233.325C503.77 232.674 503.852 232.337 503.344 231.032C496.699 233.493 490.408 236.844 485.233 241.735C484.671 239.66 484.096 237.582 483.606 235.488C483.053 233.123 482.741 230.813 484.171 228.683C488.709 221.92 502.496 217.697 510.095 216.12C514.437 215.218 518.97 214.958 523.363 214.209L523.309 212.766C511.41 208.627 491.521 214.624 480.521 219.48C480.46 216.92 480.317 214.283 480.557 211.73C480.839 208.729 482.106 206.674 484.47 204.842C491.867 199.112 505.263 197.912 514.285 198.548C516.917 198.733 519.558 199.487 522.14 199.632C523.297 199.697 523.905 199.563 524.754 198.758C524.58 197.954 524.754 197.972 524.187 197.547C522.293 196.125 519.017 195.873 516.73 195.491C504.166 193.393 492.405 193.754 479.927 196.204C480.416 192.314 480.929 188.558 481.986 184.778C491.544 180.174 502.398 180.096 512.707 181.814C516.444 182.437 520.381 183.501 524.174 183.469C524.826 183.463 524.53 183.543 525.084 182.979C524.951 182.828 524.832 182.663 524.686 182.524C522.791 180.715 519.401 179.517 516.976 178.584C505.773 174.271 495.486 172.557 483.531 173.489C484.928 168.885 486.445 164.618 488.898 160.459C498.921 159.197 508.369 160.48 517.915 163.7C521.165 164.796 528.109 168.893 531.19 167.879L531.316 167.109C522.663 157.985 504.736 151.43 492.378 150.292C494.637 146.347 497.206 140.655 501.864 139.044C509.273 136.483 525.647 145.609 532.025 149.556C535.545 151.734 538.944 154.568 542.732 156.218L542.952 155.782C542.869 155.288 542.785 154.473 542.521 154.017C541.601 152.431 539.832 151.002 538.61 149.62C529.847 139.71 519.457 132.854 507.024 128.256C510.716 124.43 513.951 120.896 518.818 118.524C530.795 120.606 540.587 130.721 549.086 138.832C550.901 140.563 552.468 142.991 554.544 144.327C555.29 143.72 555.114 143.701 555.249 142.805C554.691 141.62 553.817 140.935 552.884 140.041L553.262 139.226L552.493 139.624C552.328 138.855 552.126 138.093 551.962 137.324C550.225 129.18 534.981 115.541 528.038 110.427C531.813 107.409 536.39 103.357 541.57 103.961C549.485 104.885 556.801 116.746 561.004 122.901C562.08 124.475 563.104 126.551 564.445 127.873C565.386 128.8 566.237 128.814 567.458 128.731L567.996 127.899C567.854 121.532 558.27 104.076 554.97 97.4612C559.246 95.2715 563.719 93.9991 568.361 92.8501C575.659 101.407 577.797 111.282 582.421 121.145L582.673 120.965L582.69 121.65C584.057 121.456 584.535 121.558 585.559 120.587C586.485 113.622 582.584 98.0349 581.208 90.3212L583.471 89.9138C586.218 89.4302 591.596 88.0395 593.941 90.2471C598.422 94.4657 600.343 114.674 601.387 121.43C602.758 121.042 603.355 120.267 604.356 119.305C606.045 109.129 606.004 98.7264 607.524 88.5265ZM567.743 254.45C565.953 256.813 563.996 259.146 562.472 261.691L563.535 262.462C565.41 260.109 567.239 257.618 569.282 255.412C571.27 256.747 573.444 257.888 574.613 260.043C574.722 261.148 574.722 262.215 574.753 263.321C574.755 263.382 574.772 263.441 574.781 263.5C575.054 265.229 574.943 266.15 576.154 267.453C573.46 274.779 571.278 282.359 568.498 289.626C568.715 289.599 568.931 289.569 569.148 289.546C570.267 289.429 570.915 289.304 571.826 289.989C573.71 286.667 574.512 282.338 575.609 278.656C577.303 272.97 578.996 267.437 581.425 262.009C583.411 262.43 585.286 262.585 586.482 264.407C589.822 269.497 585.696 282.1 587.402 285.892L588.124 285.043C588.556 287.274 588.592 288.34 587.715 290.468C586.077 294.443 585.583 299.013 585.057 303.245L586.459 303.467C587.863 305.437 587.721 308.18 587.864 310.507C587.551 313.392 587.286 316.29 586.825 319.156C591.286 318.974 598.664 319.573 601.963 316.169C602.841 315.262 603.337 314.018 603.836 312.878L604.279 313.039C604.774 312.388 604.818 312.126 604.894 311.292C605.084 309.222 605.246 306.835 606.442 305.086L606.5 305.75L607.214 305.409C608.709 308.651 608.9 312.201 610.592 315.35C615.415 314.637 621.72 310.863 626.076 308.669C626.744 307.093 625.162 305.901 625.953 304.153L627.183 304.554L627.562 304.27C627.211 303.203 626.674 303.05 625.807 302.379C625.773 301.014 626.212 300.649 626.888 299.523C628.182 301.561 630.24 304.042 632.27 305.381C635.904 307.778 638.391 301.801 641.851 301.41C642.769 301.306 643.046 301.318 643.831 300.905C643.215 300.386 643.048 300.442 642.894 299.613C645.648 297.499 648.309 294.574 651.279 292.884C652.378 292.259 652.742 291.828 653.377 290.74C655.313 288.179 657.123 285.587 658.865 282.891L659.227 283.394L659.722 282.883C659.71 281.173 659.756 279.953 660.398 278.358C661.467 277.907 662.497 277.559 663.282 276.663C663.416 276.51 663.518 276.332 663.636 276.166C665.507 272.914 666.823 269.295 668.257 265.832L668.977 263.601L667.346 262.68L667.222 261.904C665.69 260.195 663.287 259.242 661.274 258.183C663.119 257.817 665.267 257.783 666.986 257.003C665.99 256.666 665.084 256.466 664.043 256.32C654.905 254.573 646.903 251.682 638.523 247.739C636.505 246.621 634.544 245.4 632.571 244.205C633.883 240.603 633.929 236.433 635.29 232.99C635.894 231.459 636.216 231.53 637.682 230.958L635.497 230.521C634.447 228.619 634.474 225.271 634.219 223.117L638.079 220.607C646.052 216.122 654.178 211.844 662.711 208.521L662.583 207.735C660.919 206.741 659.036 208.044 657.043 207.851L656.612 206.989C657.758 205.224 659.873 203.336 660.524 201.38C660.781 200.61 660.484 200.527 660.092 199.912C658.823 199.574 657.9 199.556 656.608 199.607L655.331 198.731C655.206 197.969 654.756 197.166 654.455 196.45C656.417 197.667 656.951 198.097 659.291 198.058C661.036 198.03 661.642 197.758 662.831 196.49C663.757 192.259 657.387 189.827 656.549 185.598C654.443 183.933 652.359 182.576 650.036 181.249C628.703 169.115 612.126 158.556 586.573 165.64Q585.339 165.977 584.124 166.374Q582.908 166.771 581.714 167.227Q580.519 167.684 579.349 168.199Q578.178 168.714 577.035 169.286Q575.891 169.858 574.777 170.486Q573.664 171.114 572.582 171.796Q571.5 172.479 570.454 173.213Q569.407 173.948 568.398 174.734Q567.389 175.519 566.421 176.354Q565.452 177.188 564.525 178.07Q563.599 178.951 562.717 179.877Q561.835 180.803 561 181.772Q560.165 182.74 559.378 183.748Q558.592 184.757 557.857 185.803Q557.121 186.849 556.439 187.93Q555.756 189.011 555.127 190.125C548.435 201.953 547.015 216.836 550.797 229.848C553.849 240.349 559.51 247.529 567.743 254.45ZM564.347 344.681C543.52 347.268 526.359 357.519 513.386 374.09Q512.281 375.521 511.247 377.005Q510.212 378.489 509.252 380.021Q508.292 381.554 507.407 383.131Q506.523 384.708 505.716 386.327Q504.91 387.946 504.183 389.602Q503.457 391.258 502.812 392.948Q502.168 394.638 501.606 396.357Q501.045 398.076 500.568 399.821Q500.092 401.565 499.701 403.331Q499.31 405.097 499.005 406.879Q498.701 408.662 498.484 410.458Q498.267 412.253 498.138 414.057Q498.009 415.861 497.968 417.669Q497.928 419.477 497.975 421.285Q498.023 423.093 498.159 424.896Q498.294 426.699 498.518 428.494C499.729 438.013 503.763 449.857 511.487 456.1C513.044 457.359 514.825 458.536 516.678 459.29L516.7 458.712L516.158 458.747L516.397 458.309L515.931 458.495C516.119 454.731 510.134 448.061 508.364 444.295C498.361 423.014 506.515 397.11 522.857 381.419C538.837 365.904 557.467 357.629 579.929 357.986C599.007 358.288 620.718 364.875 635.69 376.98C640.64 380.982 644.631 385.918 649.345 390.143C639.496 370.19 617.29 355.929 596.782 348.964C587.028 345.651 574.672 343.148 564.347 344.681ZM686.384 100.855C685.763 102.837 685.196 103.462 683.667 104.808C682.35 105.967 681.441 106.754 680.816 108.417L681.127 110.445L681.246 110.531C684.063 112.745 686.99 114.899 689.598 117.356C687.411 120.656 685.187 123.936 683.038 127.26L681.069 130.496L680.758 131.133L680.779 132.12C680.798 133.427 680.65 134.69 680.484 135.984C682.073 136.339 683.759 135.857 685.358 135.587Q691.696 130.135 697.935 124.57L707.412 134.169C705.097 136.984 702.461 139.799 700.485 142.852C699.373 143.927 698.313 144.989 697.323 146.179L696.252 147.651C696.178 150.37 693.895 152.633 692.237 154.629C695.032 152.972 697.392 151.191 700.784 151.396L701.253 151.727C705.762 148.95 710.016 145.772 714.313 142.683L721.716 152.297C717.605 157.423 713.282 161.929 708.344 166.255L708.605 167.03C707.541 168.63 706.281 169.882 704.918 171.228C708.627 170.594 712.854 168.886 716.491 168.744C719.992 167.427 723.265 165.13 726.41 163.116C727.465 165.063 728.446 167.406 729.82 169.125L730.411 169.021C731.455 170.463 733.253 172.527 733.06 174.449C732.764 177.401 728.111 180.024 725.863 181.637L727.469 182.224L727.867 183.22C726.965 185.076 725.082 185.718 723.841 187.288C724.027 187.231 724.213 187.176 724.398 187.116C726.939 186.297 728.728 185.039 730.634 183.212C730.822 183.962 730.77 184.172 730.611 184.903C730.858 184.787 731.1 184.66 731.352 184.556C732.407 184.12 733.081 183.915 734.207 184.23C734.987 186.543 735.537 193.554 736.87 194.918L737.764 192.266C738.392 193.191 738.462 194.156 738.243 195.236C737.336 199.715 732.535 203.129 728.837 205.249L728.039 205.698L727.463 206.686C727.799 207.757 727.681 207.799 728.597 208.574C730.886 208.041 733.165 203.854 735.491 205.932C735.8 206.209 736.177 206.857 736.403 207.219L737.258 207.63C737.68 209.914 737.959 212.168 738.19 214.476L737.625 216.083L737.89 215.976C739.82 217.521 740.692 219.593 741.804 221.744L744.308 219.783L745.219 219.98L746.786 222.583C747.577 220.649 749.626 218.535 750 216.578C750.447 214.238 749.077 212.75 747.82 210.945C747.87 210.563 747.92 210.069 748.035 209.71C748.484 208.308 748.953 208.175 750.162 207.449L749.234 206.532C748.466 205.829 747.915 205.353 747.519 204.363C746.409 201.582 746.668 193.455 746.34 190.157Q745.763 184.886 744.765 179.679C739.181 150.528 715.216 120.788 691.164 104.236C689.806 102.899 687.976 101.899 686.384 100.855ZM569.282 255.412C567.239 257.618 565.41 260.109 563.535 262.462C560.222 267.776 558.435 275.097 555.592 279.273L554.082 279.123C551.951 280.48 541.434 296.456 540.299 299.549C539.413 300.971 538.528 301.881 538.497 303.576C540.167 304.259 541.943 303.658 543.666 303.255C542.829 304.992 542.093 306.709 540.793 308.16L543.666 309.602C547.302 311.264 550.879 312.906 554.703 314.098C560.963 307.098 563.45 301.276 567.287 292.969L567.458 293.003C567.768 293.862 568 294.346 568.529 295.118L569.811 294.86L570.297 295.234C569.667 300.623 564.528 311.416 562.011 316.78C564.664 317.582 567.323 318.384 570.022 319.02C572.871 319.691 576.233 320.114 578.804 318.365C583.041 315.482 584.059 307.888 585.057 303.245C585.583 299.013 586.077 294.443 587.715 290.468C588.592 288.34 588.556 287.274 588.124 285.043L587.402 285.892C585.696 282.1 589.822 269.497 586.482 264.407C585.286 262.585 583.411 262.43 581.425 262.009C578.996 267.437 577.303 272.97 575.609 278.656C574.512 282.338 573.71 286.667 571.826 289.989C570.915 289.304 570.267 289.429 569.148 289.546C568.931 289.569 568.715 289.599 568.498 289.626C571.278 282.359 573.46 274.779 576.154 267.453C574.943 266.15 575.054 265.229 574.781 263.5C574.772 263.441 574.755 263.382 574.753 263.321C574.722 262.215 574.722 261.148 574.613 260.043C573.444 257.888 571.27 256.747 569.282 255.412ZM663.636 276.166C663.518 276.332 663.416 276.51 663.282 276.663C662.497 277.559 661.467 277.907 660.398 278.358C659.756 279.953 659.71 281.173 659.722 282.883L659.227 283.394L658.865 282.891C657.123 285.587 655.313 288.179 653.377 290.74C652.742 291.828 652.378 292.259 651.279 292.884C648.309 294.574 645.648 297.499 642.894 299.613C643.048 300.442 643.215 300.386 643.831 300.905C643.046 301.318 642.769 301.306 641.851 301.41C638.391 301.801 635.904 307.778 632.27 305.381C630.24 304.042 628.182 301.561 626.888 299.523C626.212 300.649 625.773 301.014 625.807 302.379C626.674 303.05 627.211 303.203 627.562 304.27L627.183 304.554L625.953 304.153C625.162 305.901 626.744 307.093 626.076 308.669C621.72 310.863 615.415 314.637 610.592 315.35C608.9 312.201 608.709 308.651 607.214 305.409L606.5 305.75L606.442 305.086C605.246 306.835 605.084 309.222 604.894 311.292C604.818 312.126 604.774 312.388 604.279 313.039L603.836 312.878C603.337 314.018 602.841 315.262 601.963 316.169C598.664 319.573 591.286 318.974 586.825 319.156C587.286 316.29 587.551 313.392 587.864 310.507C587.721 308.18 587.863 305.437 586.459 303.467L585.057 303.245C584.059 307.888 583.041 315.482 578.804 318.365C576.233 320.114 572.871 319.691 570.022 319.02C567.323 318.384 564.664 317.582 562.011 316.78C564.528 311.416 569.667 300.623 570.297 295.234L569.811 294.86L568.529 295.118C568 294.346 567.768 293.862 567.458 293.003L567.287 292.969C563.45 301.276 560.963 307.098 554.703 314.098C550.879 312.906 547.302 311.264 543.666 309.602C543.854 311.004 543.936 311.611 544.882 312.737C546.343 313.513 547.62 313.665 549.251 313.856C550.888 314.318 552.572 314.726 553.375 316.41C553.912 317.535 553.92 318.753 553.385 319.88C552.879 320.943 551.691 322.097 550.559 322.494C549.6 322.83 548.384 322.64 547.39 322.551L547.482 323.03Q553.369 325.353 559.501 326.921Q565.632 328.489 571.912 329.276C590.964 331.557 609.882 328.154 627.265 320.179C631.13 318.406 635.31 316.563 638.653 313.918C648.62 308.944 660.755 298.616 666.801 289.219C669.561 287.182 672.513 281.16 673.921 277.997C672.647 277.607 671.933 276.126 670.486 276.112C667.162 276.079 667.728 277.498 663.636 276.166ZM656.549 185.598C657.387 189.827 663.757 192.259 662.831 196.49C661.642 197.758 661.036 198.03 659.291 198.058C656.951 198.097 656.417 197.667 654.455 196.45C654.756 197.166 655.206 197.969 655.331 198.731L656.608 199.607C657.9 199.556 658.823 199.574 660.092 199.912C660.484 200.527 660.781 200.61 660.524 201.38C659.873 203.336 657.758 205.224 656.612 206.989L657.043 207.851C659.036 208.044 660.919 206.741 662.583 207.735L662.711 208.521C663.937 210.635 667.724 216.533 667.104 218.871C666.938 219.496 667.05 219.276 666.827 219.629C666.948 221.994 668.37 222.486 668.871 224.613C670.68 228.452 670.92 232.251 671.225 236.402C670.252 237.341 670.019 237.43 668.701 237.763L667.311 240.293C664.874 240.33 662.538 240.29 660.16 240.899L659.671 241.543C660.702 242.309 661.675 242.462 662.901 242.706L662.564 243.447C665.664 243.771 668.701 244.02 671.819 244.06C671.44 247.986 671.015 251.88 670.419 255.779L664.043 256.32C665.084 256.466 665.99 256.666 666.986 257.003C665.267 257.783 663.119 257.817 661.274 258.183C663.287 259.242 665.69 260.195 667.222 261.904L667.346 262.68L668.977 263.601C669.577 263.739 670.167 263.9 670.789 263.919C672.204 263.96 673.526 262.291 674.45 261.37C675.246 260.45 675.89 259.436 677.143 259.178C677.986 259.705 678.681 260.193 679.386 260.897L680.277 261.02L680.431 260.504L680.787 258.572L681.332 254.973C682.313 247.511 682.698 240.338 681.853 232.835C679.798 214.594 671 197.11 656.549 185.598ZM688.107 279.255C683.65 284.915 680.524 291.881 678.987 298.914C676.948 308.247 678.037 318.963 683.432 327.032C688.654 334.843 696.046 338.172 705.026 339.811C708.112 340.264 710.987 340.503 714.081 339.806C719.002 339.12 723.105 336.755 727.219 334.139C719.718 333.838 711.704 334.061 704.523 331.586C697.175 329.053 691.651 323.773 688.322 316.837C682.273 304.231 683.694 291.99 688.107 279.255ZM533.542 304.616L532.439 306.154C530.855 308.588 527.772 309.574 525.916 311.858C531.179 316.131 538.382 319.242 544.611 321.888L547.482 323.03L547.39 322.551C548.384 322.64 549.6 322.83 550.559 322.494C551.691 322.097 552.879 320.943 553.385 319.88C553.92 318.753 553.912 317.535 553.375 316.41C552.572 314.726 550.888 314.318 549.251 313.856C547.62 313.665 546.343 313.513 544.882 312.737C543.936 311.611 543.854 311.004 543.666 309.602L540.793 308.16C542.093 306.709 542.829 304.992 543.666 303.255C541.943 303.658 540.167 304.259 538.497 303.576C538.528 301.881 539.413 300.971 540.299 299.549L539.407 299.422C537.566 301.176 535.689 303.272 533.542 304.616ZM729.82 169.125L732.493 174.827C721.388 183.921 710.157 190.54 696.982 196.267C709.928 193.826 721.749 190.156 733.687 184.589C734.612 189.003 735.485 193.435 736.546 197.818C725.726 205.999 714.514 211.514 701.617 215.618C713.206 215.055 725.878 212.174 736.403 207.219C736.177 206.857 735.8 206.209 735.491 205.932C733.165 203.854 730.886 208.041 728.597 208.574C727.681 207.799 727.799 207.757 727.463 206.686L728.039 205.698L728.837 205.249C732.535 203.129 737.336 199.715 738.243 195.236C738.462 194.156 738.392 193.191 737.764 192.266L736.87 194.918C735.537 193.554 734.987 186.543 734.207 184.23C733.081 183.915 732.407 184.12 731.352 184.556C731.1 184.66 730.858 184.787 730.611 184.903C730.77 184.172 730.822 183.962 730.634 183.212C728.728 185.039 726.939 186.297 724.398 187.116C724.213 187.176 724.027 187.231 723.841 187.288C725.082 185.718 726.965 185.076 727.867 183.22L727.469 182.224L725.863 181.637C728.111 180.024 732.764 177.401 733.06 174.449C733.253 172.527 731.455 170.463 730.411 169.021L729.82 169.125ZM678.893 96.3682C678.659 96.4479 678.427 96.5332 678.192 96.6073C671.244 98.7939 671.77 93.2955 665.802 101.989C666.544 102.742 667.123 102.902 667.097 104.013C667.057 105.751 665.867 107.857 665.184 109.445C667.834 110.279 669.664 112.835 671.999 114.373C672.591 114.763 672.821 114.918 672.907 115.589C673.705 115.023 674.484 113.856 675.144 113.102C676.128 112.018 677.249 110.523 678.61 109.93C679.465 109.558 680.304 110.151 681.127 110.445L680.816 108.417C681.441 106.754 682.35 105.967 683.667 104.808C685.196 103.462 685.763 102.837 686.384 100.855C685.043 99.8221 683.523 98.9939 682.07 98.1234C681.02 97.3614 680.071 96.8833 678.893 96.3682ZM674.45 261.37C673.526 262.291 672.204 263.96 670.789 263.919C670.167 263.9 669.577 263.739 668.977 263.601L668.257 265.832C666.823 269.295 665.507 272.914 663.636 276.166C667.728 277.498 667.162 276.079 670.486 276.112C671.933 276.126 672.647 277.607 673.921 277.997L674.438 277.169C677.08 271.897 678.819 266.729 680.277 261.02L679.386 260.897C678.681 260.193 677.986 259.705 677.143 259.178C675.89 259.436 675.246 260.45 674.45 261.37ZM741.163 250.954C740.502 252.133 740.32 252.324 740.404 253.651C743.732 256.758 748.795 258.114 752.262 261.147C754.697 263.278 756.163 266.699 758.452 269.024C759.249 269.834 759.316 269.994 760.484 270.026C761.408 268.306 761.205 266.381 760.869 264.494C760.034 259.8 756.882 255.763 752.902 253.254C749.403 251.049 745.215 249.969 741.163 250.954ZM736.665 265.035C739.213 276.499 744.319 276.524 751.807 283.666C750.91 278.033 750.39 271.343 745.298 267.786C742.676 265.954 739.736 265.559 736.665 265.035ZM665.184 109.445L665.056 109.873C663.81 113.934 658.606 123.52 660.249 127.303C660.614 128.143 661.104 128.094 661.896 128.414C664.825 127.56 670.404 118.344 672.907 115.589C672.821 114.918 672.591 114.763 671.999 114.373C669.664 112.835 667.834 110.279 665.184 109.445ZM478.972 493.431C486.255 500.431 498.437 504.228 508.415 504.073C510.752 504.036 513.319 503.985 515.54 503.233C512.744 501.315 498.531 500.289 494.027 499.119C488.826 497.768 484.087 494.798 478.972 493.431ZM737.625 216.083C737.504 216.234 737.387 216.386 737.264 216.534C734.421 219.952 727.741 223.383 726.428 227.456L726.912 227.985C732.223 227.789 737.5 224.608 741.804 221.744C740.692 219.593 739.82 217.521 737.89 215.976L737.625 216.083ZM726.951 276.481C728.191 279.415 729.918 282.621 733.026 283.886C734.586 284.521 735.873 284.142 737.384 283.569L737.138 282.346C733.958 280.334 730.506 277.708 726.951 276.481ZM515.98 227.751C513.405 228.303 510.75 228.766 508.213 229.462C509.246 230.602 509.448 231.335 509.949 232.729C509.97 232.787 510.009 232.838 510.039 232.892L517.223 230.206L515.98 227.751ZM503.344 231.032C503.852 232.337 503.77 232.674 504.984 233.325L506.806 233.242L507.534 234.102C508.377 233.845 509.246 233.29 510.039 232.892C510.009 232.838 509.97 232.787 509.949 232.729C509.448 231.335 509.246 230.602 508.213 229.462L503.344 231.032Z"/>
	<path fill="#FEFEFE" d="M732.734 251.165C735.403 250.679 738.293 250.001 741.002 250.267L741.163 250.954C740.502 252.133 740.32 252.324 740.404 253.651L740.274 254.142C737.781 253.793 735.045 252.185 732.734 251.165Z"/>
	<path fill="#FEFEFE" fill-opacity="0.070588239" d="M503.344 231.032L508.213 229.462C509.246 230.602 509.448 231.335 509.949 232.729C509.97 232.787 510.009 232.838 510.039 232.892C509.246 233.29 508.377 233.845 507.534 234.102L506.806 233.242L504.984 233.325C503.77 232.674 503.852 232.337 503.344 231.032Z"/>
	<path fill="#FEFEFE" d="M806.222 451.035C806.939 449.944 807.851 449.331 808.889 448.581C809.421 451.825 810.645 455.518 810.453 458.784C809.6 459.254 809.598 459.038 809.286 460.044C809.215 459.803 809.149 459.561 809.074 459.321C808.202 456.499 807.33 453.775 806.222 451.035Z"/>
	<path fill="#FEFEFE" fill-opacity="0.0078431377" d="M515.98 227.751L517.223 230.206L510.039 232.892C510.009 232.838 509.97 232.787 509.949 232.729C509.448 231.335 509.246 230.602 508.213 229.462C510.75 228.766 513.405 228.303 515.98 227.751Z"/>
	<path fill="#FEFEFE" d="M562.472 261.691L563.535 262.462C560.222 267.776 558.435 275.097 555.592 279.273L554.082 279.123C553.569 278.69 553.857 278.984 553.328 278.143C555.557 272.418 559.254 266.928 562.472 261.691Z"/>
	<path fill="#FEFEFE" d="M515.98 227.751C520.777 226.801 534.243 224.81 538.577 226.428C531.501 227.928 524.339 228.574 517.223 230.206L515.98 227.751Z"/>
	<path fill="#FEFEFE" d="M632.837 145.951C634.727 137.818 637.712 129.792 639.752 121.648L640.878 122.743L641.88 123.786C642.655 125.935 634.38 142.652 632.837 145.951Z"/>
	<path fill="#FEFEFE" d="M604.356 119.305C604.876 128.049 603.935 138.35 602.482 147C602.04 143.2 600.734 124.142 601.387 121.43C602.758 121.042 603.355 120.267 604.356 119.305Z"/>
	<path d="M676.017 433.248C682.192 434.154 689.662 435.157 695.505 437.285C688.999 437.107 681.438 439.999 675.268 438.858L675.289 438.448C676.697 438.094 678.033 437.868 679.079 436.822C677.522 435.712 676.842 434.984 676.017 433.248Z"/>
	<path fill="#FEFEFE" d="M680.758 131.133L680.779 132.12C680.798 133.427 680.65 134.69 680.484 135.984C682.073 136.339 683.759 135.857 685.358 135.587C678.761 141.673 672.775 148.883 665.674 154.311C670.191 146.377 675.812 138.834 680.758 131.133Z"/>
	<path fill="#FEFEFE" d="M696.252 147.651C696.178 150.37 693.895 152.633 692.237 154.629C695.032 152.972 697.392 151.191 700.784 151.396L701.253 151.727C692.858 157.853 683.377 164.738 674.12 169.374C682.081 162.672 689.195 155.277 696.252 147.651Z"/>
	<path fill="#FEFEFE" d="M561.538 248.208C556.496 253.884 550.53 258.789 545.399 264.442C543.051 267.029 539.176 272.787 536.666 274.4L533.917 273.233C539.891 264.404 552.278 253.311 561.538 248.208Z"/>
	<path fill="#FEFEFE" d="M708.344 166.255L708.605 167.03C707.541 168.63 706.281 169.882 704.918 171.228C708.627 170.594 712.854 168.886 716.491 168.744C708.585 173.922 692.801 179.589 683.689 182.806C692.093 177.502 700.395 172.228 708.344 166.255Z"/>
	<defs>
		<linearGradient id="gradient_1" gradientUnits="userSpaceOnUse" x1="670.23059" y1="272.92175" x2="674.08752" y2="264.80402">
			<stop offset="0" stop-color="white" stop-opacity="0.46666667"/>
			<stop offset="1" stop-color="white" stop-opacity="0.58039218"/>
		</linearGradient>
	</defs>
	<path fill="url(#gradient_1)" d="M674.45 261.37C675.246 260.45 675.89 259.436 677.143 259.178C677.986 259.705 678.681 260.193 679.386 260.897L680.277 261.02C678.819 266.729 677.08 271.897 674.438 277.169L673.921 277.997C672.647 277.607 671.933 276.126 670.486 276.112C667.162 276.079 667.728 277.498 663.636 276.166C665.507 272.914 666.823 269.295 668.257 265.832L668.977 263.601C669.577 263.739 670.167 263.9 670.789 263.919C672.204 263.96 673.526 262.291 674.45 261.37ZM668.257 265.832C666.823 269.295 665.507 272.914 663.636 276.166C667.728 277.498 667.162 276.079 670.486 276.112C671.933 276.126 672.647 277.607 673.921 277.997L674.438 277.169C673.936 276.921 673.429 276.548 672.985 276.195C670.791 274.449 669.526 271.201 669.245 268.484C669.128 267.349 668.932 266.798 668.257 265.832Z"/>
	<path fill="#FEFEFE" fill-opacity="0.62352943" d="M668.257 265.832C668.932 266.798 669.128 267.349 669.245 268.484C669.526 271.201 670.791 274.449 672.985 276.195C673.429 276.548 673.936 276.921 674.438 277.169L673.921 277.997C672.647 277.607 671.933 276.126 670.486 276.112C667.162 276.079 667.728 277.498 663.636 276.166C665.507 272.914 666.823 269.295 668.257 265.832Z"/>
	<defs>
		<linearGradient id="gradient_2" gradientUnits="userSpaceOnUse" x1="671.77863" y1="107.20378" x2="669.09644" y2="100.15353">
			<stop offset="0" stop-color="white" stop-opacity="0.52156866"/>
			<stop offset="1" stop-color="white" stop-opacity="0.5529412"/>
		</linearGradient>
	</defs>
	<path fill="url(#gradient_2)" d="M678.893 96.3682C680.071 96.8833 681.02 97.3614 682.07 98.1234C683.523 98.9939 685.043 99.8221 686.384 100.855C685.763 102.837 685.196 103.462 683.667 104.808C682.35 105.967 681.441 106.754 680.816 108.417L681.127 110.445C680.304 110.151 679.465 109.558 678.61 109.93C677.249 110.523 676.128 112.018 675.144 113.102C674.484 113.856 673.705 115.023 672.907 115.589C672.821 114.918 672.591 114.763 671.999 114.373C669.664 112.835 667.834 110.279 665.184 109.445C665.867 107.857 667.057 105.751 667.097 104.013C667.123 102.902 666.544 102.742 665.802 101.989C671.77 93.2955 671.244 98.7939 678.192 96.6073C678.427 96.5332 678.659 96.4479 678.893 96.3682ZM682.07 98.1234C681.91 98.3021 681.754 98.4856 681.588 98.6594C679.385 100.97 673.722 100.903 673.652 105.077C673.607 107.825 675.434 109.624 675.144 113.102C676.128 112.018 677.249 110.523 678.61 109.93C679.465 109.558 680.304 110.151 681.127 110.445L680.816 108.417C681.441 106.754 682.35 105.967 683.667 104.808C685.196 103.462 685.763 102.837 686.384 100.855C685.043 99.8221 683.523 98.9939 682.07 98.1234Z"/>
	<defs>
		<linearGradient id="gradient_3" gradientUnits="userSpaceOnUse" x1="683.40277" y1="101.06292" x2="674.8476" y2="107.18457">
			<stop offset="0" stop-color="white" stop-opacity="0.58431375"/>
			<stop offset="1" stop-color="white" stop-opacity="0.67058825"/>
		</linearGradient>
	</defs>
	<path fill="url(#gradient_3)" d="M682.07 98.1234C683.523 98.9939 685.043 99.8221 686.384 100.855C685.763 102.837 685.196 103.462 683.667 104.808C682.35 105.967 681.441 106.754 680.816 108.417L681.127 110.445C680.304 110.151 679.465 109.558 678.61 109.93C677.249 110.523 676.128 112.018 675.144 113.102C675.434 109.624 673.607 107.825 673.652 105.077C673.722 100.903 679.385 100.97 681.588 98.6594C681.754 98.4856 681.91 98.3021 682.07 98.1234Z"/>
	<path fill="#FEFEFE" fill-opacity="0.98823529" d="M729.82 169.125L730.411 169.021C731.455 170.463 733.253 172.527 733.06 174.449C732.764 177.401 728.111 180.024 725.863 181.637L727.469 182.224L727.867 183.22C726.965 185.076 725.082 185.718 723.841 187.288C724.027 187.231 724.213 187.176 724.398 187.116C726.939 186.297 728.728 185.039 730.634 183.212C730.822 183.962 730.77 184.172 730.611 184.903C730.858 184.787 731.1 184.66 731.352 184.556C732.407 184.12 733.081 183.915 734.207 184.23C734.987 186.543 735.537 193.554 736.87 194.918L737.764 192.266C738.392 193.191 738.462 194.156 738.243 195.236C737.336 199.715 732.535 203.129 728.837 205.249L728.039 205.698L727.463 206.686C727.799 207.757 727.681 207.799 728.597 208.574C730.886 208.041 733.165 203.854 735.491 205.932C735.8 206.209 736.177 206.857 736.403 207.219C725.878 212.174 713.206 215.055 701.617 215.618C714.514 211.514 725.726 205.999 736.546 197.818C735.485 193.435 734.612 189.003 733.687 184.589C721.749 190.156 709.928 193.826 696.982 196.267C710.157 190.54 721.388 183.921 732.493 174.827L729.82 169.125ZM725.863 181.637L725.437 182.038C723.766 183.588 720.747 184.965 719.593 186.748L719.673 187.522C721.002 187.911 722.135 188.108 723.445 187.507C723.582 187.444 723.709 187.361 723.841 187.288C725.082 185.718 726.965 185.076 727.867 183.22L727.469 182.224L725.863 181.637Z"/>
	<path fill="#FEFEFE" fill-opacity="0.84313726" d="M725.863 181.637L727.469 182.224L727.867 183.22C726.965 185.076 725.082 185.718 723.841 187.288C723.709 187.361 723.582 187.444 723.445 187.507C722.135 188.108 721.002 187.911 719.673 187.522L719.593 186.748C720.747 184.965 723.766 183.588 725.437 182.038L725.863 181.637Z"/>
	<defs>
		<linearGradient id="gradient_4" gradientUnits="userSpaceOnUse" x1="535.50989" y1="315.66257" x2="536.64844" y2="313.54263">
			<stop offset="0" stop-color="white" stop-opacity="0.75294119"/>
			<stop offset="1" stop-color="white" stop-opacity="0.80000001"/>
		</linearGradient>
	</defs>
	<path fill="url(#gradient_4)" d="M533.542 304.616C535.689 303.272 537.566 301.176 539.407 299.422L540.299 299.549C539.413 300.971 538.528 301.881 538.497 303.576C540.167 304.259 541.943 303.658 543.666 303.255C542.829 304.992 542.093 306.709 540.793 308.16L543.666 309.602C543.854 311.004 543.936 311.611 544.882 312.737C546.343 313.513 547.62 313.665 549.251 313.856C550.888 314.318 552.572 314.726 553.375 316.41C553.912 317.535 553.92 318.753 553.385 319.88C552.879 320.943 551.691 322.097 550.559 322.494C549.6 322.83 548.384 322.64 547.39 322.551L547.482 323.03L544.611 321.888C538.382 319.242 531.179 316.131 525.916 311.858C527.772 309.574 530.855 308.588 532.439 306.154L533.542 304.616ZM533.542 304.616L532.439 306.154C532.633 306.208 532.826 306.265 533.02 306.316C534.842 306.799 532.812 306.296 534.356 306.54C535.129 306.661 536.498 307.447 536.98 308.081C537.141 308.293 537.238 308.547 537.367 308.78C536.688 309.645 536.197 310.083 535.227 310.604L536.33 312.905L538.635 312.102C539.566 310.947 539.801 310.302 539.981 308.823C539.998 308.678 540.012 308.532 540.027 308.387L540.793 308.16C542.093 306.709 542.829 304.992 543.666 303.255C541.943 303.658 540.167 304.259 538.497 303.576C538.528 301.881 539.413 300.971 540.299 299.549L539.407 299.422C537.566 301.176 535.689 303.272 533.542 304.616ZM544.611 321.888L547.482 323.03L547.39 322.551C547.844 322.347 548.431 322.109 548.829 321.814C550.073 320.893 550.129 317.144 550.311 315.697C547.201 316.223 543.939 316.203 540.894 316.965L540.919 317.633C542.191 318.593 543.6 319.493 544.258 321.001C544.385 321.293 544.493 321.592 544.611 321.888ZM536.33 312.905L537.132 313.195C537.941 313.492 538.618 313.862 539.373 314.271C542.789 316.125 545.776 313.67 549.251 313.856C547.62 313.665 546.343 313.513 544.882 312.737C543.936 311.611 543.854 311.004 543.666 309.602L540.793 308.16L540.027 308.387C540.012 308.532 539.998 308.678 539.981 308.823C539.801 310.302 539.566 310.947 538.635 312.102L536.33 312.905Z"/>
	<defs>
		<linearGradient id="gradient_5" gradientUnits="userSpaceOnUse" x1="539.17957" y1="313.00433" x2="542.88745" y2="311.68399">
			<stop offset="0" stop-color="white" stop-opacity="0.84313726"/>
			<stop offset="1" stop-color="white" stop-opacity="0.87843138"/>
		</linearGradient>
	</defs>
	<path fill="url(#gradient_5)" d="M536.33 312.905L538.635 312.102C539.566 310.947 539.801 310.302 539.981 308.823C539.998 308.678 540.012 308.532 540.027 308.387L540.793 308.16L543.666 309.602C543.854 311.004 543.936 311.611 544.882 312.737C546.343 313.513 547.62 313.665 549.251 313.856C545.776 313.67 542.789 316.125 539.373 314.271C538.618 313.862 537.941 313.492 537.132 313.195L536.33 312.905Z"/>
	<path fill="#FEFEFE" fill-opacity="0.70588237" d="M544.611 321.888C544.493 321.592 544.385 321.293 544.258 321.001C543.6 319.493 542.191 318.593 540.919 317.633L540.894 316.965C543.939 316.203 547.201 316.223 550.311 315.697C550.129 317.144 550.073 320.893 548.829 321.814C548.431 322.109 547.844 322.347 547.39 322.551L547.482 323.03L544.611 321.888Z"/>
	<path fill="#FEFEFE" fill-opacity="0.89411765" d="M533.542 304.616C535.689 303.272 537.566 301.176 539.407 299.422L540.299 299.549C539.413 300.971 538.528 301.881 538.497 303.576C540.167 304.259 541.943 303.658 543.666 303.255C542.829 304.992 542.093 306.709 540.793 308.16L540.027 308.387C540.012 308.532 539.998 308.678 539.981 308.823C539.801 310.302 539.566 310.947 538.635 312.102L536.33 312.905L535.227 310.604C536.197 310.083 536.688 309.645 537.367 308.78C537.238 308.547 537.141 308.293 536.98 308.081C536.498 307.447 535.129 306.661 534.356 306.54C532.812 306.296 534.842 306.799 533.02 306.316C532.826 306.265 532.633 306.208 532.439 306.154L533.542 304.616Z"/>
	<defs>
		<linearGradient id="gradient_6" gradientUnits="userSpaceOnUse" x1="671.60864" y1="206.84419" x2="661.78192" y2="213.79408">
			<stop offset="0" stop-color="white" stop-opacity="0.84313726"/>
			<stop offset="1" stop-color="white" stop-opacity="0.90980393"/>
		</linearGradient>
	</defs>
	<path fill="url(#gradient_6)" d="M656.549 185.598C671 197.11 679.798 214.594 681.853 232.835C682.698 240.338 682.313 247.511 681.332 254.973L680.787 258.572L680.431 260.504L680.277 261.02L679.386 260.897C678.681 260.193 677.986 259.705 677.143 259.178C675.89 259.436 675.246 260.45 674.45 261.37C673.526 262.291 672.204 263.96 670.789 263.919C670.167 263.9 669.577 263.739 668.977 263.601L667.346 262.68L667.222 261.904C665.69 260.195 663.287 259.242 661.274 258.183C663.119 257.817 665.267 257.783 666.986 257.003C665.99 256.666 665.084 256.466 664.043 256.32L670.419 255.779C671.015 251.88 671.44 247.986 671.819 244.06C668.701 244.02 665.664 243.771 662.564 243.447L662.901 242.706C661.675 242.462 660.702 242.309 659.671 241.543L660.16 240.899C662.538 240.29 664.874 240.33 667.311 240.293L668.701 237.763C670.019 237.43 670.252 237.341 671.225 236.402C670.92 232.251 670.68 228.452 668.871 224.613C668.37 222.486 666.948 221.994 666.827 219.629C667.05 219.276 666.938 219.496 667.104 218.871C667.724 216.533 663.937 210.635 662.711 208.521L662.583 207.735C660.919 206.741 659.036 208.044 657.043 207.851L656.612 206.989C657.758 205.224 659.873 203.336 660.524 201.38C660.781 200.61 660.484 200.527 660.092 199.912C658.823 199.574 657.9 199.556 656.608 199.607L655.331 198.731C655.206 197.969 654.756 197.166 654.455 196.45C656.417 197.667 656.951 198.097 659.291 198.058C661.036 198.03 661.642 197.758 662.831 196.49C663.757 192.259 657.387 189.827 656.549 185.598ZM671.784 237.248L671.225 236.402C670.252 237.341 670.019 237.43 668.701 237.763L667.311 240.293C664.874 240.33 662.538 240.29 660.16 240.899L659.671 241.543C660.702 242.309 661.675 242.462 662.901 242.706L662.564 243.447C665.664 243.771 668.701 244.02 671.819 244.06C671.44 247.986 671.015 251.88 670.419 255.779L664.043 256.32C665.084 256.466 665.99 256.666 666.986 257.003C665.267 257.783 663.119 257.817 661.274 258.183C663.287 259.242 665.69 260.195 667.222 261.904L667.346 262.68L668.977 263.601C669.577 263.739 670.167 263.9 670.789 263.919C672.204 263.96 673.526 262.291 674.45 261.37C675.246 260.45 675.89 259.436 677.143 259.178C677.986 259.705 678.681 260.193 679.386 260.897L680.277 261.02L680.431 260.504L680.787 258.572L681.332 254.973C679.984 252.516 680.936 247.082 680.737 244.116C680.474 240.208 678.767 225.052 677.598 222.321C677.191 221.372 677.189 221.257 676.195 220.886C676.045 221.023 675.874 221.141 675.743 221.297C673.85 223.553 672.738 230.267 672.989 233.021C673.059 233.787 673.18 234.498 673.075 235.266C672.914 236.448 672.666 236.54 671.784 237.248Z"/>
	<defs>
		<linearGradient id="gradient_7" gradientUnits="userSpaceOnUse" x1="680.55334" y1="230.51411" x2="668.52411" y2="235.38312">
			<stop offset="0" stop-color="white" stop-opacity="0.76078433"/>
			<stop offset="1" stop-color="white" stop-opacity="0.90196079"/>
		</linearGradient>
	</defs>
	<path fill="url(#gradient_7)" d="M671.784 237.248C672.666 236.54 672.914 236.448 673.075 235.266C673.18 234.498 673.059 233.787 672.989 233.021C672.738 230.267 673.85 223.553 675.743 221.297C675.874 221.141 676.045 221.023 676.195 220.886C677.189 221.257 677.191 221.372 677.598 222.321C678.767 225.052 680.474 240.208 680.737 244.116C680.936 247.082 679.984 252.516 681.332 254.973L680.787 258.572L680.431 260.504L680.277 261.02L679.386 260.897C678.681 260.193 677.986 259.705 677.143 259.178C675.89 259.436 675.246 260.45 674.45 261.37C673.526 262.291 672.204 263.96 670.789 263.919C670.167 263.9 669.577 263.739 668.977 263.601L667.346 262.68L667.222 261.904C665.69 260.195 663.287 259.242 661.274 258.183C663.119 257.817 665.267 257.783 666.986 257.003C665.99 256.666 665.084 256.466 664.043 256.32L670.419 255.779C671.015 251.88 671.44 247.986 671.819 244.06C668.701 244.02 665.664 243.771 662.564 243.447L662.901 242.706C661.675 242.462 660.702 242.309 659.671 241.543L660.16 240.899C662.538 240.29 664.874 240.33 667.311 240.293L668.701 237.763C670.019 237.43 670.252 237.341 671.225 236.402L671.784 237.248ZM673.034 244.652C672.946 247.704 673.197 252.262 671.817 254.997C671.44 255.745 671.156 255.6 670.419 255.779L664.043 256.32C665.084 256.466 665.99 256.666 666.986 257.003C665.267 257.783 663.119 257.817 661.274 258.183C663.287 259.242 665.69 260.195 667.222 261.904L667.346 262.68L668.977 263.601C669.577 263.739 670.167 263.9 670.789 263.919C672.204 263.96 673.526 262.291 674.45 261.37C675.246 260.45 675.89 259.436 677.143 259.178C677.986 259.705 678.681 260.193 679.386 260.897L680.277 261.02L680.431 260.504L680.787 258.572C677.901 255.059 681.157 249.241 679.812 245.212C679.34 243.798 679.039 243.703 677.804 243.038C675.957 242.887 674.608 243.819 673.034 244.652ZM662.901 242.706C665.516 242.51 668.143 242.403 670.707 241.827C669.241 241.55 668.409 241.406 667.311 240.293C664.874 240.33 662.538 240.29 660.16 240.899L659.671 241.543C660.702 242.309 661.675 242.462 662.901 242.706ZM671.225 236.402C670.252 237.341 670.019 237.43 668.701 237.763L667.311 240.293C668.409 241.406 669.241 241.55 670.707 241.827C670.759 241.717 670.809 241.606 670.863 241.497C671.659 239.885 671.864 239.063 671.784 237.248L671.225 236.402Z"/>
	<path fill="#FEFEFE" fill-opacity="0.84705883" d="M671.225 236.402L671.784 237.248C671.864 239.063 671.659 239.885 670.863 241.497C670.809 241.606 670.759 241.717 670.707 241.827C669.241 241.55 668.409 241.406 667.311 240.293L668.701 237.763C670.019 237.43 670.252 237.341 671.225 236.402Z"/>
	<path fill="#FEFEFE" fill-opacity="0.86274511" d="M662.901 242.706C661.675 242.462 660.702 242.309 659.671 241.543L660.16 240.899C662.538 240.29 664.874 240.33 667.311 240.293C668.409 241.406 669.241 241.55 670.707 241.827C668.143 242.403 665.516 242.51 662.901 242.706Z"/>
	<path fill="#FEFEFE" fill-opacity="0.76078433" d="M673.034 244.652C674.608 243.819 675.957 242.887 677.804 243.038C679.039 243.703 679.34 243.798 679.812 245.212C681.157 249.241 677.901 255.059 680.787 258.572L680.431 260.504L680.277 261.02L679.386 260.897C678.681 260.193 677.986 259.705 677.143 259.178C675.89 259.436 675.246 260.45 674.45 261.37C673.526 262.291 672.204 263.96 670.789 263.919C670.167 263.9 669.577 263.739 668.977 263.601L667.346 262.68L667.222 261.904C665.69 260.195 663.287 259.242 661.274 258.183C663.119 257.817 665.267 257.783 666.986 257.003C665.99 256.666 665.084 256.466 664.043 256.32L670.419 255.779C671.156 255.6 671.44 255.745 671.817 254.997C673.197 252.262 672.946 247.704 673.034 244.652ZM674.45 261.37C675.246 260.45 675.89 259.436 677.143 259.178C677.986 259.705 678.681 260.193 679.386 260.897L680.277 261.02L680.431 260.504C679.681 258.705 678.871 256.94 678.053 255.171C678.638 252.178 679.288 248.748 677.92 245.874L677.177 245.525C675.886 246.163 675.117 246.533 674.696 248.058C673.477 252.473 676.034 257.132 674.45 261.37Z"/>
	<path fill="#FEFEFE" fill-opacity="0.66274512" d="M674.45 261.37C676.034 257.132 673.477 252.473 674.696 248.058C675.117 246.533 675.886 246.163 677.177 245.525L677.92 245.874C679.288 248.748 678.638 252.178 678.053 255.171C678.871 256.94 679.681 258.705 680.431 260.504L680.277 261.02L679.386 260.897C678.681 260.193 677.986 259.705 677.143 259.178C675.89 259.436 675.246 260.45 674.45 261.37Z"/>
	<path fill="#161D1E" d="M662.711 208.521C663.937 210.635 667.724 216.533 667.104 218.871C666.938 219.496 667.05 219.276 666.827 219.629C666.948 221.994 668.37 222.486 668.871 224.613C670.68 228.452 670.92 232.251 671.225 236.402C670.252 237.341 670.019 237.43 668.701 237.763L667.311 240.293C664.874 240.33 662.538 240.29 660.16 240.899L659.671 241.543C660.702 242.309 661.675 242.462 662.901 242.706L662.564 243.447C665.664 243.771 668.701 244.02 671.819 244.06C671.44 247.986 671.015 251.88 670.419 255.779L664.043 256.32C654.905 254.573 646.903 251.682 638.523 247.739C636.505 246.621 634.544 245.4 632.571 244.205C633.883 240.603 633.929 236.433 635.29 232.99C635.894 231.459 636.216 231.53 637.682 230.958L635.497 230.521C634.447 228.619 634.474 225.271 634.219 223.117L638.079 220.607C646.052 216.122 654.178 211.844 662.711 208.521Z"/>
	<path fill="#FEFEFE" d="M635.114 239.108C646.484 238.529 657.354 239.833 668.701 237.763L667.311 240.293C664.874 240.33 662.538 240.29 660.16 240.899L659.671 241.543C660.702 242.309 661.675 242.462 662.901 242.706L662.564 243.447C653.743 243.384 643.851 240.638 635.114 239.108Z"/>
	<path fill="#161D1E" d="M662.711 208.521C663.937 210.635 667.724 216.533 667.104 218.871C666.938 219.496 667.05 219.276 666.827 219.629C666.948 221.994 668.37 222.486 668.871 224.613C659.426 227.828 647.761 231.629 637.682 230.958L635.497 230.521C634.447 228.619 634.474 225.271 634.219 223.117L638.079 220.607C646.052 216.122 654.178 211.844 662.711 208.521Z"/>
	<path fill="#FEFEFE" d="M635.497 230.521C646.645 227.708 656.57 224.964 666.827 219.629C666.948 221.994 668.37 222.486 668.871 224.613C659.426 227.828 647.761 231.629 637.682 230.958L635.497 230.521Z"/>
	<defs>
		<linearGradient id="gradient_8" gradientUnits="userSpaceOnUse" x1="609.20331" y1="280.99271" x2="612.31464" y2="327.19946">
			<stop offset="0" stop-color="white" stop-opacity="0.82352942"/>
			<stop offset="1" stop-color="white"/>
		</linearGradient>
	</defs>
	<path fill="url(#gradient_8)" d="M663.636 276.166C667.728 277.498 667.162 276.079 670.486 276.112C671.933 276.126 672.647 277.607 673.921 277.997C672.513 281.16 669.561 287.182 666.801 289.219C660.755 298.616 648.62 308.944 638.653 313.918C635.31 316.563 631.13 318.406 627.265 320.179C609.882 328.154 590.964 331.557 571.912 329.276Q565.632 328.489 559.501 326.921Q553.369 325.353 547.482 323.03L547.39 322.551C548.384 322.64 549.6 322.83 550.559 322.494C551.691 322.097 552.879 320.943 553.385 319.88C553.92 318.753 553.912 317.535 553.375 316.41C552.572 314.726 550.888 314.318 549.251 313.856C547.62 313.665 546.343 313.513 544.882 312.737C543.936 311.611 543.854 311.004 543.666 309.602C547.302 311.264 550.879 312.906 554.703 314.098C560.963 307.098 563.45 301.276 567.287 292.969L567.458 293.003C567.768 293.862 568 294.346 568.529 295.118L569.811 294.86L570.297 295.234C569.667 300.623 564.528 311.416 562.011 316.78C564.664 317.582 567.323 318.384 570.022 319.02C572.871 319.691 576.233 320.114 578.804 318.365C583.041 315.482 584.059 307.888 585.057 303.245L586.459 303.467C587.863 305.437 587.721 308.18 587.864 310.507C587.551 313.392 587.286 316.29 586.825 319.156C591.286 318.974 598.664 319.573 601.963 316.169C602.841 315.262 603.337 314.018 603.836 312.878L604.279 313.039C604.774 312.388 604.818 312.126 604.894 311.292C605.084 309.222 605.246 306.835 606.442 305.086L606.5 305.75L607.214 305.409C608.709 308.651 608.9 312.201 610.592 315.35C615.415 314.637 621.72 310.863 626.076 308.669C626.744 307.093 625.162 305.901 625.953 304.153L627.183 304.554L627.562 304.27C627.211 303.203 626.674 303.05 625.807 302.379C625.773 301.014 626.212 300.649 626.888 299.523C628.182 301.561 630.24 304.042 632.27 305.381C635.904 307.778 638.391 301.801 641.851 301.41C642.769 301.306 643.046 301.318 643.831 300.905C643.215 300.386 643.048 300.442 642.894 299.613C645.648 297.499 648.309 294.574 651.279 292.884C652.378 292.259 652.742 291.828 653.377 290.74C655.313 288.179 657.123 285.587 658.865 282.891L659.227 283.394L659.722 282.883C659.71 281.173 659.756 279.953 660.398 278.358C661.467 277.907 662.497 277.559 663.282 276.663C663.416 276.51 663.518 276.332 663.636 276.166ZM638.653 313.918C648.62 308.944 660.755 298.616 666.801 289.219C664.97 290.077 652.099 301.064 649.576 303.254C646.923 305.557 644.291 310.056 640.913 310.963C640.584 311.052 640.259 311.157 639.93 311.248C639.681 311.317 639.43 311.378 639.18 311.443L638.889 311.853C639.379 312.111 639.088 311.995 639.784 312.139L638.865 312.736L638.653 313.918Z"/>
	<path fill="#FEFEFE" fill-opacity="0.98431373" d="M638.653 313.918L638.865 312.736L639.784 312.139C639.088 311.995 639.379 312.111 638.889 311.853L639.18 311.443C639.43 311.378 639.681 311.317 639.93 311.248C640.259 311.157 640.584 311.052 640.913 310.963C644.291 310.056 646.923 305.557 649.576 303.254C652.099 301.064 664.97 290.077 666.801 289.219C660.755 298.616 648.62 308.944 638.653 313.918Z"/>
	<path fill="#161D1E" d="M569.282 255.412C571.27 256.747 573.444 257.888 574.613 260.043C574.722 261.148 574.722 262.215 574.753 263.321C574.755 263.382 574.772 263.441 574.781 263.5C575.054 265.229 574.943 266.15 576.154 267.453C573.46 274.779 571.278 282.359 568.498 289.626C568.715 289.599 568.931 289.569 569.148 289.546C570.267 289.429 570.915 289.304 571.826 289.989C573.71 286.667 574.512 282.338 575.609 278.656C577.303 272.97 578.996 267.437 581.425 262.009C583.411 262.43 585.286 262.585 586.482 264.407C589.822 269.497 585.696 282.1 587.402 285.892L588.124 285.043C588.556 287.274 588.592 288.34 587.715 290.468C586.077 294.443 585.583 299.013 585.057 303.245C584.059 307.888 583.041 315.482 578.804 318.365C576.233 320.114 572.871 319.691 570.022 319.02C567.323 318.384 564.664 317.582 562.011 316.78C564.528 311.416 569.667 300.623 570.297 295.234L569.811 294.86L568.529 295.118C568 294.346 567.768 293.862 567.458 293.003L567.287 292.969C563.45 301.276 560.963 307.098 554.703 314.098C550.879 312.906 547.302 311.264 543.666 309.602L540.793 308.16C542.093 306.709 542.829 304.992 543.666 303.255C541.943 303.658 540.167 304.259 538.497 303.576C538.528 301.881 539.413 300.971 540.299 299.549C541.434 296.456 551.951 280.48 554.082 279.123L555.592 279.273C558.435 275.097 560.222 267.776 563.535 262.462C565.41 260.109 567.239 257.618 569.282 255.412ZM554.082 279.123C551.951 280.48 541.434 296.456 540.299 299.549C539.413 300.971 538.528 301.881 538.497 303.576C540.167 304.259 541.943 303.658 543.666 303.255C548.116 295.501 552.63 287.746 555.592 279.273L554.082 279.123Z"/>
	<defs>
		<linearGradient id="gradient_9" gradientUnits="userSpaceOnUse" x1="708.38525" y1="164.73407" x2="732.28125" y2="150.84406">
			<stop offset="0" stop-color="white" stop-opacity="0.84313726"/>
			<stop offset="1" stop-color="white"/>
		</linearGradient>
	</defs>
	<path fill="url(#gradient_9)" d="M686.384 100.855C687.976 101.899 689.806 102.899 691.164 104.236C715.216 120.788 739.181 150.528 744.765 179.679Q745.763 184.886 746.34 190.157C746.668 193.455 746.409 201.582 747.519 204.363C747.915 205.353 748.466 205.829 749.234 206.532L750.162 207.449C748.953 208.175 748.484 208.308 748.035 209.71C747.92 210.069 747.87 210.563 747.82 210.945C749.077 212.75 750.447 214.238 750 216.578C749.626 218.535 747.577 220.649 746.786 222.583L745.219 219.98L744.308 219.783L741.804 221.744C740.692 219.593 739.82 217.521 737.89 215.976L737.625 216.083L738.19 214.476C737.959 212.168 737.68 209.914 737.258 207.63L736.403 207.219C736.177 206.857 735.8 206.209 735.491 205.932C733.165 203.854 730.886 208.041 728.597 208.574C727.681 207.799 727.799 207.757 727.463 206.686L728.039 205.698L728.837 205.249C732.535 203.129 737.336 199.715 738.243 195.236C738.462 194.156 738.392 193.191 737.764 192.266L736.87 194.918C735.537 193.554 734.987 186.543 734.207 184.23C733.081 183.915 732.407 184.12 731.352 184.556C731.1 184.66 730.858 184.787 730.611 184.903C730.77 184.172 730.822 183.962 730.634 183.212C728.728 185.039 726.939 186.297 724.398 187.116C724.213 187.176 724.027 187.231 723.841 187.288C725.082 185.718 726.965 185.076 727.867 183.22L727.469 182.224L725.863 181.637C728.111 180.024 732.764 177.401 733.06 174.449C733.253 172.527 731.455 170.463 730.411 169.021L729.82 169.125C728.446 167.406 727.465 165.063 726.41 163.116C723.265 165.13 719.992 167.427 716.491 168.744C712.854 168.886 708.627 170.594 704.918 171.228C706.281 169.882 707.541 168.63 708.605 167.03L708.344 166.255C713.282 161.929 717.605 157.423 721.716 152.297L714.313 142.683C710.016 145.772 705.762 148.95 701.253 151.727L700.784 151.396C697.392 151.191 695.032 152.972 692.237 154.629C693.895 152.633 696.178 150.37 696.252 147.651L697.323 146.179C698.313 144.989 699.373 143.927 700.485 142.852C702.461 139.799 705.097 136.984 707.412 134.169L697.935 124.57Q691.696 130.135 685.358 135.587C683.759 135.857 682.073 136.339 680.484 135.984C680.65 134.69 680.798 133.427 680.779 132.12L680.758 131.133L681.069 130.496L683.038 127.26C685.187 123.936 687.411 120.656 689.598 117.356C686.99 114.899 684.063 112.745 681.246 110.531L681.127 110.445L680.816 108.417C681.441 106.754 682.35 105.967 683.667 104.808C685.196 103.462 685.763 102.837 686.384 100.855ZM690.748 117.18C689.626 119.812 688.728 122.519 686.66 124.56L685.535 125.987L683.038 127.26L681.069 130.496C681.685 131.875 681.264 132.661 682.509 133.78C684.674 133.889 686.405 132.448 688.287 131.41C689.853 128.038 691.149 127.002 694.357 125.195C692.97 122.624 691.901 119.863 690.748 117.18ZM700.485 142.852C699.373 143.927 698.313 144.989 697.323 146.179L698.05 147.21L697.53 148.373L696.536 149.839L697.121 150.197C697.354 150.142 698.008 149.978 698.222 149.974C700.92 149.925 703.87 147.963 705.994 146.283C707.864 144.804 710.539 142.792 710.804 140.343C709.688 139.549 707.791 137.787 706.491 137.793C705.841 138.499 705.176 139.194 704.532 139.905C703.354 141.205 702.561 141.912 700.934 142.655C700.785 142.722 700.635 142.786 700.485 142.852ZM686.384 100.855C685.763 102.837 685.196 103.462 683.667 104.808C682.35 105.967 681.441 106.754 680.816 108.417L681.127 110.445L681.246 110.531L682.544 110.288C686.247 111.566 687.511 110.991 691.146 109.7L691.569 108.057L692.453 108.08L692.631 108.964L693.498 108.701C693.881 109.087 694.431 109.348 694.894 109.632L694.564 108.528C693.339 107.519 691.936 106.42 691.357 104.899C691.275 104.684 691.228 104.457 691.164 104.236C689.806 102.899 687.976 101.899 686.384 100.855ZM747.82 210.945C747.775 212.902 747.719 214.053 746.668 215.733C745.501 216.528 744.739 216.874 743.279 216.642C741.149 216.303 740.162 215.673 737.89 215.976C739.82 217.521 740.692 219.593 741.804 221.744L744.308 219.783L745.219 219.98L746.786 222.583C747.577 220.649 749.626 218.535 750 216.578C750.447 214.238 749.077 212.75 747.82 210.945ZM749.234 206.532C747.76 207.459 741.156 213.176 740.13 214.516C739.132 214.765 739.214 214.894 738.19 214.476L737.625 216.083L737.89 215.976C740.162 215.673 741.149 216.303 743.279 216.642C744.739 216.874 745.501 216.528 746.668 215.733C747.719 214.053 747.775 212.902 747.82 210.945C747.87 210.563 747.92 210.069 748.035 209.71C748.484 208.308 748.953 208.175 750.162 207.449L749.234 206.532Z"/>
	<path fill="#FEFEFE" fill-opacity="0.61176473" d="M749.234 206.532L750.162 207.449C748.953 208.175 748.484 208.308 748.035 209.71C747.92 210.069 747.87 210.563 747.82 210.945C747.775 212.902 747.719 214.053 746.668 215.733C745.501 216.528 744.739 216.874 743.279 216.642C741.149 216.303 740.162 215.673 737.89 215.976L737.625 216.083L738.19 214.476C739.214 214.894 739.132 214.765 740.13 214.516C741.156 213.176 747.76 207.459 749.234 206.532Z"/>
	<path fill="#FEFEFE" fill-opacity="0.56862748" d="M747.82 210.945C749.077 212.75 750.447 214.238 750 216.578C749.626 218.535 747.577 220.649 746.786 222.583L745.219 219.98L744.308 219.783L741.804 221.744C740.692 219.593 739.82 217.521 737.89 215.976C740.162 215.673 741.149 216.303 743.279 216.642C744.739 216.874 745.501 216.528 746.668 215.733C747.719 214.053 747.775 212.902 747.82 210.945Z"/>
	<defs>
		<linearGradient id="gradient_10" gradientUnits="userSpaceOnUse" x1="686.73828" y1="103.79672" x2="684.98602" y2="110.36283">
			<stop offset="0" stop-color="white" stop-opacity="0.76862746"/>
			<stop offset="1" stop-color="white" stop-opacity="0.80392158"/>
		</linearGradient>
	</defs>
	<path fill="url(#gradient_10)" d="M686.384 100.855C687.976 101.899 689.806 102.899 691.164 104.236C691.228 104.457 691.275 104.684 691.357 104.899C691.936 106.42 693.339 107.519 694.564 108.528L694.894 109.632C694.431 109.348 693.881 109.087 693.498 108.701L692.631 108.964L692.453 108.08L691.569 108.057L691.146 109.7C687.511 110.991 686.247 111.566 682.544 110.288L681.246 110.531L681.127 110.445L680.816 108.417C681.441 106.754 682.35 105.967 683.667 104.808C685.196 103.462 685.763 102.837 686.384 100.855Z"/>
	<defs>
		<linearGradient id="gradient_11" gradientUnits="userSpaceOnUse" x1="704.84436" y1="142.08723" x2="708.66742" y2="139.34097">
			<stop offset="0" stop-color="white" stop-opacity="0.82352942"/>
			<stop offset="1" stop-color="white" stop-opacity="0.86274511"/>
		</linearGradient>
	</defs>
	<path fill="url(#gradient_11)" d="M700.485 142.852C700.635 142.786 700.785 142.722 700.934 142.655C702.561 141.912 703.354 141.205 704.532 139.905C705.176 139.194 705.841 138.499 706.491 137.793C707.791 137.787 709.688 139.549 710.804 140.343C710.539 142.792 707.864 144.804 705.994 146.283C703.87 147.963 700.92 149.925 698.222 149.974C698.008 149.978 697.354 150.142 697.121 150.197L696.536 149.839L697.53 148.373L698.05 147.21L697.323 146.179C698.313 144.989 699.373 143.927 700.485 142.852ZM698.05 147.21L697.53 148.373C698.138 148.724 698.728 148.982 699.458 148.945C700.684 148.883 701.955 148.164 702.712 147.215C703.586 146.12 703.727 145.134 703.715 143.788L702.964 143.269C701.067 143.787 699.437 145.853 698.05 147.21Z"/>
	<defs>
		<linearGradient id="gradient_12" gradientUnits="userSpaceOnUse" x1="699.33185" y1="145.70148" x2="701.78809" y2="146.32918">
			<stop offset="0" stop-color="white" stop-opacity="0.63529414"/>
			<stop offset="1" stop-color="white" stop-opacity="0.66666669"/>
		</linearGradient>
	</defs>
	<path fill="url(#gradient_12)" d="M698.05 147.21C699.437 145.853 701.067 143.787 702.964 143.269L703.715 143.788C703.727 145.134 703.586 146.12 702.712 147.215C701.955 148.164 700.684 148.883 699.458 148.945C698.728 148.982 698.138 148.724 697.53 148.373L698.05 147.21Z"/>
	<defs>
		<linearGradient id="gradient_13" gradientUnits="userSpaceOnUse" x1="690.15143" y1="124.83918" x2="691.03149" y2="120.1955">
			<stop offset="0" stop-color="white" stop-opacity="0.76078433"/>
			<stop offset="1" stop-color="white" stop-opacity="0.81960785"/>
		</linearGradient>
	</defs>
	<path fill="url(#gradient_13)" d="M690.748 117.18C691.901 119.863 692.97 122.624 694.357 125.195C691.149 127.002 689.853 128.038 688.287 131.41C686.405 132.448 684.674 133.889 682.509 133.78C681.264 132.661 681.685 131.875 681.069 130.496L683.038 127.26L685.535 125.987L686.66 124.56C688.728 122.519 689.626 119.812 690.748 117.18ZM686.66 124.56L685.535 125.987C684.56 127.859 682.914 129.458 682.549 131.58L683.239 132.125C684.446 132.018 685.256 131.749 686.24 131.06C687.554 130.138 688.138 129.078 688.387 127.492C688.047 126.045 687.773 125.548 686.66 124.56Z"/>
	<path fill="#FEFEFE" fill-opacity="0.50980395" d="M686.66 124.56C687.773 125.548 688.047 126.045 688.387 127.492C688.138 129.078 687.554 130.138 686.24 131.06C685.256 131.749 684.446 132.018 683.239 132.125L682.549 131.58C682.914 129.458 684.56 127.859 685.535 125.987L686.66 124.56Z"/>
	<defs>
		<linearGradient id="gradient_14" gradientUnits="userSpaceOnUse" x1="662.85016" y1="207.02794" x2="560.41187" y2="251.19183">
			<stop offset="0" stop-color="white" stop-opacity="0.93725491"/>
			<stop offset="1" stop-color="white"/>
		</linearGradient>
	</defs>
	<path fill="url(#gradient_14)" d="M567.743 254.45C559.51 247.529 553.849 240.349 550.797 229.848C547.015 216.836 548.435 201.953 555.127 190.125Q555.756 189.011 556.439 187.93Q557.121 186.849 557.857 185.803Q558.592 184.757 559.378 183.749Q560.165 182.74 561 181.772Q561.835 180.803 562.717 179.877Q563.599 178.951 564.525 178.07Q565.452 177.188 566.42 176.354Q567.389 175.519 568.398 174.734Q569.407 173.948 570.454 173.213Q571.5 172.479 572.582 171.796Q573.664 171.114 574.777 170.486Q575.891 169.858 577.035 169.286Q578.178 168.714 579.349 168.199Q580.519 167.684 581.714 167.227Q582.908 166.771 584.124 166.374Q585.339 165.977 586.573 165.64C612.126 158.556 628.703 169.115 650.036 181.249C652.359 182.576 654.443 183.933 656.549 185.598C657.387 189.827 663.757 192.259 662.831 196.49C661.642 197.758 661.036 198.03 659.291 198.058C656.951 198.097 656.417 197.667 654.455 196.45C654.756 197.166 655.206 197.969 655.331 198.731L656.608 199.607C657.9 199.556 658.823 199.574 660.092 199.912C660.484 200.527 660.781 200.61 660.524 201.38C659.873 203.336 657.758 205.224 656.612 206.989L657.043 207.851C659.036 208.044 660.919 206.741 662.583 207.735L662.711 208.521C654.178 211.844 646.052 216.122 638.079 220.607L634.219 223.117C634.474 225.271 634.447 228.619 635.497 230.521L637.682 230.958C636.216 231.53 635.894 231.459 635.29 232.99C633.929 236.433 633.883 240.603 632.571 244.205C634.544 245.4 636.505 246.621 638.523 247.739C646.903 251.682 654.905 254.573 664.043 256.32C665.084 256.466 665.99 256.666 666.986 257.003C665.267 257.783 663.119 257.817 661.274 258.183C663.287 259.242 665.69 260.195 667.222 261.904L667.346 262.68L668.977 263.601L668.257 265.832C666.823 269.295 665.507 272.914 663.636 276.166C663.518 276.332 663.416 276.51 663.282 276.663C662.497 277.559 661.467 277.907 660.398 278.358C659.756 279.953 659.71 281.173 659.722 282.883L659.227 283.394L658.865 282.891C657.123 285.587 655.313 288.179 653.377 290.74C652.742 291.828 652.378 292.259 651.279 292.884C648.309 294.574 645.648 297.499 642.894 299.613C643.048 300.442 643.215 300.386 643.831 300.905C643.046 301.318 642.769 301.306 641.851 301.41C638.391 301.801 635.904 307.778 632.27 305.381C630.24 304.042 628.182 301.561 626.888 299.523C626.212 300.649 625.773 301.014 625.807 302.379C626.674 303.05 627.211 303.203 627.562 304.27L627.183 304.554L625.953 304.153C625.162 305.901 626.744 307.093 626.076 308.669C621.72 310.863 615.415 314.637 610.592 315.35C608.9 312.201 608.709 308.651 607.214 305.409L606.5 305.75L606.442 305.086C605.246 306.835 605.084 309.222 604.894 311.292C604.818 312.126 604.774 312.388 604.279 313.039L603.836 312.878C603.337 314.018 602.841 315.262 601.963 316.169C598.664 319.573 591.286 318.974 586.825 319.156C587.286 316.29 587.551 313.392 587.864 310.507C587.721 308.18 587.863 305.437 586.459 303.467L585.057 303.245C585.583 299.013 586.077 294.443 587.715 290.468C588.592 288.34 588.556 287.274 588.124 285.043L587.402 285.892C585.696 282.1 589.822 269.497 586.482 264.407C585.286 262.585 583.411 262.43 581.425 262.009C578.996 267.437 577.303 272.97 575.609 278.656C574.512 282.338 573.71 286.667 571.826 289.989C570.915 289.304 570.267 289.429 569.148 289.546C568.931 289.569 568.715 289.599 568.498 289.626C571.278 282.359 573.46 274.779 576.154 267.453C574.943 266.15 575.054 265.229 574.781 263.5C574.772 263.441 574.755 263.382 574.753 263.321C574.722 262.215 574.722 261.148 574.613 260.043C573.444 257.888 571.27 256.747 569.282 255.412C567.239 257.618 565.41 260.109 563.535 262.462L562.472 261.691C563.996 259.146 565.953 256.813 567.743 254.45ZM612.347 203.741C611.43 200.469 609.659 190.453 607.296 188.656C606.827 188.3 605.958 188.486 605.458 188.673C604.276 189.114 603.645 190.147 603.288 191.288C602.114 195.043 604.976 201.316 606.393 204.878C603.741 201.09 601.22 196.59 596.952 194.49L595.608 194.494C594.795 195.497 594.725 196.135 594.898 197.432C595.471 201.701 598.047 205.296 600.664 208.555C598.392 206.53 594.325 202.08 590.956 202.285C590.255 202.328 590.124 202.419 589.533 202.641C588.866 203.619 588.728 204.18 589.019 205.371C589.841 208.741 592.124 210.73 594.666 212.852L595.897 213.888C593.792 212.816 590.813 210.737 588.405 211.6C587.607 211.886 587.568 212.28 587.158 212.96C586.881 216.124 588.671 222.103 590.123 224.953L590.297 227.373C588.835 226.835 588.055 226.662 586.582 227.375C586.026 227.645 585.512 228.156 585.059 228.555L585.003 229.5C586.673 230.642 588.261 230.375 590.151 230.136L588.076 231.671C588.531 232.463 588.213 232.186 588.885 232.518C590.127 233.134 590.858 233.544 591.68 234.715C592.71 235.266 593.863 235.594 595.017 235.778C598.045 236.261 605.207 235.955 607.486 233.531C608.501 232.452 608.37 232.108 608.243 230.743C607.206 229.08 605.715 228.554 603.996 227.732C605.516 225.6 606.97 223.961 608.932 222.206C609.262 221.842 609.429 221.62 609.8 221.329C617.967 214.91 622.699 222.893 628.584 223.314C629.388 222.295 629.313 221.719 629.12 220.443C628.596 216.979 627.895 215.095 625.035 213.069C626.632 213.243 628.375 213.379 629.438 214.765C629.543 214.901 629.618 215.058 629.708 215.205C630.772 217.14 631.7 219.478 633.6 220.696C635.204 221.021 635.932 220.645 637.326 219.962L638.079 220.607C646.052 216.122 654.178 211.844 662.711 208.521L662.583 207.735C660.919 206.741 659.036 208.044 657.043 207.851L656.612 206.989C657.758 205.224 659.873 203.336 660.524 201.38C660.781 200.61 660.484 200.527 660.092 199.912C658.823 199.574 657.9 199.556 656.608 199.607L655.331 198.731C655.206 197.969 654.756 197.166 654.455 196.45C654.192 196.46 653.929 196.477 653.666 196.48C651.246 196.511 649.693 195.593 648.049 193.91C647.923 193.277 647.788 192.795 647.512 192.203C647.431 192.027 647.341 191.856 647.256 191.683L647.022 190.832C644.895 189.319 642.451 188.659 639.997 187.847L639.316 187.713C637.483 187.201 635.131 187.567 633.229 187.645L633.281 186.347C631.754 185.417 629.305 185.831 627.548 185.868C625.732 188.072 623.86 190.281 622.745 192.946C621.408 196.63 620.32 200.446 618.885 204.083C618.404 197.449 618.007 191.675 622.35 186.132L622.152 185.518C620.469 185.033 617.787 185.131 616.212 185.935C614.306 186.909 613.341 188.572 612.839 190.597C611.824 194.692 612.6 199.513 612.347 203.741ZM590.437 264.31C590.433 271.672 590.537 279.072 589.715 286.399L588.124 285.043C588.556 287.274 588.592 288.34 587.715 290.468C586.077 294.443 585.583 299.013 585.057 303.245L586.459 303.467C587.863 305.437 587.721 308.18 587.864 310.507C587.551 313.392 587.286 316.29 586.825 319.156C591.286 318.974 598.664 319.573 601.963 316.169C602.841 315.262 603.337 314.018 603.836 312.878C605.396 297.297 603.443 279.317 598.453 264.522L590.437 264.31ZM607.213 293.656C605.939 295.63 606.241 302.053 606.844 304.421C606.958 304.867 607.043 305.026 607.214 305.409C608.709 308.651 608.9 312.201 610.592 315.35C615.415 314.637 621.72 310.863 626.076 308.669C626.744 307.093 625.162 305.901 625.953 304.153L627.183 304.554L627.562 304.27C627.211 303.203 626.674 303.05 625.807 302.379C625.773 301.014 626.212 300.649 626.888 299.523L627.141 298.862C626.843 297.857 626.555 296.952 626.097 296.005C625.348 294.457 624.824 293.684 625.165 291.957C624.796 290.679 623.963 289.431 623.336 288.253C622.163 287.852 620.802 287.775 619.572 287.595C617.94 281.48 615.567 275.554 613.352 269.629C611.94 267.154 610.617 264.591 608.848 262.351C606.794 262.736 604.752 262.943 602.968 264.095C601.95 267.135 606.437 289.041 607.213 293.656ZM650.036 181.249C648.501 181.241 646.722 180.996 645.328 181.717C647.565 183.368 653.623 184.631 654.539 187.141C653.313 186.998 652.101 186.865 650.866 186.811L650.507 187.525C649.601 187.212 649.314 186.97 648.613 186.353C647.297 186.506 646.345 186.752 645.104 187.217C643.365 187.868 641.83 187.876 639.997 187.847C642.451 188.659 644.895 189.319 647.022 190.832L647.256 191.683C647.341 191.856 647.431 192.027 647.512 192.203C647.788 192.795 647.923 193.277 648.049 193.91C649.693 195.593 651.246 196.511 653.666 196.48C653.929 196.477 654.192 196.46 654.455 196.45C656.417 197.667 656.951 198.097 659.291 198.058C661.036 198.03 661.642 197.758 662.831 196.49C663.757 192.259 657.387 189.827 656.549 185.598C654.443 183.933 652.359 182.576 650.036 181.249Z"/>
	<path d="M574.781 263.5C575.375 262.358 575.836 261.463 576.837 260.607L577.438 260.915C577.663 263.427 577.167 265.166 576.154 267.453C574.943 266.15 575.054 265.229 574.781 263.5Z"/>
	<defs>
		<linearGradient id="gradient_15" gradientUnits="userSpaceOnUse" x1="661.2829" y1="191.21484" x2="649.39502" y2="193.80975">
			<stop offset="0" stop-color="white" stop-opacity="0.75686276"/>
			<stop offset="1" stop-color="white" stop-opacity="0.91764706"/>
		</linearGradient>
	</defs>
	<path fill="url(#gradient_15)" d="M650.036 181.249C652.359 182.576 654.443 183.933 656.549 185.598C657.387 189.827 663.757 192.259 662.831 196.49C661.642 197.758 661.036 198.03 659.291 198.058C656.951 198.097 656.417 197.667 654.455 196.45C654.192 196.46 653.929 196.477 653.666 196.48C651.246 196.511 649.693 195.593 648.049 193.91C647.923 193.277 647.788 192.795 647.512 192.203C647.431 192.027 647.341 191.856 647.256 191.683L647.022 190.832C644.895 189.319 642.451 188.659 639.997 187.847C641.83 187.876 643.365 187.868 645.104 187.217C646.345 186.752 647.297 186.506 648.613 186.353C649.314 186.97 649.601 187.212 650.507 187.525L650.866 186.811C652.101 186.865 653.313 186.998 654.539 187.141C653.623 184.631 647.565 183.368 645.328 181.717C646.722 180.996 648.501 181.241 650.036 181.249Z"/>
	<path fill="#161D1E" d="M607.213 293.656C606.437 289.041 601.95 267.135 602.968 264.095C604.752 262.943 606.794 262.736 608.848 262.351C610.617 264.591 611.94 267.154 613.352 269.629C615.567 275.554 617.94 281.48 619.572 287.595C620.802 287.775 622.163 287.852 623.336 288.253C623.963 289.431 624.796 290.679 625.165 291.957C624.824 293.684 625.348 294.457 626.097 296.005C626.555 296.952 626.843 297.857 627.141 298.862L626.888 299.523C626.212 300.649 625.773 301.014 625.807 302.379C626.674 303.05 627.211 303.203 627.562 304.27L627.183 304.554L625.953 304.153C625.162 305.901 626.744 307.093 626.076 308.669C621.72 310.863 615.415 314.637 610.592 315.35C608.9 312.201 608.709 308.651 607.214 305.409C607.043 305.026 606.958 304.867 606.844 304.421C606.241 302.053 605.939 295.63 607.213 293.656ZM619.572 287.595C621.928 294.441 623.095 302.133 626.076 308.669C626.744 307.093 625.162 305.901 625.953 304.153L627.183 304.554L627.562 304.27C627.211 303.203 626.674 303.05 625.807 302.379C625.773 301.014 626.212 300.649 626.888 299.523L627.141 298.862C626.843 297.857 626.555 296.952 626.097 296.005C625.348 294.457 624.824 293.684 625.165 291.957C624.796 290.679 623.963 289.431 623.336 288.253C622.163 287.852 620.802 287.775 619.572 287.595Z"/>
	<path fill="#FEFEFE" d="M607.213 293.656C608.576 300.689 610.573 308.161 610.592 315.35C608.9 312.201 608.709 308.651 607.214 305.409C607.043 305.026 606.958 304.867 606.844 304.421C606.241 302.053 605.939 295.63 607.213 293.656Z"/>
	<path fill="#FEFEFE" fill-opacity="0.95686275" d="M619.572 287.595C620.802 287.775 622.163 287.852 623.336 288.253C623.963 289.431 624.796 290.679 625.165 291.957C624.824 293.684 625.348 294.457 626.097 296.005C626.555 296.952 626.843 297.857 627.141 298.862L626.888 299.523C626.212 300.649 625.773 301.014 625.807 302.379C626.674 303.05 627.211 303.203 627.562 304.27L627.183 304.554L625.953 304.153C625.162 305.901 626.744 307.093 626.076 308.669C623.095 302.133 621.928 294.441 619.572 287.595Z"/>
	<path fill="#161D1E" d="M590.437 264.31L598.453 264.522C603.443 279.317 605.396 297.297 603.836 312.878C603.337 314.018 602.841 315.262 601.963 316.169C598.664 319.573 591.286 318.974 586.825 319.156C587.286 316.29 587.551 313.392 587.864 310.507C587.721 308.18 587.863 305.437 586.459 303.467L585.057 303.245C585.583 299.013 586.077 294.443 587.715 290.468C588.592 288.34 588.556 287.274 588.124 285.043L589.715 286.399C590.537 279.072 590.433 271.672 590.437 264.31ZM588.124 285.043C588.556 287.274 588.592 288.34 587.715 290.468C586.077 294.443 585.583 299.013 585.057 303.245L586.459 303.467C587.863 305.437 587.721 308.18 587.864 310.507Q589.414 298.501 589.715 286.399L588.124 285.043Z"/>
	<path fill="#FEFEFE" fill-opacity="0.98039216" d="M588.124 285.043L589.715 286.399Q589.414 298.501 587.864 310.507C587.721 308.18 587.863 305.437 586.459 303.467L585.057 303.245C585.583 299.013 586.077 294.443 587.715 290.468C588.592 288.34 588.556 287.274 588.124 285.043Z"/>
	<path fill="#161D1E" d="M614.797 266.372C614.326 264.54 613.779 262.855 613.991 260.948C614.732 259.746 614.707 259.693 616.028 259.226C619.413 260.016 620.986 261.931 623.193 264.429L623.823 264.053C624.567 265.126 625.264 266.16 626.145 267.129C626.106 266.923 626.063 266.718 626.029 266.512C625.874 265.579 625.908 265.944 626 264.934C626.15 265.083 626.301 265.231 626.448 265.382C628.291 267.275 629.679 269.92 631.279 272.045C634.954 276.924 645.597 291.013 652.416 290.832C652.737 290.823 653.056 290.77 653.377 290.74C652.742 291.828 652.378 292.259 651.279 292.884C648.309 294.574 645.648 297.499 642.894 299.613C643.048 300.442 643.215 300.386 643.831 300.905C643.046 301.318 642.769 301.306 641.851 301.41C638.391 301.801 635.904 307.778 632.27 305.381C630.24 304.042 628.182 301.561 626.888 299.523L627.141 298.862C626.843 297.857 626.555 296.952 626.097 296.005C625.348 294.457 624.824 293.684 625.165 291.957C624.796 290.679 623.963 289.431 623.336 288.253C622.163 287.852 620.802 287.775 619.572 287.595C617.94 281.48 615.567 275.554 613.352 269.629L613.678 269.494C614.74 270.578 615.03 271.937 615.534 273.346C616.453 271.864 614.344 269.083 614.649 267.152C614.69 266.891 614.747 266.632 614.797 266.372Z"/>
	<path fill="#FEFEFE" d="M613.352 269.629L613.678 269.494C614.74 270.578 615.03 271.937 615.534 273.346C616.453 271.864 614.344 269.083 614.649 267.152C614.69 266.891 614.747 266.632 614.797 266.372Q618.468 277.546 623.336 288.253C622.163 287.852 620.802 287.775 619.572 287.595C617.94 281.48 615.567 275.554 613.352 269.629Z"/>
	<path fill="#FEFEFE" d="M623.193 264.429L623.823 264.053C624.567 265.126 625.264 266.16 626.145 267.129C626.106 266.923 626.063 266.718 626.029 266.512C625.874 265.579 625.908 265.944 626 264.934C626.15 265.083 626.301 265.231 626.448 265.382C628.291 267.275 629.679 269.92 631.279 272.045C634.954 276.924 645.597 291.013 652.416 290.832C652.737 290.823 653.056 290.77 653.377 290.74C652.742 291.828 652.378 292.259 651.279 292.884C648.309 294.574 645.648 297.499 642.894 299.613C643.048 300.442 643.215 300.386 643.831 300.905C643.046 301.318 642.769 301.306 641.851 301.41C638.391 301.801 635.904 307.778 632.27 305.381C630.24 304.042 628.182 301.561 626.888 299.523L627.141 298.862C626.843 297.857 626.555 296.952 626.097 296.005C625.348 294.457 624.824 293.684 625.165 291.957C627.724 296.542 630.274 301.005 633.322 305.292C637.709 302.442 641.851 299.107 646.044 295.976C638.261 287.814 628.672 274.21 623.193 264.429Z"/>
	<defs>
		<linearGradient id="gradient_16" gradientUnits="userSpaceOnUse" x1="658.46594" y1="280.18222" x2="620.32037" y2="263.32794">
			<stop offset="0" stop-color="#040605"/>
			<stop offset="1" stop-color="#202429"/>
		</linearGradient>
	</defs>
	<path fill="url(#gradient_16)" d="M637.6 260.885C635.767 259.071 633.922 257.117 632.646 254.86C631.568 252.95 629.753 249.225 630.615 247.025C630.898 246.302 631.436 246.291 632.094 246.004C634.272 246.264 635.964 247.59 637.781 248.736L638.523 247.739C646.903 251.682 654.905 254.573 664.043 256.32C665.084 256.466 665.99 256.666 666.986 257.003C665.267 257.783 663.119 257.817 661.274 258.183C663.287 259.242 665.69 260.195 667.222 261.904L667.346 262.68L668.977 263.601L668.257 265.832C666.823 269.295 665.507 272.914 663.636 276.166C663.518 276.332 663.416 276.51 663.282 276.663C662.497 277.559 661.467 277.907 660.398 278.358C659.756 279.953 659.71 281.173 659.722 282.883L659.227 283.394L658.865 282.891C657.123 285.587 655.313 288.179 653.377 290.74C653.056 290.77 652.737 290.823 652.416 290.832C645.597 291.013 634.954 276.924 631.279 272.045C629.679 269.92 628.291 267.275 626.448 265.382C626.301 265.231 626.15 265.083 626 264.934C625.317 262.931 624.323 260.922 623.912 258.853C623.482 256.687 623.359 254.291 624.612 252.432L625.774 252.264C630.017 253.69 633.809 258.432 636.946 261.56L637.6 260.885Z"/>
	<path fill="#FEFEFE" d="M637.6 260.885C644.83 267.008 654.161 274.164 663.636 276.166C663.518 276.332 663.416 276.51 663.282 276.663C662.497 277.559 661.467 277.907 660.398 278.358C659.756 279.953 659.71 281.173 659.722 282.883L659.227 283.394L658.865 282.891C651.74 275.619 644.083 268.856 636.946 261.56L637.6 260.885Z"/>
	<path fill="#161D1E" d="M637.6 260.885C635.767 259.071 633.922 257.117 632.646 254.86C631.568 252.95 629.753 249.225 630.615 247.025C630.898 246.302 631.436 246.291 632.094 246.004C634.272 246.264 635.964 247.59 637.781 248.736L638.523 247.739C646.903 251.682 654.905 254.573 664.043 256.32C665.084 256.466 665.99 256.666 666.986 257.003C665.267 257.783 663.119 257.817 661.274 258.183C663.287 259.242 665.69 260.195 667.222 261.904L667.346 262.68L668.977 263.601L668.257 265.832C666.823 269.295 665.507 272.914 663.636 276.166C654.161 274.164 644.83 267.008 637.6 260.885Z"/>
	<path fill="#FEFEFE" d="M638.523 247.739C646.903 251.682 654.905 254.573 664.043 256.32C665.084 256.466 665.99 256.666 666.986 257.003C665.267 257.783 663.119 257.817 661.274 258.183C663.287 259.242 665.69 260.195 667.222 261.904L667.346 262.68C656.819 259.623 647.244 254.13 637.781 248.736L638.523 247.739Z"/>
	<path fill="#161D1E" d="M608.932 222.206C613.39 221.465 619.937 219.859 623.863 222.741C625.697 224.088 626.648 226.022 626.867 228.266C627.419 233.924 624.626 239.887 620.952 244.03C615.259 250.45 606.849 253.78 598.386 254.111C587.675 254.53 577.271 250.066 569.525 242.779C567.37 240.751 565.522 238.458 563.63 236.191C569.36 233.585 575.136 230.701 581.189 228.925C584.571 230.992 587.96 233.318 591.68 234.715C592.71 235.266 593.863 235.594 595.017 235.778C598.045 236.261 605.207 235.955 607.486 233.531C608.501 232.452 608.37 232.108 608.243 230.743C607.206 229.08 605.715 228.554 603.996 227.732C605.516 225.6 606.97 223.961 608.932 222.206Z"/>
	<path d="M612.347 203.741C612.6 199.513 611.824 194.692 612.839 190.597C613.341 188.572 614.306 186.909 616.212 185.935C617.787 185.131 620.469 185.033 622.152 185.518L622.35 186.132C618.007 191.675 618.404 197.449 618.885 204.083C620.32 200.446 621.408 196.63 622.745 192.946C623.86 190.281 625.732 188.072 627.548 185.868C629.305 185.831 631.754 185.417 633.281 186.347L633.229 187.645C635.131 187.567 637.483 187.201 639.316 187.713L639.997 187.847C642.451 188.659 644.895 189.319 647.022 190.832L647.256 191.683C647.341 191.856 647.431 192.027 647.512 192.203C647.788 192.795 647.923 193.277 648.049 193.91C649.693 195.593 651.246 196.511 653.666 196.48C653.929 196.477 654.192 196.46 654.455 196.45C654.756 197.166 655.206 197.969 655.331 198.731L656.608 199.607C657.9 199.556 658.823 199.574 660.092 199.912C660.484 200.527 660.781 200.61 660.524 201.38C659.873 203.336 657.758 205.224 656.612 206.989L657.043 207.851C659.036 208.044 660.919 206.741 662.583 207.735L662.711 208.521C654.178 211.844 646.052 216.122 638.079 220.607L637.326 219.962C635.932 220.645 635.204 221.021 633.6 220.696C631.7 219.478 630.772 217.14 629.708 215.205C629.618 215.058 629.543 214.901 629.438 214.765C628.375 213.379 626.632 213.243 625.035 213.069C627.895 215.095 628.596 216.979 629.12 220.443C629.313 221.719 629.388 222.295 628.584 223.314C622.699 222.893 617.967 214.91 609.8 221.329C609.429 221.62 609.262 221.842 608.932 222.206C606.97 223.961 605.516 225.6 603.996 227.732C605.715 228.554 607.206 229.08 608.243 230.743C608.37 232.108 608.501 232.452 607.486 233.531C605.207 235.955 598.045 236.261 595.017 235.778C593.863 235.594 592.71 235.266 591.68 234.715C590.858 233.544 590.127 233.134 588.885 232.518C588.213 232.186 588.531 232.463 588.076 231.671L590.151 230.136C588.261 230.375 586.673 230.642 585.003 229.5L585.059 228.555C585.512 228.156 586.026 227.645 586.582 227.375C588.055 226.662 588.835 226.835 590.297 227.373L590.123 224.953C588.671 222.103 586.881 216.124 587.158 212.96C587.568 212.28 587.607 211.886 588.405 211.6C590.813 210.737 593.792 212.816 595.897 213.888L594.666 212.852C592.124 210.73 589.841 208.741 589.019 205.371C588.728 204.18 588.866 203.619 589.533 202.641C590.124 202.419 590.255 202.328 590.956 202.285C594.325 202.08 598.392 206.53 600.664 208.555C598.047 205.296 595.471 201.701 594.898 197.432C594.725 196.135 594.795 195.497 595.608 194.494L596.952 194.49C601.22 196.59 603.741 201.09 606.393 204.878C604.976 201.316 602.114 195.043 603.288 191.288C603.645 190.147 604.276 189.114 605.458 188.673C605.958 188.486 606.827 188.3 607.296 188.656C609.659 190.453 611.43 200.469 612.347 203.741ZM602.019 210.605C599.491 214.862 597.985 219.54 595.733 223.92L598.91 230.488C595.72 228.947 592.671 227.485 590.123 224.953L590.297 227.373C588.835 226.835 588.055 226.662 586.582 227.375C586.026 227.645 585.512 228.156 585.059 228.555L585.003 229.5C586.673 230.642 588.261 230.375 590.151 230.136L588.076 231.671C588.531 232.463 588.213 232.186 588.885 232.518C590.127 233.134 590.858 233.544 591.68 234.715C592.71 235.266 593.863 235.594 595.017 235.778C598.045 236.261 605.207 235.955 607.486 233.531C608.501 232.452 608.37 232.108 608.243 230.743C607.206 229.08 605.715 228.554 603.996 227.732C605.516 225.6 606.97 223.961 608.932 222.206C609.262 221.842 609.429 221.62 609.8 221.329C617.967 214.91 622.699 222.893 628.584 223.314C629.388 222.295 629.313 221.719 629.12 220.443C628.596 216.979 627.895 215.095 625.035 213.069C623.559 212.257 622.215 211.033 620.883 209.997C616.457 209.5 610.552 211.532 606.954 208.791C605.298 209.351 603.601 209.859 602.019 210.605ZM647.256 191.683C640.625 198.757 636.174 206.957 628.721 213.459C622.213 209.341 616.143 206.614 608.263 208.461Q607.606 208.617 606.954 208.791C610.552 211.532 616.457 209.5 620.883 209.997C622.215 211.033 623.559 212.257 625.035 213.069C626.632 213.243 628.375 213.379 629.438 214.765C629.543 214.901 629.618 215.058 629.708 215.205C634.164 210.144 644.584 199.645 650.882 197.437C652.284 196.946 654.072 198.133 655.331 198.731C655.206 197.969 654.756 197.166 654.455 196.45C654.192 196.46 653.929 196.477 653.666 196.48C651.246 196.511 649.693 195.593 648.049 193.91C647.923 193.277 647.788 192.795 647.512 192.203C647.431 192.027 647.341 191.856 647.256 191.683Z"/>
	<path fill="#FEFEFE" d="M633.229 187.645C635.131 187.567 637.483 187.201 639.316 187.713C634.781 193.569 630.335 199.545 625.456 205.119L628.308 198.434C630.216 195.014 631.653 191.231 633.229 187.645Z"/>
	<path fill="#161D1E" d="M627.548 185.868C629.305 185.831 631.754 185.417 633.281 186.347L633.229 187.645C631.653 191.231 630.216 195.014 628.308 198.434C628.01 198.385 627.709 198.349 627.413 198.286C623.778 197.518 624.845 195.918 623.18 193.502C623.046 193.309 622.89 193.131 622.745 192.946C623.86 190.281 625.732 188.072 627.548 185.868Z"/>
	<path fill="#FEFEFE" fill-opacity="0.98823529" d="M647.256 191.683C647.341 191.856 647.431 192.027 647.512 192.203C647.788 192.795 647.923 193.277 648.049 193.91C649.693 195.593 651.246 196.511 653.666 196.48C653.929 196.477 654.192 196.46 654.455 196.45C654.756 197.166 655.206 197.969 655.331 198.731C654.072 198.133 652.284 196.946 650.882 197.437C644.584 199.645 634.164 210.144 629.708 215.205C629.618 215.058 629.543 214.901 629.438 214.765C628.375 213.379 626.632 213.243 625.035 213.069C623.559 212.257 622.215 211.033 620.883 209.997C616.457 209.5 610.552 211.532 606.954 208.791Q607.606 208.617 608.263 208.461C616.143 206.614 622.213 209.341 628.721 213.459C636.174 206.957 640.625 198.757 647.256 191.683Z"/>
	<path fill="#161D1E" d="M629.708 215.205C634.164 210.144 644.584 199.645 650.882 197.437C652.284 196.946 654.072 198.133 655.331 198.731L656.608 199.607C657.9 199.556 658.823 199.574 660.092 199.912C660.484 200.527 660.781 200.61 660.524 201.38C659.873 203.336 657.758 205.224 656.612 206.989L657.043 207.851C659.036 208.044 660.919 206.741 662.583 207.735L662.711 208.521C654.178 211.844 646.052 216.122 638.079 220.607L637.326 219.962C635.932 220.645 635.204 221.021 633.6 220.696C631.7 219.478 630.772 217.14 629.708 215.205Z"/>
	<path fill="#FEFEFE" d="M656.608 199.607C657.9 199.556 658.823 199.574 660.092 199.912C660.484 200.527 660.781 200.61 660.524 201.38C659.873 203.336 657.758 205.224 656.612 206.989L657.043 207.851C659.036 208.044 660.919 206.741 662.583 207.735L662.711 208.521C654.178 211.844 646.052 216.122 638.079 220.607L637.326 219.962C642.788 214.224 653.598 209.458 658.75 202.313C658.499 200.969 657.589 200.511 656.608 199.607Z"/>
	<defs>
		<linearGradient id="gradient_17" gradientUnits="userSpaceOnUse" x1="623.89227" y1="210.53658" x2="589.42572" y2="235.58885">
			<stop offset="0" stop-color="white" stop-opacity="0.83137256"/>
			<stop offset="1" stop-color="white"/>
		</linearGradient>
	</defs>
	<path fill="url(#gradient_17)" d="M602.019 210.605C603.601 209.859 605.298 209.351 606.954 208.791C610.552 211.532 616.457 209.5 620.883 209.997C622.215 211.033 623.559 212.257 625.035 213.069C627.895 215.095 628.596 216.979 629.12 220.443C629.313 221.719 629.388 222.295 628.584 223.314C622.699 222.893 617.967 214.91 609.8 221.329C609.429 221.62 609.262 221.842 608.932 222.206C606.97 223.961 605.516 225.6 603.996 227.732C605.715 228.554 607.206 229.08 608.243 230.743C608.37 232.108 608.501 232.452 607.486 233.531C605.207 235.955 598.045 236.261 595.017 235.778C593.863 235.594 592.71 235.266 591.68 234.715C590.858 233.544 590.127 233.134 588.885 232.518C588.213 232.186 588.531 232.463 588.076 231.671L590.151 230.136C588.261 230.375 586.673 230.642 585.003 229.5L585.059 228.555C585.512 228.156 586.026 227.645 586.582 227.375C588.055 226.662 588.835 226.835 590.297 227.373L590.123 224.953C592.671 227.485 595.72 228.947 598.91 230.488L595.733 223.92C597.985 219.54 599.491 214.862 602.019 210.605Z"/>
</svg>
